%TF.GenerationSoftware,KiCad,Pcbnew,7.0.10*%
%TF.CreationDate,2024-08-08T13:18:15-05:00*%
%TF.ProjectId,river_sampler,72697665-725f-4736-916d-706c65722e6b,rev?*%
%TF.SameCoordinates,Original*%
%TF.FileFunction,Soldermask,Bot*%
%TF.FilePolarity,Negative*%
%FSLAX46Y46*%
G04 Gerber Fmt 4.6, Leading zero omitted, Abs format (unit mm)*
G04 Created by KiCad (PCBNEW 7.0.10) date 2024-08-08 13:18:15*
%MOMM*%
%LPD*%
G01*
G04 APERTURE LIST*
G04 Aperture macros list*
%AMRoundRect*
0 Rectangle with rounded corners*
0 $1 Rounding radius*
0 $2 $3 $4 $5 $6 $7 $8 $9 X,Y pos of 4 corners*
0 Add a 4 corners polygon primitive as box body*
4,1,4,$2,$3,$4,$5,$6,$7,$8,$9,$2,$3,0*
0 Add four circle primitives for the rounded corners*
1,1,$1+$1,$2,$3*
1,1,$1+$1,$4,$5*
1,1,$1+$1,$6,$7*
1,1,$1+$1,$8,$9*
0 Add four rect primitives between the rounded corners*
20,1,$1+$1,$2,$3,$4,$5,0*
20,1,$1+$1,$4,$5,$6,$7,0*
20,1,$1+$1,$6,$7,$8,$9,0*
20,1,$1+$1,$8,$9,$2,$3,0*%
G04 Aperture macros list end*
%ADD10C,2.139000*%
%ADD11C,2.184000*%
%ADD12RoundRect,0.102000X0.990000X0.990000X-0.990000X0.990000X-0.990000X-0.990000X0.990000X-0.990000X0*%
%ADD13C,4.400000*%
%ADD14C,1.524800*%
%ADD15R,2.400000X2.400000*%
%ADD16O,2.400000X2.400000*%
%ADD17R,1.600000X1.600000*%
%ADD18O,1.600000X1.600000*%
%ADD19R,2.000000X1.905000*%
%ADD20O,2.000000X1.905000*%
%ADD21R,1.300000X1.600000*%
%ADD22R,2.800000X2.800000*%
%ADD23C,2.800000*%
%ADD24RoundRect,0.225000X0.225000X0.250000X-0.225000X0.250000X-0.225000X-0.250000X0.225000X-0.250000X0*%
%ADD25R,2.600000X2.600000*%
%ADD26C,2.600000*%
G04 APERTURE END LIST*
D10*
%TO.C,K3*%
X68100000Y-92500000D03*
D11*
X53900000Y-98500000D03*
X53900000Y-86500000D03*
D12*
X66100000Y-98500000D03*
D11*
X66100000Y-86500000D03*
%TD*%
D13*
%TO.C,H2*%
X138303000Y-170027600D03*
%TD*%
D14*
%TO.C,Q4*%
X74500000Y-89770000D03*
X76405000Y-88500000D03*
X74500000Y-87230000D03*
%TD*%
D15*
%TO.C,D12*%
X58880000Y-176500000D03*
D16*
X74120000Y-176500000D03*
%TD*%
D13*
%TO.C,H3*%
X46710600Y-89281000D03*
%TD*%
D17*
%TO.C,U6*%
X86790000Y-114990000D03*
D18*
X86790000Y-117530000D03*
X86790000Y-120070000D03*
X86790000Y-122610000D03*
X86790000Y-125150000D03*
X86790000Y-127690000D03*
X86790000Y-130230000D03*
X86790000Y-132770000D03*
X86790000Y-135310000D03*
X86790000Y-137850000D03*
X86790000Y-140390000D03*
X86790000Y-142930000D03*
X86790000Y-145470000D03*
X86790000Y-148010000D03*
X94410000Y-148010000D03*
X94410000Y-145470000D03*
X94410000Y-142930000D03*
X94410000Y-140390000D03*
X94410000Y-137850000D03*
X94410000Y-135310000D03*
X94410000Y-132770000D03*
X94410000Y-130230000D03*
X94410000Y-127690000D03*
X94410000Y-125150000D03*
X94410000Y-122610000D03*
X94410000Y-120070000D03*
X94410000Y-117530000D03*
X94410000Y-114990000D03*
%TD*%
D10*
%TO.C,K4*%
X68100000Y-109500000D03*
D11*
X53900000Y-115500000D03*
X53900000Y-103500000D03*
D12*
X66100000Y-115500000D03*
D11*
X66100000Y-103500000D03*
%TD*%
D14*
%TO.C,Q5*%
X74500000Y-110270000D03*
X76405000Y-109000000D03*
X74500000Y-107730000D03*
%TD*%
D13*
%TO.C,H1*%
X135331200Y-89255600D03*
%TD*%
D10*
%TO.C,K2*%
X68000000Y-126500000D03*
D11*
X53800000Y-132500000D03*
X53800000Y-120500000D03*
D12*
X66000000Y-132500000D03*
D11*
X66000000Y-120500000D03*
%TD*%
D15*
%TO.C,D14*%
X110380000Y-175000000D03*
D16*
X125620000Y-175000000D03*
%TD*%
D14*
%TO.C,Q3*%
X73900000Y-125270000D03*
X75805000Y-124000000D03*
X73900000Y-122730000D03*
%TD*%
%TO.C,Q2*%
X74500000Y-142770000D03*
X76405000Y-141500000D03*
X74500000Y-140230000D03*
%TD*%
D19*
%TO.C,Q1*%
X121445000Y-101440000D03*
D20*
X121445000Y-98900000D03*
X121445000Y-96360000D03*
%TD*%
D10*
%TO.C,K1*%
X68100000Y-143500000D03*
D11*
X53900000Y-149500000D03*
X53900000Y-137500000D03*
D12*
X66100000Y-149500000D03*
D11*
X66100000Y-137500000D03*
%TD*%
D13*
%TO.C,H4*%
X43865800Y-162991800D03*
%TD*%
D21*
%TO.C,Y1*%
X91500000Y-136850000D03*
X91500000Y-140150000D03*
X89500000Y-140150000D03*
X89500000Y-136850000D03*
%TD*%
D22*
%TO.C,J10*%
X135750000Y-96500000D03*
D23*
X135750000Y-101500000D03*
%TD*%
D24*
%TO.C,C17*%
X84775000Y-135500000D03*
X83225000Y-135500000D03*
%TD*%
D22*
%TO.C,J4*%
X121500000Y-86250000D03*
D23*
X126500000Y-86250000D03*
%TD*%
D22*
%TO.C,J13*%
X45720000Y-104582600D03*
D23*
X45720000Y-99582600D03*
%TD*%
%TO.C,J3*%
X136500000Y-151000000D03*
X136500000Y-146000000D03*
X136500000Y-141000000D03*
D22*
X136500000Y-136000000D03*
%TD*%
D25*
%TO.C,J14*%
X91545000Y-175500000D03*
D26*
X86465000Y-175500000D03*
%TD*%
D22*
%TO.C,J12*%
X87500000Y-86250000D03*
D23*
X92500000Y-86250000D03*
X97500000Y-86250000D03*
%TD*%
D24*
%TO.C,C18*%
X84775000Y-138000000D03*
X83225000Y-138000000D03*
%TD*%
D23*
%TO.C,J5*%
X136250000Y-126000000D03*
X136250000Y-121000000D03*
X136250000Y-116000000D03*
D22*
X136250000Y-111000000D03*
%TD*%
%TO.C,J6*%
X104500000Y-86250000D03*
D23*
X109500000Y-86250000D03*
X114500000Y-86250000D03*
%TD*%
%TO.C,J11*%
X45466000Y-132490200D03*
D22*
X45466000Y-137490200D03*
%TD*%
M02*
