%TF.GenerationSoftware,KiCad,Pcbnew,7.0.10*%
%TF.CreationDate,2024-08-08T13:18:15-05:00*%
%TF.ProjectId,river_sampler,72697665-725f-4736-916d-706c65722e6b,rev?*%
%TF.SameCoordinates,Original*%
%TF.FileFunction,Soldermask,Top*%
%TF.FilePolarity,Negative*%
%FSLAX46Y46*%
G04 Gerber Fmt 4.6, Leading zero omitted, Abs format (unit mm)*
G04 Created by KiCad (PCBNEW 7.0.10) date 2024-08-08 13:18:15*
%MOMM*%
%LPD*%
G01*
G04 APERTURE LIST*
G04 Aperture macros list*
%AMRoundRect*
0 Rectangle with rounded corners*
0 $1 Rounding radius*
0 $2 $3 $4 $5 $6 $7 $8 $9 X,Y pos of 4 corners*
0 Add a 4 corners polygon primitive as box body*
4,1,4,$2,$3,$4,$5,$6,$7,$8,$9,$2,$3,0*
0 Add four circle primitives for the rounded corners*
1,1,$1+$1,$2,$3*
1,1,$1+$1,$4,$5*
1,1,$1+$1,$6,$7*
1,1,$1+$1,$8,$9*
0 Add four rect primitives between the rounded corners*
20,1,$1+$1,$2,$3,$4,$5,0*
20,1,$1+$1,$4,$5,$6,$7,0*
20,1,$1+$1,$6,$7,$8,$9,0*
20,1,$1+$1,$8,$9,$2,$3,0*%
G04 Aperture macros list end*
%ADD10C,0.010000*%
%ADD11C,1.500000*%
%ADD12RoundRect,0.250000X0.312500X1.075000X-0.312500X1.075000X-0.312500X-1.075000X0.312500X-1.075000X0*%
%ADD13R,1.500000X2.400000*%
%ADD14C,2.139000*%
%ADD15C,2.184000*%
%ADD16RoundRect,0.102000X0.990000X0.990000X-0.990000X0.990000X-0.990000X-0.990000X0.990000X-0.990000X0*%
%ADD17RoundRect,0.250000X-0.550000X1.500000X-0.550000X-1.500000X0.550000X-1.500000X0.550000X1.500000X0*%
%ADD18RoundRect,0.250000X-0.312500X-1.075000X0.312500X-1.075000X0.312500X1.075000X-0.312500X1.075000X0*%
%ADD19RoundRect,0.140000X0.170000X-0.140000X0.170000X0.140000X-0.170000X0.140000X-0.170000X-0.140000X0*%
%ADD20RoundRect,0.250000X1.075000X-0.312500X1.075000X0.312500X-1.075000X0.312500X-1.075000X-0.312500X0*%
%ADD21RoundRect,0.112500X0.112500X-0.187500X0.112500X0.187500X-0.112500X0.187500X-0.112500X-0.187500X0*%
%ADD22RoundRect,0.250000X0.987500X2.325000X-0.987500X2.325000X-0.987500X-2.325000X0.987500X-2.325000X0*%
%ADD23RoundRect,0.218750X0.218750X0.256250X-0.218750X0.256250X-0.218750X-0.256250X0.218750X-0.256250X0*%
%ADD24RoundRect,0.250000X-1.075000X0.312500X-1.075000X-0.312500X1.075000X-0.312500X1.075000X0.312500X0*%
%ADD25RoundRect,0.250000X0.312500X0.625000X-0.312500X0.625000X-0.312500X-0.625000X0.312500X-0.625000X0*%
%ADD26C,4.400000*%
%ADD27RoundRect,0.250000X1.000000X-1.500000X1.000000X1.500000X-1.000000X1.500000X-1.000000X-1.500000X0*%
%ADD28C,1.524800*%
%ADD29RoundRect,0.250000X2.125000X-0.275000X2.125000X0.275000X-2.125000X0.275000X-2.125000X-0.275000X0*%
%ADD30RoundRect,0.250000X-0.475000X0.250000X-0.475000X-0.250000X0.475000X-0.250000X0.475000X0.250000X0*%
%ADD31R,2.400000X2.400000*%
%ADD32O,2.400000X2.400000*%
%ADD33RoundRect,0.250000X-0.625000X0.375000X-0.625000X-0.375000X0.625000X-0.375000X0.625000X0.375000X0*%
%ADD34R,1.600000X1.600000*%
%ADD35O,1.600000X1.600000*%
%ADD36RoundRect,0.250000X0.375000X0.625000X-0.375000X0.625000X-0.375000X-0.625000X0.375000X-0.625000X0*%
%ADD37RoundRect,0.250000X-0.312500X-0.625000X0.312500X-0.625000X0.312500X0.625000X-0.312500X0.625000X0*%
%ADD38RoundRect,0.250000X0.300000X-2.050000X0.300000X2.050000X-0.300000X2.050000X-0.300000X-2.050000X0*%
%ADD39RoundRect,0.250002X5.149998X-4.449998X5.149998X4.449998X-5.149998X4.449998X-5.149998X-4.449998X0*%
%ADD40RoundRect,0.250000X0.625000X-0.375000X0.625000X0.375000X-0.625000X0.375000X-0.625000X-0.375000X0*%
%ADD41RoundRect,0.250000X-0.625000X0.312500X-0.625000X-0.312500X0.625000X-0.312500X0.625000X0.312500X0*%
%ADD42RoundRect,0.140000X-0.140000X-0.170000X0.140000X-0.170000X0.140000X0.170000X-0.140000X0.170000X0*%
%ADD43RoundRect,0.350000X-1.900000X-0.350000X1.900000X-0.350000X1.900000X0.350000X-1.900000X0.350000X0*%
%ADD44RoundRect,0.218750X-0.218750X-0.256250X0.218750X-0.256250X0.218750X0.256250X-0.218750X0.256250X0*%
%ADD45RoundRect,0.250000X-0.325000X-0.650000X0.325000X-0.650000X0.325000X0.650000X-0.325000X0.650000X0*%
%ADD46RoundRect,0.250000X0.475000X-0.250000X0.475000X0.250000X-0.475000X0.250000X-0.475000X-0.250000X0*%
%ADD47R,2.000000X1.905000*%
%ADD48O,2.000000X1.905000*%
%ADD49RoundRect,0.140000X-0.170000X0.140000X-0.170000X-0.140000X0.170000X-0.140000X0.170000X0.140000X0*%
%ADD50RoundRect,0.225000X-0.225000X-0.250000X0.225000X-0.250000X0.225000X0.250000X-0.225000X0.250000X0*%
%ADD51R,2.800000X2.800000*%
%ADD52C,2.800000*%
%ADD53R,2.600000X2.600000*%
%ADD54C,2.600000*%
G04 APERTURE END LIST*
%TO.C,U5*%
D10*
X116670000Y-146445000D02*
X114930000Y-146445000D01*
X114930000Y-146005000D01*
X116670000Y-146005000D01*
X116670000Y-146445000D01*
G36*
X116670000Y-146445000D02*
G01*
X114930000Y-146445000D01*
X114930000Y-146005000D01*
X116670000Y-146005000D01*
X116670000Y-146445000D01*
G37*
X116670000Y-145795000D02*
X114930000Y-145795000D01*
X114930000Y-145355000D01*
X116670000Y-145355000D01*
X116670000Y-145795000D01*
G36*
X116670000Y-145795000D02*
G01*
X114930000Y-145795000D01*
X114930000Y-145355000D01*
X116670000Y-145355000D01*
X116670000Y-145795000D01*
G37*
X116670000Y-145145000D02*
X114930000Y-145145000D01*
X114930000Y-144705000D01*
X116670000Y-144705000D01*
X116670000Y-145145000D01*
G36*
X116670000Y-145145000D02*
G01*
X114930000Y-145145000D01*
X114930000Y-144705000D01*
X116670000Y-144705000D01*
X116670000Y-145145000D01*
G37*
X116670000Y-144495000D02*
X114930000Y-144495000D01*
X114930000Y-144055000D01*
X116670000Y-144055000D01*
X116670000Y-144495000D01*
G36*
X116670000Y-144495000D02*
G01*
X114930000Y-144495000D01*
X114930000Y-144055000D01*
X116670000Y-144055000D01*
X116670000Y-144495000D01*
G37*
X116670000Y-143845000D02*
X114930000Y-143845000D01*
X114930000Y-143405000D01*
X116670000Y-143405000D01*
X116670000Y-143845000D01*
G36*
X116670000Y-143845000D02*
G01*
X114930000Y-143845000D01*
X114930000Y-143405000D01*
X116670000Y-143405000D01*
X116670000Y-143845000D01*
G37*
X116670000Y-143195000D02*
X114930000Y-143195000D01*
X114930000Y-142755000D01*
X116670000Y-142755000D01*
X116670000Y-143195000D01*
G36*
X116670000Y-143195000D02*
G01*
X114930000Y-143195000D01*
X114930000Y-142755000D01*
X116670000Y-142755000D01*
X116670000Y-143195000D01*
G37*
X116670000Y-142545000D02*
X114930000Y-142545000D01*
X114930000Y-142105000D01*
X116670000Y-142105000D01*
X116670000Y-142545000D01*
G36*
X116670000Y-142545000D02*
G01*
X114930000Y-142545000D01*
X114930000Y-142105000D01*
X116670000Y-142105000D01*
X116670000Y-142545000D01*
G37*
X116670000Y-141895000D02*
X114930000Y-141895000D01*
X114930000Y-141455000D01*
X116670000Y-141455000D01*
X116670000Y-141895000D01*
G36*
X116670000Y-141895000D02*
G01*
X114930000Y-141895000D01*
X114930000Y-141455000D01*
X116670000Y-141455000D01*
X116670000Y-141895000D01*
G37*
X116670000Y-141245000D02*
X114930000Y-141245000D01*
X114930000Y-140805000D01*
X116670000Y-140805000D01*
X116670000Y-141245000D01*
G36*
X116670000Y-141245000D02*
G01*
X114930000Y-141245000D01*
X114930000Y-140805000D01*
X116670000Y-140805000D01*
X116670000Y-141245000D01*
G37*
X116670000Y-140595000D02*
X114930000Y-140595000D01*
X114930000Y-140155000D01*
X116670000Y-140155000D01*
X116670000Y-140595000D01*
G36*
X116670000Y-140595000D02*
G01*
X114930000Y-140595000D01*
X114930000Y-140155000D01*
X116670000Y-140155000D01*
X116670000Y-140595000D01*
G37*
X116670000Y-139945000D02*
X114930000Y-139945000D01*
X114930000Y-139505000D01*
X116670000Y-139505000D01*
X116670000Y-139945000D01*
G36*
X116670000Y-139945000D02*
G01*
X114930000Y-139945000D01*
X114930000Y-139505000D01*
X116670000Y-139505000D01*
X116670000Y-139945000D01*
G37*
X116670000Y-139295000D02*
X114930000Y-139295000D01*
X114930000Y-138855000D01*
X116670000Y-138855000D01*
X116670000Y-139295000D01*
G36*
X116670000Y-139295000D02*
G01*
X114930000Y-139295000D01*
X114930000Y-138855000D01*
X116670000Y-138855000D01*
X116670000Y-139295000D01*
G37*
X116670000Y-138645000D02*
X114930000Y-138645000D01*
X114930000Y-138205000D01*
X116670000Y-138205000D01*
X116670000Y-138645000D01*
G36*
X116670000Y-138645000D02*
G01*
X114930000Y-138645000D01*
X114930000Y-138205000D01*
X116670000Y-138205000D01*
X116670000Y-138645000D01*
G37*
X116670000Y-137995000D02*
X114930000Y-137995000D01*
X114930000Y-137555000D01*
X116670000Y-137555000D01*
X116670000Y-137995000D01*
G36*
X116670000Y-137995000D02*
G01*
X114930000Y-137995000D01*
X114930000Y-137555000D01*
X116670000Y-137555000D01*
X116670000Y-137995000D01*
G37*
X114200000Y-145230000D02*
X111800000Y-145230000D01*
X111800000Y-138770000D01*
X114200000Y-138770000D01*
X114200000Y-145230000D01*
G36*
X114200000Y-145230000D02*
G01*
X111800000Y-145230000D01*
X111800000Y-138770000D01*
X114200000Y-138770000D01*
X114200000Y-145230000D01*
G37*
X111070000Y-146445000D02*
X109330000Y-146445000D01*
X109330000Y-146005000D01*
X111070000Y-146005000D01*
X111070000Y-146445000D01*
G36*
X111070000Y-146445000D02*
G01*
X109330000Y-146445000D01*
X109330000Y-146005000D01*
X111070000Y-146005000D01*
X111070000Y-146445000D01*
G37*
X111070000Y-145795000D02*
X109330000Y-145795000D01*
X109330000Y-145355000D01*
X111070000Y-145355000D01*
X111070000Y-145795000D01*
G36*
X111070000Y-145795000D02*
G01*
X109330000Y-145795000D01*
X109330000Y-145355000D01*
X111070000Y-145355000D01*
X111070000Y-145795000D01*
G37*
X111070000Y-145145000D02*
X109330000Y-145145000D01*
X109330000Y-144705000D01*
X111070000Y-144705000D01*
X111070000Y-145145000D01*
G36*
X111070000Y-145145000D02*
G01*
X109330000Y-145145000D01*
X109330000Y-144705000D01*
X111070000Y-144705000D01*
X111070000Y-145145000D01*
G37*
X111070000Y-144495000D02*
X109330000Y-144495000D01*
X109330000Y-144055000D01*
X111070000Y-144055000D01*
X111070000Y-144495000D01*
G36*
X111070000Y-144495000D02*
G01*
X109330000Y-144495000D01*
X109330000Y-144055000D01*
X111070000Y-144055000D01*
X111070000Y-144495000D01*
G37*
X111070000Y-143845000D02*
X109330000Y-143845000D01*
X109330000Y-143405000D01*
X111070000Y-143405000D01*
X111070000Y-143845000D01*
G36*
X111070000Y-143845000D02*
G01*
X109330000Y-143845000D01*
X109330000Y-143405000D01*
X111070000Y-143405000D01*
X111070000Y-143845000D01*
G37*
X111070000Y-143195000D02*
X109330000Y-143195000D01*
X109330000Y-142755000D01*
X111070000Y-142755000D01*
X111070000Y-143195000D01*
G36*
X111070000Y-143195000D02*
G01*
X109330000Y-143195000D01*
X109330000Y-142755000D01*
X111070000Y-142755000D01*
X111070000Y-143195000D01*
G37*
X111070000Y-142545000D02*
X109330000Y-142545000D01*
X109330000Y-142105000D01*
X111070000Y-142105000D01*
X111070000Y-142545000D01*
G36*
X111070000Y-142545000D02*
G01*
X109330000Y-142545000D01*
X109330000Y-142105000D01*
X111070000Y-142105000D01*
X111070000Y-142545000D01*
G37*
X111070000Y-141895000D02*
X109330000Y-141895000D01*
X109330000Y-141455000D01*
X111070000Y-141455000D01*
X111070000Y-141895000D01*
G36*
X111070000Y-141895000D02*
G01*
X109330000Y-141895000D01*
X109330000Y-141455000D01*
X111070000Y-141455000D01*
X111070000Y-141895000D01*
G37*
X111070000Y-141245000D02*
X109330000Y-141245000D01*
X109330000Y-140805000D01*
X111070000Y-140805000D01*
X111070000Y-141245000D01*
G36*
X111070000Y-141245000D02*
G01*
X109330000Y-141245000D01*
X109330000Y-140805000D01*
X111070000Y-140805000D01*
X111070000Y-141245000D01*
G37*
X111070000Y-140595000D02*
X109330000Y-140595000D01*
X109330000Y-140155000D01*
X111070000Y-140155000D01*
X111070000Y-140595000D01*
G36*
X111070000Y-140595000D02*
G01*
X109330000Y-140595000D01*
X109330000Y-140155000D01*
X111070000Y-140155000D01*
X111070000Y-140595000D01*
G37*
X111070000Y-139945000D02*
X109330000Y-139945000D01*
X109330000Y-139505000D01*
X111070000Y-139505000D01*
X111070000Y-139945000D01*
G36*
X111070000Y-139945000D02*
G01*
X109330000Y-139945000D01*
X109330000Y-139505000D01*
X111070000Y-139505000D01*
X111070000Y-139945000D01*
G37*
X111070000Y-139295000D02*
X109330000Y-139295000D01*
X109330000Y-138855000D01*
X111070000Y-138855000D01*
X111070000Y-139295000D01*
G36*
X111070000Y-139295000D02*
G01*
X109330000Y-139295000D01*
X109330000Y-138855000D01*
X111070000Y-138855000D01*
X111070000Y-139295000D01*
G37*
X111070000Y-138645000D02*
X109330000Y-138645000D01*
X109330000Y-138205000D01*
X111070000Y-138205000D01*
X111070000Y-138645000D01*
G36*
X111070000Y-138645000D02*
G01*
X109330000Y-138645000D01*
X109330000Y-138205000D01*
X111070000Y-138205000D01*
X111070000Y-138645000D01*
G37*
X111070000Y-137995000D02*
X109330000Y-137995000D01*
X109330000Y-137555000D01*
X111070000Y-137555000D01*
X111070000Y-137995000D01*
G36*
X111070000Y-137995000D02*
G01*
X109330000Y-137995000D01*
X109330000Y-137555000D01*
X111070000Y-137555000D01*
X111070000Y-137995000D01*
G37*
%TO.C,U2*%
X117670000Y-122945000D02*
X115930000Y-122945000D01*
X115930000Y-122505000D01*
X117670000Y-122505000D01*
X117670000Y-122945000D01*
G36*
X117670000Y-122945000D02*
G01*
X115930000Y-122945000D01*
X115930000Y-122505000D01*
X117670000Y-122505000D01*
X117670000Y-122945000D01*
G37*
X117670000Y-122295000D02*
X115930000Y-122295000D01*
X115930000Y-121855000D01*
X117670000Y-121855000D01*
X117670000Y-122295000D01*
G36*
X117670000Y-122295000D02*
G01*
X115930000Y-122295000D01*
X115930000Y-121855000D01*
X117670000Y-121855000D01*
X117670000Y-122295000D01*
G37*
X117670000Y-121645000D02*
X115930000Y-121645000D01*
X115930000Y-121205000D01*
X117670000Y-121205000D01*
X117670000Y-121645000D01*
G36*
X117670000Y-121645000D02*
G01*
X115930000Y-121645000D01*
X115930000Y-121205000D01*
X117670000Y-121205000D01*
X117670000Y-121645000D01*
G37*
X117670000Y-120995000D02*
X115930000Y-120995000D01*
X115930000Y-120555000D01*
X117670000Y-120555000D01*
X117670000Y-120995000D01*
G36*
X117670000Y-120995000D02*
G01*
X115930000Y-120995000D01*
X115930000Y-120555000D01*
X117670000Y-120555000D01*
X117670000Y-120995000D01*
G37*
X117670000Y-120345000D02*
X115930000Y-120345000D01*
X115930000Y-119905000D01*
X117670000Y-119905000D01*
X117670000Y-120345000D01*
G36*
X117670000Y-120345000D02*
G01*
X115930000Y-120345000D01*
X115930000Y-119905000D01*
X117670000Y-119905000D01*
X117670000Y-120345000D01*
G37*
X117670000Y-119695000D02*
X115930000Y-119695000D01*
X115930000Y-119255000D01*
X117670000Y-119255000D01*
X117670000Y-119695000D01*
G36*
X117670000Y-119695000D02*
G01*
X115930000Y-119695000D01*
X115930000Y-119255000D01*
X117670000Y-119255000D01*
X117670000Y-119695000D01*
G37*
X117670000Y-119045000D02*
X115930000Y-119045000D01*
X115930000Y-118605000D01*
X117670000Y-118605000D01*
X117670000Y-119045000D01*
G36*
X117670000Y-119045000D02*
G01*
X115930000Y-119045000D01*
X115930000Y-118605000D01*
X117670000Y-118605000D01*
X117670000Y-119045000D01*
G37*
X117670000Y-118395000D02*
X115930000Y-118395000D01*
X115930000Y-117955000D01*
X117670000Y-117955000D01*
X117670000Y-118395000D01*
G36*
X117670000Y-118395000D02*
G01*
X115930000Y-118395000D01*
X115930000Y-117955000D01*
X117670000Y-117955000D01*
X117670000Y-118395000D01*
G37*
X117670000Y-117745000D02*
X115930000Y-117745000D01*
X115930000Y-117305000D01*
X117670000Y-117305000D01*
X117670000Y-117745000D01*
G36*
X117670000Y-117745000D02*
G01*
X115930000Y-117745000D01*
X115930000Y-117305000D01*
X117670000Y-117305000D01*
X117670000Y-117745000D01*
G37*
X117670000Y-117095000D02*
X115930000Y-117095000D01*
X115930000Y-116655000D01*
X117670000Y-116655000D01*
X117670000Y-117095000D01*
G36*
X117670000Y-117095000D02*
G01*
X115930000Y-117095000D01*
X115930000Y-116655000D01*
X117670000Y-116655000D01*
X117670000Y-117095000D01*
G37*
X117670000Y-116445000D02*
X115930000Y-116445000D01*
X115930000Y-116005000D01*
X117670000Y-116005000D01*
X117670000Y-116445000D01*
G36*
X117670000Y-116445000D02*
G01*
X115930000Y-116445000D01*
X115930000Y-116005000D01*
X117670000Y-116005000D01*
X117670000Y-116445000D01*
G37*
X117670000Y-115795000D02*
X115930000Y-115795000D01*
X115930000Y-115355000D01*
X117670000Y-115355000D01*
X117670000Y-115795000D01*
G36*
X117670000Y-115795000D02*
G01*
X115930000Y-115795000D01*
X115930000Y-115355000D01*
X117670000Y-115355000D01*
X117670000Y-115795000D01*
G37*
X117670000Y-115145000D02*
X115930000Y-115145000D01*
X115930000Y-114705000D01*
X117670000Y-114705000D01*
X117670000Y-115145000D01*
G36*
X117670000Y-115145000D02*
G01*
X115930000Y-115145000D01*
X115930000Y-114705000D01*
X117670000Y-114705000D01*
X117670000Y-115145000D01*
G37*
X117670000Y-114495000D02*
X115930000Y-114495000D01*
X115930000Y-114055000D01*
X117670000Y-114055000D01*
X117670000Y-114495000D01*
G36*
X117670000Y-114495000D02*
G01*
X115930000Y-114495000D01*
X115930000Y-114055000D01*
X117670000Y-114055000D01*
X117670000Y-114495000D01*
G37*
X115200000Y-121730000D02*
X112800000Y-121730000D01*
X112800000Y-115270000D01*
X115200000Y-115270000D01*
X115200000Y-121730000D01*
G36*
X115200000Y-121730000D02*
G01*
X112800000Y-121730000D01*
X112800000Y-115270000D01*
X115200000Y-115270000D01*
X115200000Y-121730000D01*
G37*
X112070000Y-122945000D02*
X110330000Y-122945000D01*
X110330000Y-122505000D01*
X112070000Y-122505000D01*
X112070000Y-122945000D01*
G36*
X112070000Y-122945000D02*
G01*
X110330000Y-122945000D01*
X110330000Y-122505000D01*
X112070000Y-122505000D01*
X112070000Y-122945000D01*
G37*
X112070000Y-122295000D02*
X110330000Y-122295000D01*
X110330000Y-121855000D01*
X112070000Y-121855000D01*
X112070000Y-122295000D01*
G36*
X112070000Y-122295000D02*
G01*
X110330000Y-122295000D01*
X110330000Y-121855000D01*
X112070000Y-121855000D01*
X112070000Y-122295000D01*
G37*
X112070000Y-121645000D02*
X110330000Y-121645000D01*
X110330000Y-121205000D01*
X112070000Y-121205000D01*
X112070000Y-121645000D01*
G36*
X112070000Y-121645000D02*
G01*
X110330000Y-121645000D01*
X110330000Y-121205000D01*
X112070000Y-121205000D01*
X112070000Y-121645000D01*
G37*
X112070000Y-120995000D02*
X110330000Y-120995000D01*
X110330000Y-120555000D01*
X112070000Y-120555000D01*
X112070000Y-120995000D01*
G36*
X112070000Y-120995000D02*
G01*
X110330000Y-120995000D01*
X110330000Y-120555000D01*
X112070000Y-120555000D01*
X112070000Y-120995000D01*
G37*
X112070000Y-120345000D02*
X110330000Y-120345000D01*
X110330000Y-119905000D01*
X112070000Y-119905000D01*
X112070000Y-120345000D01*
G36*
X112070000Y-120345000D02*
G01*
X110330000Y-120345000D01*
X110330000Y-119905000D01*
X112070000Y-119905000D01*
X112070000Y-120345000D01*
G37*
X112070000Y-119695000D02*
X110330000Y-119695000D01*
X110330000Y-119255000D01*
X112070000Y-119255000D01*
X112070000Y-119695000D01*
G36*
X112070000Y-119695000D02*
G01*
X110330000Y-119695000D01*
X110330000Y-119255000D01*
X112070000Y-119255000D01*
X112070000Y-119695000D01*
G37*
X112070000Y-119045000D02*
X110330000Y-119045000D01*
X110330000Y-118605000D01*
X112070000Y-118605000D01*
X112070000Y-119045000D01*
G36*
X112070000Y-119045000D02*
G01*
X110330000Y-119045000D01*
X110330000Y-118605000D01*
X112070000Y-118605000D01*
X112070000Y-119045000D01*
G37*
X112070000Y-118395000D02*
X110330000Y-118395000D01*
X110330000Y-117955000D01*
X112070000Y-117955000D01*
X112070000Y-118395000D01*
G36*
X112070000Y-118395000D02*
G01*
X110330000Y-118395000D01*
X110330000Y-117955000D01*
X112070000Y-117955000D01*
X112070000Y-118395000D01*
G37*
X112070000Y-117745000D02*
X110330000Y-117745000D01*
X110330000Y-117305000D01*
X112070000Y-117305000D01*
X112070000Y-117745000D01*
G36*
X112070000Y-117745000D02*
G01*
X110330000Y-117745000D01*
X110330000Y-117305000D01*
X112070000Y-117305000D01*
X112070000Y-117745000D01*
G37*
X112070000Y-117095000D02*
X110330000Y-117095000D01*
X110330000Y-116655000D01*
X112070000Y-116655000D01*
X112070000Y-117095000D01*
G36*
X112070000Y-117095000D02*
G01*
X110330000Y-117095000D01*
X110330000Y-116655000D01*
X112070000Y-116655000D01*
X112070000Y-117095000D01*
G37*
X112070000Y-116445000D02*
X110330000Y-116445000D01*
X110330000Y-116005000D01*
X112070000Y-116005000D01*
X112070000Y-116445000D01*
G36*
X112070000Y-116445000D02*
G01*
X110330000Y-116445000D01*
X110330000Y-116005000D01*
X112070000Y-116005000D01*
X112070000Y-116445000D01*
G37*
X112070000Y-115795000D02*
X110330000Y-115795000D01*
X110330000Y-115355000D01*
X112070000Y-115355000D01*
X112070000Y-115795000D01*
G36*
X112070000Y-115795000D02*
G01*
X110330000Y-115795000D01*
X110330000Y-115355000D01*
X112070000Y-115355000D01*
X112070000Y-115795000D01*
G37*
X112070000Y-115145000D02*
X110330000Y-115145000D01*
X110330000Y-114705000D01*
X112070000Y-114705000D01*
X112070000Y-115145000D01*
G36*
X112070000Y-115145000D02*
G01*
X110330000Y-115145000D01*
X110330000Y-114705000D01*
X112070000Y-114705000D01*
X112070000Y-115145000D01*
G37*
X112070000Y-114495000D02*
X110330000Y-114495000D01*
X110330000Y-114055000D01*
X112070000Y-114055000D01*
X112070000Y-114495000D01*
G36*
X112070000Y-114495000D02*
G01*
X110330000Y-114495000D01*
X110330000Y-114055000D01*
X112070000Y-114055000D01*
X112070000Y-114495000D01*
G37*
%TD*%
D11*
%TO.C,REF\u002A\u002A*%
X56515000Y-83108800D03*
%TD*%
%TO.C,REF\u002A\u002A*%
X126949200Y-179654200D03*
%TD*%
D12*
%TO.C,R26*%
X117199600Y-95834200D03*
X114274600Y-95834200D03*
%TD*%
D13*
%TO.C,L2*%
X125750000Y-167500000D03*
X131250000Y-167500000D03*
%TD*%
D12*
%TO.C,R10*%
X82367500Y-88000000D03*
X79442500Y-88000000D03*
%TD*%
D14*
%TO.C,K3*%
X68100000Y-92500000D03*
D15*
X53900000Y-98500000D03*
X53900000Y-86500000D03*
D16*
X66100000Y-98500000D03*
D15*
X66100000Y-86500000D03*
%TD*%
D17*
%TO.C,C10*%
X80543400Y-172349200D03*
X80543400Y-177749200D03*
%TD*%
D18*
%TO.C,R2*%
X111037500Y-100400000D03*
X113962500Y-100400000D03*
%TD*%
D19*
%TO.C,C20*%
X121005600Y-146707800D03*
X121005600Y-145747800D03*
%TD*%
D20*
%TO.C,R19*%
X50000000Y-158462500D03*
X50000000Y-155537500D03*
%TD*%
D21*
%TO.C,D4*%
X74000000Y-132550000D03*
X74000000Y-130450000D03*
%TD*%
D19*
%TO.C,C8*%
X122631200Y-146707800D03*
X122631200Y-145747800D03*
%TD*%
D22*
%TO.C,D7*%
X88687500Y-163000000D03*
X82312500Y-163000000D03*
%TD*%
D21*
%TO.C,D2*%
X74500000Y-149550000D03*
X74500000Y-147450000D03*
%TD*%
D23*
%TO.C,F2*%
X104673500Y-165481000D03*
X103098500Y-165481000D03*
%TD*%
D24*
%TO.C,R9*%
X81005000Y-99037500D03*
X81005000Y-101962500D03*
%TD*%
D25*
%TO.C,R7*%
X125084300Y-119735600D03*
X122159300Y-119735600D03*
%TD*%
D20*
%TO.C,R20*%
X136500000Y-159362500D03*
X136500000Y-156437500D03*
%TD*%
D26*
%TO.C,H2*%
X138303000Y-170027600D03*
%TD*%
D27*
%TO.C,C1*%
X129057400Y-115899000D03*
X129057400Y-109399000D03*
%TD*%
D28*
%TO.C,Q4*%
X74500000Y-89770000D03*
X76405000Y-88500000D03*
X74500000Y-87230000D03*
%TD*%
D29*
%TO.C,R13*%
X125653800Y-127052600D03*
X125653800Y-124102600D03*
%TD*%
D27*
%TO.C,C7*%
X128000000Y-142950000D03*
X128000000Y-136450000D03*
%TD*%
D30*
%TO.C,C24*%
X101500000Y-132500000D03*
X101500000Y-134400000D03*
%TD*%
D19*
%TO.C,C4*%
X121920000Y-123924000D03*
X121920000Y-122964000D03*
%TD*%
D31*
%TO.C,D12*%
X58880000Y-176500000D03*
D32*
X74120000Y-176500000D03*
%TD*%
D26*
%TO.C,H3*%
X46710600Y-89281000D03*
%TD*%
D33*
%TO.C,D1*%
X80500000Y-147200000D03*
X80500000Y-150000000D03*
%TD*%
D34*
%TO.C,U6*%
X86790000Y-114990000D03*
D35*
X86790000Y-117530000D03*
X86790000Y-120070000D03*
X86790000Y-122610000D03*
X86790000Y-125150000D03*
X86790000Y-127690000D03*
X86790000Y-130230000D03*
X86790000Y-132770000D03*
X86790000Y-135310000D03*
X86790000Y-137850000D03*
X86790000Y-140390000D03*
X86790000Y-142930000D03*
X86790000Y-145470000D03*
X86790000Y-148010000D03*
X94410000Y-148010000D03*
X94410000Y-145470000D03*
X94410000Y-142930000D03*
X94410000Y-140390000D03*
X94410000Y-137850000D03*
X94410000Y-135310000D03*
X94410000Y-132770000D03*
X94410000Y-130230000D03*
X94410000Y-127690000D03*
X94410000Y-125150000D03*
X94410000Y-122610000D03*
X94410000Y-120070000D03*
X94410000Y-117530000D03*
X94410000Y-114990000D03*
%TD*%
D33*
%TO.C,D15*%
X136500000Y-162500000D03*
X136500000Y-165300000D03*
%TD*%
D24*
%TO.C,R1*%
X80600000Y-152637500D03*
X80600000Y-155562500D03*
%TD*%
D21*
%TO.C,D9*%
X74000000Y-98550000D03*
X74000000Y-96450000D03*
%TD*%
D14*
%TO.C,K4*%
X68100000Y-109500000D03*
D15*
X53900000Y-115500000D03*
X53900000Y-103500000D03*
D16*
X66100000Y-115500000D03*
D15*
X66100000Y-103500000D03*
%TD*%
D28*
%TO.C,Q5*%
X74500000Y-110270000D03*
X76405000Y-109000000D03*
X74500000Y-107730000D03*
%TD*%
D26*
%TO.C,H1*%
X135331200Y-89255600D03*
%TD*%
D36*
%TO.C,D6*%
X95000000Y-162500000D03*
X92200000Y-162500000D03*
%TD*%
D21*
%TO.C,D11*%
X75000000Y-115550000D03*
X75000000Y-113450000D03*
%TD*%
D19*
%TO.C,C21*%
X119761000Y-148079400D03*
X119761000Y-147119400D03*
%TD*%
D12*
%TO.C,R12*%
X81962500Y-107000000D03*
X79037500Y-107000000D03*
%TD*%
D25*
%TO.C,R21*%
X90462500Y-109000000D03*
X87537500Y-109000000D03*
%TD*%
D18*
%TO.C,R6*%
X97752500Y-162500000D03*
X100677500Y-162500000D03*
%TD*%
D14*
%TO.C,K2*%
X68000000Y-126500000D03*
D15*
X53800000Y-132500000D03*
X53800000Y-120500000D03*
D16*
X66000000Y-132500000D03*
D15*
X66000000Y-120500000D03*
%TD*%
D37*
%TO.C,R24*%
X118075000Y-133200000D03*
X121000000Y-133200000D03*
%TD*%
D25*
%TO.C,R18*%
X121962500Y-139700000D03*
X119037500Y-139700000D03*
%TD*%
D38*
%TO.C,U1*%
X109825000Y-167725000D03*
X111525000Y-167725000D03*
X113225000Y-167725000D03*
D39*
X113225000Y-158575000D03*
D38*
X114925000Y-167725000D03*
X116625000Y-167725000D03*
%TD*%
D40*
%TO.C,D8*%
X102971600Y-127434800D03*
X102971600Y-124634800D03*
%TD*%
D19*
%TO.C,C3*%
X126263400Y-122628600D03*
X126263400Y-121668600D03*
%TD*%
D29*
%TO.C,R22*%
X126415800Y-149633200D03*
X126415800Y-146683200D03*
%TD*%
D31*
%TO.C,D14*%
X110380000Y-175000000D03*
D32*
X125620000Y-175000000D03*
%TD*%
D33*
%TO.C,D5*%
X81005000Y-94100000D03*
X81005000Y-96900000D03*
%TD*%
D41*
%TO.C,R16*%
X106500000Y-117037500D03*
X106500000Y-119962500D03*
%TD*%
D33*
%TO.C,D3*%
X80400000Y-129100000D03*
X80400000Y-131900000D03*
%TD*%
D28*
%TO.C,Q3*%
X73900000Y-125270000D03*
X75805000Y-124000000D03*
X73900000Y-122730000D03*
%TD*%
D12*
%TO.C,R3*%
X81462500Y-141500000D03*
X78537500Y-141500000D03*
%TD*%
D24*
%TO.C,R4*%
X80400000Y-134037500D03*
X80400000Y-136962500D03*
%TD*%
D42*
%TO.C,C5*%
X116842600Y-124536200D03*
X117802600Y-124536200D03*
%TD*%
D25*
%TO.C,R17*%
X122462500Y-143500000D03*
X119537500Y-143500000D03*
%TD*%
D38*
%TO.C,U4*%
X58600000Y-168650000D03*
X60300000Y-168650000D03*
X62000000Y-168650000D03*
D39*
X62000000Y-159500000D03*
D38*
X63700000Y-168650000D03*
X65400000Y-168650000D03*
%TD*%
D43*
%TO.C,C9*%
X44500000Y-173000000D03*
X53500000Y-173000000D03*
%TD*%
D42*
%TO.C,C22*%
X115521800Y-147878800D03*
X116481800Y-147878800D03*
%TD*%
D44*
%TO.C,F1*%
X76212500Y-159500000D03*
X77787500Y-159500000D03*
%TD*%
D28*
%TO.C,Q2*%
X74500000Y-142770000D03*
X76405000Y-141500000D03*
X74500000Y-140230000D03*
%TD*%
D37*
%TO.C,R27*%
X97075000Y-125500000D03*
X100000000Y-125500000D03*
%TD*%
D25*
%TO.C,R25*%
X107462500Y-141000000D03*
X104537500Y-141000000D03*
%TD*%
D45*
%TO.C,C6*%
X107525000Y-110000000D03*
X110475000Y-110000000D03*
%TD*%
D46*
%TO.C,C26*%
X101500000Y-138400000D03*
X101500000Y-136500000D03*
%TD*%
D37*
%TO.C,R23*%
X113075000Y-133200000D03*
X116000000Y-133200000D03*
%TD*%
D43*
%TO.C,C11*%
X96050000Y-173500000D03*
X105050000Y-173500000D03*
%TD*%
D33*
%TO.C,D10*%
X81000000Y-111100000D03*
X81000000Y-113900000D03*
%TD*%
D46*
%TO.C,C25*%
X97500000Y-138350000D03*
X97500000Y-136450000D03*
%TD*%
D47*
%TO.C,Q1*%
X121445000Y-101440000D03*
D48*
X121445000Y-98900000D03*
X121445000Y-96360000D03*
%TD*%
D14*
%TO.C,K1*%
X68100000Y-143500000D03*
D15*
X53900000Y-149500000D03*
X53900000Y-137500000D03*
D16*
X66100000Y-149500000D03*
D15*
X66100000Y-137500000D03*
%TD*%
D26*
%TO.C,H4*%
X43865800Y-162991800D03*
%TD*%
D12*
%TO.C,R5*%
X81862500Y-124000000D03*
X78937500Y-124000000D03*
%TD*%
D37*
%TO.C,R15*%
X117537500Y-110000000D03*
X120462500Y-110000000D03*
%TD*%
D13*
%TO.C,L1*%
X72750000Y-167000000D03*
X78250000Y-167000000D03*
%TD*%
D49*
%TO.C,C27*%
X97485200Y-133047800D03*
X97485200Y-134007800D03*
%TD*%
D19*
%TO.C,C2*%
X124053600Y-122704800D03*
X124053600Y-121744800D03*
%TD*%
D24*
%TO.C,R11*%
X81000000Y-116037500D03*
X81000000Y-118962500D03*
%TD*%
D37*
%TO.C,R14*%
X112500000Y-110000000D03*
X115425000Y-110000000D03*
%TD*%
D17*
%TO.C,C12*%
X133500000Y-173300000D03*
X133500000Y-178700000D03*
%TD*%
D45*
%TO.C,C23*%
X108062500Y-133200000D03*
X111012500Y-133200000D03*
%TD*%
D25*
%TO.C,R8*%
X123661900Y-116281200D03*
X120736900Y-116281200D03*
%TD*%
D50*
%TO.C,C19*%
X93300000Y-109000000D03*
X94850000Y-109000000D03*
%TD*%
D33*
%TO.C,D13*%
X50000000Y-160600000D03*
X50000000Y-163400000D03*
%TD*%
D51*
%TO.C,J10*%
X135750000Y-96500000D03*
D52*
X135750000Y-101500000D03*
%TD*%
D51*
%TO.C,J4*%
X121500000Y-86250000D03*
D52*
X126500000Y-86250000D03*
%TD*%
D51*
%TO.C,J13*%
X45720000Y-104582600D03*
D52*
X45720000Y-99582600D03*
%TD*%
%TO.C,J3*%
X136500000Y-151000000D03*
X136500000Y-146000000D03*
X136500000Y-141000000D03*
D51*
X136500000Y-136000000D03*
%TD*%
D53*
%TO.C,J14*%
X91545000Y-175500000D03*
D54*
X86465000Y-175500000D03*
%TD*%
D51*
%TO.C,J12*%
X87500000Y-86250000D03*
D52*
X92500000Y-86250000D03*
X97500000Y-86250000D03*
%TD*%
%TO.C,J5*%
X136250000Y-126000000D03*
X136250000Y-121000000D03*
X136250000Y-116000000D03*
D51*
X136250000Y-111000000D03*
%TD*%
%TO.C,J6*%
X104500000Y-86250000D03*
D52*
X109500000Y-86250000D03*
X114500000Y-86250000D03*
%TD*%
%TO.C,J11*%
X45466000Y-132490200D03*
D51*
X45466000Y-137490200D03*
%TD*%
M02*
