%TF.GenerationSoftware,KiCad,Pcbnew,7.0.10*%
%TF.CreationDate,2024-08-08T13:18:15-05:00*%
%TF.ProjectId,river_sampler,72697665-725f-4736-916d-706c65722e6b,rev?*%
%TF.SameCoordinates,Original*%
%TF.FileFunction,Legend,Top*%
%TF.FilePolarity,Positive*%
%FSLAX46Y46*%
G04 Gerber Fmt 4.6, Leading zero omitted, Abs format (unit mm)*
G04 Created by KiCad (PCBNEW 7.0.10) date 2024-08-08 13:18:15*
%MOMM*%
%LPD*%
G01*
G04 APERTURE LIST*
%ADD10C,0.300000*%
%ADD11C,0.600000*%
%ADD12C,0.150000*%
%ADD13C,0.120000*%
%ADD14C,0.127000*%
%ADD15C,0.200000*%
%ADD16C,0.100000*%
%ADD17C,0.500000*%
G04 APERTURE END LIST*
D10*
X89952196Y-92966628D02*
X90809339Y-92966628D01*
X90193268Y-94466628D02*
X90380768Y-92966628D01*
X91702196Y-94395200D02*
X91550410Y-94466628D01*
X91550410Y-94466628D02*
X91264696Y-94466628D01*
X91264696Y-94466628D02*
X91130767Y-94395200D01*
X91130767Y-94395200D02*
X91077196Y-94252342D01*
X91077196Y-94252342D02*
X91148625Y-93680914D01*
X91148625Y-93680914D02*
X91237910Y-93538057D01*
X91237910Y-93538057D02*
X91389696Y-93466628D01*
X91389696Y-93466628D02*
X91675410Y-93466628D01*
X91675410Y-93466628D02*
X91809339Y-93538057D01*
X91809339Y-93538057D02*
X91862910Y-93680914D01*
X91862910Y-93680914D02*
X91845053Y-93823771D01*
X91845053Y-93823771D02*
X91112910Y-93966628D01*
X93050410Y-94466628D02*
X93148624Y-93680914D01*
X93148624Y-93680914D02*
X93095053Y-93538057D01*
X93095053Y-93538057D02*
X92961124Y-93466628D01*
X92961124Y-93466628D02*
X92675410Y-93466628D01*
X92675410Y-93466628D02*
X92523624Y-93538057D01*
X93059339Y-94395200D02*
X92907553Y-94466628D01*
X92907553Y-94466628D02*
X92550410Y-94466628D01*
X92550410Y-94466628D02*
X92416481Y-94395200D01*
X92416481Y-94395200D02*
X92362910Y-94252342D01*
X92362910Y-94252342D02*
X92380767Y-94109485D01*
X92380767Y-94109485D02*
X92470053Y-93966628D01*
X92470053Y-93966628D02*
X92621839Y-93895200D01*
X92621839Y-93895200D02*
X92978981Y-93895200D01*
X92978981Y-93895200D02*
X93130767Y-93823771D01*
X93764696Y-94466628D02*
X93889696Y-93466628D01*
X93871839Y-93609485D02*
X93952196Y-93538057D01*
X93952196Y-93538057D02*
X94103982Y-93466628D01*
X94103982Y-93466628D02*
X94318267Y-93466628D01*
X94318267Y-93466628D02*
X94452196Y-93538057D01*
X94452196Y-93538057D02*
X94505767Y-93680914D01*
X94505767Y-93680914D02*
X94407553Y-94466628D01*
X94505767Y-93680914D02*
X94595053Y-93538057D01*
X94595053Y-93538057D02*
X94746839Y-93466628D01*
X94746839Y-93466628D02*
X94961124Y-93466628D01*
X94961124Y-93466628D02*
X95095053Y-93538057D01*
X95095053Y-93538057D02*
X95148624Y-93680914D01*
X95148624Y-93680914D02*
X95050410Y-94466628D01*
X97505767Y-93680914D02*
X97005767Y-93680914D01*
X96907553Y-94466628D02*
X97095053Y-92966628D01*
X97095053Y-92966628D02*
X97809339Y-92966628D01*
X98407553Y-94466628D02*
X98273624Y-94395200D01*
X98273624Y-94395200D02*
X98220053Y-94252342D01*
X98220053Y-94252342D02*
X98380767Y-92966628D01*
X99193267Y-94466628D02*
X99059338Y-94395200D01*
X99059338Y-94395200D02*
X98996838Y-94323771D01*
X98996838Y-94323771D02*
X98943267Y-94180914D01*
X98943267Y-94180914D02*
X98996838Y-93752342D01*
X98996838Y-93752342D02*
X99086124Y-93609485D01*
X99086124Y-93609485D02*
X99166481Y-93538057D01*
X99166481Y-93538057D02*
X99318267Y-93466628D01*
X99318267Y-93466628D02*
X99532552Y-93466628D01*
X99532552Y-93466628D02*
X99666481Y-93538057D01*
X99666481Y-93538057D02*
X99728981Y-93609485D01*
X99728981Y-93609485D02*
X99782552Y-93752342D01*
X99782552Y-93752342D02*
X99728981Y-94180914D01*
X99728981Y-94180914D02*
X99639695Y-94323771D01*
X99639695Y-94323771D02*
X99559338Y-94395200D01*
X99559338Y-94395200D02*
X99407552Y-94466628D01*
X99407552Y-94466628D02*
X99193267Y-94466628D01*
X100318267Y-93466628D02*
X100478981Y-94466628D01*
X100478981Y-94466628D02*
X100853981Y-93752342D01*
X100853981Y-93752342D02*
X101050410Y-94466628D01*
X101050410Y-94466628D02*
X101461124Y-93466628D01*
X101907553Y-94466628D02*
X102095053Y-92966628D01*
X102095053Y-92966628D02*
X102461124Y-94038057D01*
X102461124Y-94038057D02*
X103095053Y-92966628D01*
X103095053Y-92966628D02*
X102907553Y-94466628D01*
X104202196Y-94395200D02*
X104050410Y-94466628D01*
X104050410Y-94466628D02*
X103764696Y-94466628D01*
X103764696Y-94466628D02*
X103630767Y-94395200D01*
X103630767Y-94395200D02*
X103577196Y-94252342D01*
X103577196Y-94252342D02*
X103648625Y-93680914D01*
X103648625Y-93680914D02*
X103737910Y-93538057D01*
X103737910Y-93538057D02*
X103889696Y-93466628D01*
X103889696Y-93466628D02*
X104175410Y-93466628D01*
X104175410Y-93466628D02*
X104309339Y-93538057D01*
X104309339Y-93538057D02*
X104362910Y-93680914D01*
X104362910Y-93680914D02*
X104345053Y-93823771D01*
X104345053Y-93823771D02*
X103612910Y-93966628D01*
X104818267Y-93466628D02*
X105389696Y-93466628D01*
X105095053Y-92966628D02*
X104934339Y-94252342D01*
X104934339Y-94252342D02*
X104987910Y-94395200D01*
X104987910Y-94395200D02*
X105121839Y-94466628D01*
X105121839Y-94466628D02*
X105264696Y-94466628D01*
X105764696Y-94466628D02*
X105889696Y-93466628D01*
X105853982Y-93752342D02*
X105943267Y-93609485D01*
X105943267Y-93609485D02*
X106023624Y-93538057D01*
X106023624Y-93538057D02*
X106175410Y-93466628D01*
X106175410Y-93466628D02*
X106318267Y-93466628D01*
X106693267Y-94466628D02*
X106818267Y-93466628D01*
X106880767Y-92966628D02*
X106800410Y-93038057D01*
X106800410Y-93038057D02*
X106862910Y-93109485D01*
X106862910Y-93109485D02*
X106943267Y-93038057D01*
X106943267Y-93038057D02*
X106880767Y-92966628D01*
X106880767Y-92966628D02*
X106862910Y-93109485D01*
X108059339Y-94395200D02*
X107907553Y-94466628D01*
X107907553Y-94466628D02*
X107621839Y-94466628D01*
X107621839Y-94466628D02*
X107487910Y-94395200D01*
X107487910Y-94395200D02*
X107425410Y-94323771D01*
X107425410Y-94323771D02*
X107371839Y-94180914D01*
X107371839Y-94180914D02*
X107425410Y-93752342D01*
X107425410Y-93752342D02*
X107514696Y-93609485D01*
X107514696Y-93609485D02*
X107595053Y-93538057D01*
X107595053Y-93538057D02*
X107746839Y-93466628D01*
X107746839Y-93466628D02*
X108032553Y-93466628D01*
X108032553Y-93466628D02*
X108166481Y-93538057D01*
X108630767Y-94395200D02*
X108764695Y-94466628D01*
X108764695Y-94466628D02*
X109050410Y-94466628D01*
X109050410Y-94466628D02*
X109202195Y-94395200D01*
X109202195Y-94395200D02*
X109291481Y-94252342D01*
X109291481Y-94252342D02*
X109300410Y-94180914D01*
X109300410Y-94180914D02*
X109246838Y-94038057D01*
X109246838Y-94038057D02*
X109112910Y-93966628D01*
X109112910Y-93966628D02*
X108898624Y-93966628D01*
X108898624Y-93966628D02*
X108764695Y-93895200D01*
X108764695Y-93895200D02*
X108711124Y-93752342D01*
X108711124Y-93752342D02*
X108720053Y-93680914D01*
X108720053Y-93680914D02*
X108809338Y-93538057D01*
X108809338Y-93538057D02*
X108961124Y-93466628D01*
X108961124Y-93466628D02*
X109175410Y-93466628D01*
X109175410Y-93466628D02*
X109309338Y-93538057D01*
D11*
X89408964Y-91581514D02*
X90837536Y-91581514D01*
X89123250Y-92438657D02*
X90123250Y-89438657D01*
X90123250Y-89438657D02*
X91123250Y-92438657D01*
X94123250Y-92724371D02*
X93837536Y-92581514D01*
X93837536Y-92581514D02*
X93551822Y-92295800D01*
X93551822Y-92295800D02*
X93123250Y-91867228D01*
X93123250Y-91867228D02*
X92837536Y-91724371D01*
X92837536Y-91724371D02*
X92551822Y-91724371D01*
X92694679Y-92438657D02*
X92408965Y-92295800D01*
X92408965Y-92295800D02*
X92123250Y-92010085D01*
X92123250Y-92010085D02*
X91980393Y-91438657D01*
X91980393Y-91438657D02*
X91980393Y-90438657D01*
X91980393Y-90438657D02*
X92123250Y-89867228D01*
X92123250Y-89867228D02*
X92408965Y-89581514D01*
X92408965Y-89581514D02*
X92694679Y-89438657D01*
X92694679Y-89438657D02*
X93266107Y-89438657D01*
X93266107Y-89438657D02*
X93551822Y-89581514D01*
X93551822Y-89581514D02*
X93837536Y-89867228D01*
X93837536Y-89867228D02*
X93980393Y-90438657D01*
X93980393Y-90438657D02*
X93980393Y-91438657D01*
X93980393Y-91438657D02*
X93837536Y-92010085D01*
X93837536Y-92010085D02*
X93551822Y-92295800D01*
X93551822Y-92295800D02*
X93266107Y-92438657D01*
X93266107Y-92438657D02*
X92694679Y-92438657D01*
X95266107Y-89438657D02*
X95266107Y-91867228D01*
X95266107Y-91867228D02*
X95408964Y-92152942D01*
X95408964Y-92152942D02*
X95551822Y-92295800D01*
X95551822Y-92295800D02*
X95837536Y-92438657D01*
X95837536Y-92438657D02*
X96408964Y-92438657D01*
X96408964Y-92438657D02*
X96694679Y-92295800D01*
X96694679Y-92295800D02*
X96837536Y-92152942D01*
X96837536Y-92152942D02*
X96980393Y-91867228D01*
X96980393Y-91867228D02*
X96980393Y-89438657D01*
X98266107Y-91581514D02*
X99694679Y-91581514D01*
X97980393Y-92438657D02*
X98980393Y-89438657D01*
X98980393Y-89438657D02*
X99980393Y-92438657D01*
X101980393Y-90867228D02*
X102408965Y-91010085D01*
X102408965Y-91010085D02*
X102551822Y-91152942D01*
X102551822Y-91152942D02*
X102694679Y-91438657D01*
X102694679Y-91438657D02*
X102694679Y-91867228D01*
X102694679Y-91867228D02*
X102551822Y-92152942D01*
X102551822Y-92152942D02*
X102408965Y-92295800D01*
X102408965Y-92295800D02*
X102123250Y-92438657D01*
X102123250Y-92438657D02*
X100980393Y-92438657D01*
X100980393Y-92438657D02*
X100980393Y-89438657D01*
X100980393Y-89438657D02*
X101980393Y-89438657D01*
X101980393Y-89438657D02*
X102266108Y-89581514D01*
X102266108Y-89581514D02*
X102408965Y-89724371D01*
X102408965Y-89724371D02*
X102551822Y-90010085D01*
X102551822Y-90010085D02*
X102551822Y-90295800D01*
X102551822Y-90295800D02*
X102408965Y-90581514D01*
X102408965Y-90581514D02*
X102266108Y-90724371D01*
X102266108Y-90724371D02*
X101980393Y-90867228D01*
X101980393Y-90867228D02*
X100980393Y-90867228D01*
X104551822Y-89438657D02*
X105123250Y-89438657D01*
X105123250Y-89438657D02*
X105408965Y-89581514D01*
X105408965Y-89581514D02*
X105694679Y-89867228D01*
X105694679Y-89867228D02*
X105837536Y-90438657D01*
X105837536Y-90438657D02*
X105837536Y-91438657D01*
X105837536Y-91438657D02*
X105694679Y-92010085D01*
X105694679Y-92010085D02*
X105408965Y-92295800D01*
X105408965Y-92295800D02*
X105123250Y-92438657D01*
X105123250Y-92438657D02*
X104551822Y-92438657D01*
X104551822Y-92438657D02*
X104266108Y-92295800D01*
X104266108Y-92295800D02*
X103980393Y-92010085D01*
X103980393Y-92010085D02*
X103837536Y-91438657D01*
X103837536Y-91438657D02*
X103837536Y-90438657D01*
X103837536Y-90438657D02*
X103980393Y-89867228D01*
X103980393Y-89867228D02*
X104266108Y-89581514D01*
X104266108Y-89581514D02*
X104551822Y-89438657D01*
X106694679Y-89438657D02*
X108408965Y-89438657D01*
X107551822Y-92438657D02*
X107551822Y-89438657D01*
X111266107Y-89438657D02*
X112266107Y-92438657D01*
X112266107Y-92438657D02*
X113266107Y-89438657D01*
X115837536Y-92438657D02*
X114123250Y-92438657D01*
X114980393Y-92438657D02*
X114980393Y-89438657D01*
X114980393Y-89438657D02*
X114694679Y-89867228D01*
X114694679Y-89867228D02*
X114408964Y-90152942D01*
X114408964Y-90152942D02*
X114123250Y-90295800D01*
X117123250Y-92152942D02*
X117266107Y-92295800D01*
X117266107Y-92295800D02*
X117123250Y-92438657D01*
X117123250Y-92438657D02*
X116980393Y-92295800D01*
X116980393Y-92295800D02*
X117123250Y-92152942D01*
X117123250Y-92152942D02*
X117123250Y-92438657D01*
X119123250Y-89438657D02*
X119408964Y-89438657D01*
X119408964Y-89438657D02*
X119694678Y-89581514D01*
X119694678Y-89581514D02*
X119837536Y-89724371D01*
X119837536Y-89724371D02*
X119980393Y-90010085D01*
X119980393Y-90010085D02*
X120123250Y-90581514D01*
X120123250Y-90581514D02*
X120123250Y-91295800D01*
X120123250Y-91295800D02*
X119980393Y-91867228D01*
X119980393Y-91867228D02*
X119837536Y-92152942D01*
X119837536Y-92152942D02*
X119694678Y-92295800D01*
X119694678Y-92295800D02*
X119408964Y-92438657D01*
X119408964Y-92438657D02*
X119123250Y-92438657D01*
X119123250Y-92438657D02*
X118837536Y-92295800D01*
X118837536Y-92295800D02*
X118694678Y-92152942D01*
X118694678Y-92152942D02*
X118551821Y-91867228D01*
X118551821Y-91867228D02*
X118408964Y-91295800D01*
X118408964Y-91295800D02*
X118408964Y-90581514D01*
X118408964Y-90581514D02*
X118551821Y-90010085D01*
X118551821Y-90010085D02*
X118694678Y-89724371D01*
X118694678Y-89724371D02*
X118837536Y-89581514D01*
X118837536Y-89581514D02*
X119123250Y-89438657D01*
D12*
X55181666Y-81563619D02*
X54848333Y-81087428D01*
X54610238Y-81563619D02*
X54610238Y-80563619D01*
X54610238Y-80563619D02*
X54991190Y-80563619D01*
X54991190Y-80563619D02*
X55086428Y-80611238D01*
X55086428Y-80611238D02*
X55134047Y-80658857D01*
X55134047Y-80658857D02*
X55181666Y-80754095D01*
X55181666Y-80754095D02*
X55181666Y-80896952D01*
X55181666Y-80896952D02*
X55134047Y-80992190D01*
X55134047Y-80992190D02*
X55086428Y-81039809D01*
X55086428Y-81039809D02*
X54991190Y-81087428D01*
X54991190Y-81087428D02*
X54610238Y-81087428D01*
X55610238Y-81039809D02*
X55943571Y-81039809D01*
X56086428Y-81563619D02*
X55610238Y-81563619D01*
X55610238Y-81563619D02*
X55610238Y-80563619D01*
X55610238Y-80563619D02*
X56086428Y-80563619D01*
X56848333Y-81039809D02*
X56515000Y-81039809D01*
X56515000Y-81563619D02*
X56515000Y-80563619D01*
X56515000Y-80563619D02*
X56991190Y-80563619D01*
X57515000Y-80563619D02*
X57515000Y-80801714D01*
X57276905Y-80706476D02*
X57515000Y-80801714D01*
X57515000Y-80801714D02*
X57753095Y-80706476D01*
X57372143Y-80992190D02*
X57515000Y-80801714D01*
X57515000Y-80801714D02*
X57657857Y-80992190D01*
X58276905Y-80563619D02*
X58276905Y-80801714D01*
X58038810Y-80706476D02*
X58276905Y-80801714D01*
X58276905Y-80801714D02*
X58515000Y-80706476D01*
X58134048Y-80992190D02*
X58276905Y-80801714D01*
X58276905Y-80801714D02*
X58419762Y-80992190D01*
X125615866Y-178109019D02*
X125282533Y-177632828D01*
X125044438Y-178109019D02*
X125044438Y-177109019D01*
X125044438Y-177109019D02*
X125425390Y-177109019D01*
X125425390Y-177109019D02*
X125520628Y-177156638D01*
X125520628Y-177156638D02*
X125568247Y-177204257D01*
X125568247Y-177204257D02*
X125615866Y-177299495D01*
X125615866Y-177299495D02*
X125615866Y-177442352D01*
X125615866Y-177442352D02*
X125568247Y-177537590D01*
X125568247Y-177537590D02*
X125520628Y-177585209D01*
X125520628Y-177585209D02*
X125425390Y-177632828D01*
X125425390Y-177632828D02*
X125044438Y-177632828D01*
X126044438Y-177585209D02*
X126377771Y-177585209D01*
X126520628Y-178109019D02*
X126044438Y-178109019D01*
X126044438Y-178109019D02*
X126044438Y-177109019D01*
X126044438Y-177109019D02*
X126520628Y-177109019D01*
X127282533Y-177585209D02*
X126949200Y-177585209D01*
X126949200Y-178109019D02*
X126949200Y-177109019D01*
X126949200Y-177109019D02*
X127425390Y-177109019D01*
X127949200Y-177109019D02*
X127949200Y-177347114D01*
X127711105Y-177251876D02*
X127949200Y-177347114D01*
X127949200Y-177347114D02*
X128187295Y-177251876D01*
X127806343Y-177537590D02*
X127949200Y-177347114D01*
X127949200Y-177347114D02*
X128092057Y-177537590D01*
X128711105Y-177109019D02*
X128711105Y-177347114D01*
X128473010Y-177251876D02*
X128711105Y-177347114D01*
X128711105Y-177347114D02*
X128949200Y-177251876D01*
X128568248Y-177537590D02*
X128711105Y-177347114D01*
X128711105Y-177347114D02*
X128853962Y-177537590D01*
X115094242Y-98569019D02*
X114760909Y-98092828D01*
X114522814Y-98569019D02*
X114522814Y-97569019D01*
X114522814Y-97569019D02*
X114903766Y-97569019D01*
X114903766Y-97569019D02*
X114999004Y-97616638D01*
X114999004Y-97616638D02*
X115046623Y-97664257D01*
X115046623Y-97664257D02*
X115094242Y-97759495D01*
X115094242Y-97759495D02*
X115094242Y-97902352D01*
X115094242Y-97902352D02*
X115046623Y-97997590D01*
X115046623Y-97997590D02*
X114999004Y-98045209D01*
X114999004Y-98045209D02*
X114903766Y-98092828D01*
X114903766Y-98092828D02*
X114522814Y-98092828D01*
X115475195Y-97664257D02*
X115522814Y-97616638D01*
X115522814Y-97616638D02*
X115618052Y-97569019D01*
X115618052Y-97569019D02*
X115856147Y-97569019D01*
X115856147Y-97569019D02*
X115951385Y-97616638D01*
X115951385Y-97616638D02*
X115999004Y-97664257D01*
X115999004Y-97664257D02*
X116046623Y-97759495D01*
X116046623Y-97759495D02*
X116046623Y-97854733D01*
X116046623Y-97854733D02*
X115999004Y-97997590D01*
X115999004Y-97997590D02*
X115427576Y-98569019D01*
X115427576Y-98569019D02*
X116046623Y-98569019D01*
X116903766Y-97569019D02*
X116713290Y-97569019D01*
X116713290Y-97569019D02*
X116618052Y-97616638D01*
X116618052Y-97616638D02*
X116570433Y-97664257D01*
X116570433Y-97664257D02*
X116475195Y-97807114D01*
X116475195Y-97807114D02*
X116427576Y-97997590D01*
X116427576Y-97997590D02*
X116427576Y-98378542D01*
X116427576Y-98378542D02*
X116475195Y-98473780D01*
X116475195Y-98473780D02*
X116522814Y-98521400D01*
X116522814Y-98521400D02*
X116618052Y-98569019D01*
X116618052Y-98569019D02*
X116808528Y-98569019D01*
X116808528Y-98569019D02*
X116903766Y-98521400D01*
X116903766Y-98521400D02*
X116951385Y-98473780D01*
X116951385Y-98473780D02*
X116999004Y-98378542D01*
X116999004Y-98378542D02*
X116999004Y-98140447D01*
X116999004Y-98140447D02*
X116951385Y-98045209D01*
X116951385Y-98045209D02*
X116903766Y-97997590D01*
X116903766Y-97997590D02*
X116808528Y-97949971D01*
X116808528Y-97949971D02*
X116618052Y-97949971D01*
X116618052Y-97949971D02*
X116522814Y-97997590D01*
X116522814Y-97997590D02*
X116475195Y-98045209D01*
X116475195Y-98045209D02*
X116427576Y-98140447D01*
X128333333Y-163504819D02*
X127857143Y-163504819D01*
X127857143Y-163504819D02*
X127857143Y-162504819D01*
X128619048Y-162600057D02*
X128666667Y-162552438D01*
X128666667Y-162552438D02*
X128761905Y-162504819D01*
X128761905Y-162504819D02*
X129000000Y-162504819D01*
X129000000Y-162504819D02*
X129095238Y-162552438D01*
X129095238Y-162552438D02*
X129142857Y-162600057D01*
X129142857Y-162600057D02*
X129190476Y-162695295D01*
X129190476Y-162695295D02*
X129190476Y-162790533D01*
X129190476Y-162790533D02*
X129142857Y-162933390D01*
X129142857Y-162933390D02*
X128571429Y-163504819D01*
X128571429Y-163504819D02*
X129190476Y-163504819D01*
X80262142Y-90734819D02*
X79928809Y-90258628D01*
X79690714Y-90734819D02*
X79690714Y-89734819D01*
X79690714Y-89734819D02*
X80071666Y-89734819D01*
X80071666Y-89734819D02*
X80166904Y-89782438D01*
X80166904Y-89782438D02*
X80214523Y-89830057D01*
X80214523Y-89830057D02*
X80262142Y-89925295D01*
X80262142Y-89925295D02*
X80262142Y-90068152D01*
X80262142Y-90068152D02*
X80214523Y-90163390D01*
X80214523Y-90163390D02*
X80166904Y-90211009D01*
X80166904Y-90211009D02*
X80071666Y-90258628D01*
X80071666Y-90258628D02*
X79690714Y-90258628D01*
X81214523Y-90734819D02*
X80643095Y-90734819D01*
X80928809Y-90734819D02*
X80928809Y-89734819D01*
X80928809Y-89734819D02*
X80833571Y-89877676D01*
X80833571Y-89877676D02*
X80738333Y-89972914D01*
X80738333Y-89972914D02*
X80643095Y-90020533D01*
X81833571Y-89734819D02*
X81928809Y-89734819D01*
X81928809Y-89734819D02*
X82024047Y-89782438D01*
X82024047Y-89782438D02*
X82071666Y-89830057D01*
X82071666Y-89830057D02*
X82119285Y-89925295D01*
X82119285Y-89925295D02*
X82166904Y-90115771D01*
X82166904Y-90115771D02*
X82166904Y-90353866D01*
X82166904Y-90353866D02*
X82119285Y-90544342D01*
X82119285Y-90544342D02*
X82071666Y-90639580D01*
X82071666Y-90639580D02*
X82024047Y-90687200D01*
X82024047Y-90687200D02*
X81928809Y-90734819D01*
X81928809Y-90734819D02*
X81833571Y-90734819D01*
X81833571Y-90734819D02*
X81738333Y-90687200D01*
X81738333Y-90687200D02*
X81690714Y-90639580D01*
X81690714Y-90639580D02*
X81643095Y-90544342D01*
X81643095Y-90544342D02*
X81595476Y-90353866D01*
X81595476Y-90353866D02*
X81595476Y-90115771D01*
X81595476Y-90115771D02*
X81643095Y-89925295D01*
X81643095Y-89925295D02*
X81690714Y-89830057D01*
X81690714Y-89830057D02*
X81738333Y-89782438D01*
X81738333Y-89782438D02*
X81833571Y-89734819D01*
X59332835Y-93063263D02*
X59332835Y-92063169D01*
X59904317Y-93063263D02*
X59475706Y-92491781D01*
X59904317Y-92063169D02*
X59332835Y-92634651D01*
X60237682Y-92063169D02*
X60856788Y-92063169D01*
X60856788Y-92063169D02*
X60523423Y-92444157D01*
X60523423Y-92444157D02*
X60666294Y-92444157D01*
X60666294Y-92444157D02*
X60761541Y-92491781D01*
X60761541Y-92491781D02*
X60809164Y-92539404D01*
X60809164Y-92539404D02*
X60856788Y-92634651D01*
X60856788Y-92634651D02*
X60856788Y-92872769D01*
X60856788Y-92872769D02*
X60809164Y-92968016D01*
X60809164Y-92968016D02*
X60761541Y-93015640D01*
X60761541Y-93015640D02*
X60666294Y-93063263D01*
X60666294Y-93063263D02*
X60380553Y-93063263D01*
X60380553Y-93063263D02*
X60285306Y-93015640D01*
X60285306Y-93015640D02*
X60237682Y-92968016D01*
X112050533Y-98651219D02*
X111717200Y-98175028D01*
X111479105Y-98651219D02*
X111479105Y-97651219D01*
X111479105Y-97651219D02*
X111860057Y-97651219D01*
X111860057Y-97651219D02*
X111955295Y-97698838D01*
X111955295Y-97698838D02*
X112002914Y-97746457D01*
X112002914Y-97746457D02*
X112050533Y-97841695D01*
X112050533Y-97841695D02*
X112050533Y-97984552D01*
X112050533Y-97984552D02*
X112002914Y-98079790D01*
X112002914Y-98079790D02*
X111955295Y-98127409D01*
X111955295Y-98127409D02*
X111860057Y-98175028D01*
X111860057Y-98175028D02*
X111479105Y-98175028D01*
X112431486Y-97746457D02*
X112479105Y-97698838D01*
X112479105Y-97698838D02*
X112574343Y-97651219D01*
X112574343Y-97651219D02*
X112812438Y-97651219D01*
X112812438Y-97651219D02*
X112907676Y-97698838D01*
X112907676Y-97698838D02*
X112955295Y-97746457D01*
X112955295Y-97746457D02*
X113002914Y-97841695D01*
X113002914Y-97841695D02*
X113002914Y-97936933D01*
X113002914Y-97936933D02*
X112955295Y-98079790D01*
X112955295Y-98079790D02*
X112383867Y-98651219D01*
X112383867Y-98651219D02*
X113002914Y-98651219D01*
X48174819Y-157642857D02*
X47698628Y-157976190D01*
X48174819Y-158214285D02*
X47174819Y-158214285D01*
X47174819Y-158214285D02*
X47174819Y-157833333D01*
X47174819Y-157833333D02*
X47222438Y-157738095D01*
X47222438Y-157738095D02*
X47270057Y-157690476D01*
X47270057Y-157690476D02*
X47365295Y-157642857D01*
X47365295Y-157642857D02*
X47508152Y-157642857D01*
X47508152Y-157642857D02*
X47603390Y-157690476D01*
X47603390Y-157690476D02*
X47651009Y-157738095D01*
X47651009Y-157738095D02*
X47698628Y-157833333D01*
X47698628Y-157833333D02*
X47698628Y-158214285D01*
X48174819Y-156690476D02*
X48174819Y-157261904D01*
X48174819Y-156976190D02*
X47174819Y-156976190D01*
X47174819Y-156976190D02*
X47317676Y-157071428D01*
X47317676Y-157071428D02*
X47412914Y-157166666D01*
X47412914Y-157166666D02*
X47460533Y-157261904D01*
X48174819Y-156214285D02*
X48174819Y-156023809D01*
X48174819Y-156023809D02*
X48127200Y-155928571D01*
X48127200Y-155928571D02*
X48079580Y-155880952D01*
X48079580Y-155880952D02*
X47936723Y-155785714D01*
X47936723Y-155785714D02*
X47746247Y-155738095D01*
X47746247Y-155738095D02*
X47365295Y-155738095D01*
X47365295Y-155738095D02*
X47270057Y-155785714D01*
X47270057Y-155785714D02*
X47222438Y-155833333D01*
X47222438Y-155833333D02*
X47174819Y-155928571D01*
X47174819Y-155928571D02*
X47174819Y-156119047D01*
X47174819Y-156119047D02*
X47222438Y-156214285D01*
X47222438Y-156214285D02*
X47270057Y-156261904D01*
X47270057Y-156261904D02*
X47365295Y-156309523D01*
X47365295Y-156309523D02*
X47603390Y-156309523D01*
X47603390Y-156309523D02*
X47698628Y-156261904D01*
X47698628Y-156261904D02*
X47746247Y-156214285D01*
X47746247Y-156214285D02*
X47793866Y-156119047D01*
X47793866Y-156119047D02*
X47793866Y-155928571D01*
X47793866Y-155928571D02*
X47746247Y-155833333D01*
X47746247Y-155833333D02*
X47698628Y-155785714D01*
X47698628Y-155785714D02*
X47603390Y-155738095D01*
X72604819Y-132238094D02*
X71604819Y-132238094D01*
X71604819Y-132238094D02*
X71604819Y-131999999D01*
X71604819Y-131999999D02*
X71652438Y-131857142D01*
X71652438Y-131857142D02*
X71747676Y-131761904D01*
X71747676Y-131761904D02*
X71842914Y-131714285D01*
X71842914Y-131714285D02*
X72033390Y-131666666D01*
X72033390Y-131666666D02*
X72176247Y-131666666D01*
X72176247Y-131666666D02*
X72366723Y-131714285D01*
X72366723Y-131714285D02*
X72461961Y-131761904D01*
X72461961Y-131761904D02*
X72557200Y-131857142D01*
X72557200Y-131857142D02*
X72604819Y-131999999D01*
X72604819Y-131999999D02*
X72604819Y-132238094D01*
X71938152Y-130809523D02*
X72604819Y-130809523D01*
X71557200Y-131047618D02*
X72271485Y-131285713D01*
X72271485Y-131285713D02*
X72271485Y-130666666D01*
X84761905Y-166974819D02*
X84761905Y-165974819D01*
X84761905Y-165974819D02*
X85000000Y-165974819D01*
X85000000Y-165974819D02*
X85142857Y-166022438D01*
X85142857Y-166022438D02*
X85238095Y-166117676D01*
X85238095Y-166117676D02*
X85285714Y-166212914D01*
X85285714Y-166212914D02*
X85333333Y-166403390D01*
X85333333Y-166403390D02*
X85333333Y-166546247D01*
X85333333Y-166546247D02*
X85285714Y-166736723D01*
X85285714Y-166736723D02*
X85238095Y-166831961D01*
X85238095Y-166831961D02*
X85142857Y-166927200D01*
X85142857Y-166927200D02*
X85000000Y-166974819D01*
X85000000Y-166974819D02*
X84761905Y-166974819D01*
X85666667Y-165974819D02*
X86333333Y-165974819D01*
X86333333Y-165974819D02*
X85904762Y-166974819D01*
X73104819Y-149238094D02*
X72104819Y-149238094D01*
X72104819Y-149238094D02*
X72104819Y-148999999D01*
X72104819Y-148999999D02*
X72152438Y-148857142D01*
X72152438Y-148857142D02*
X72247676Y-148761904D01*
X72247676Y-148761904D02*
X72342914Y-148714285D01*
X72342914Y-148714285D02*
X72533390Y-148666666D01*
X72533390Y-148666666D02*
X72676247Y-148666666D01*
X72676247Y-148666666D02*
X72866723Y-148714285D01*
X72866723Y-148714285D02*
X72961961Y-148761904D01*
X72961961Y-148761904D02*
X73057200Y-148857142D01*
X73057200Y-148857142D02*
X73104819Y-148999999D01*
X73104819Y-148999999D02*
X73104819Y-149238094D01*
X72200057Y-148285713D02*
X72152438Y-148238094D01*
X72152438Y-148238094D02*
X72104819Y-148142856D01*
X72104819Y-148142856D02*
X72104819Y-147904761D01*
X72104819Y-147904761D02*
X72152438Y-147809523D01*
X72152438Y-147809523D02*
X72200057Y-147761904D01*
X72200057Y-147761904D02*
X72295295Y-147714285D01*
X72295295Y-147714285D02*
X72390533Y-147714285D01*
X72390533Y-147714285D02*
X72533390Y-147761904D01*
X72533390Y-147761904D02*
X73104819Y-148333332D01*
X73104819Y-148333332D02*
X73104819Y-147714285D01*
X84334276Y-100432191D02*
X83858085Y-100765524D01*
X84334276Y-101003619D02*
X83334276Y-101003619D01*
X83334276Y-101003619D02*
X83334276Y-100622667D01*
X83334276Y-100622667D02*
X83381895Y-100527429D01*
X83381895Y-100527429D02*
X83429514Y-100479810D01*
X83429514Y-100479810D02*
X83524752Y-100432191D01*
X83524752Y-100432191D02*
X83667609Y-100432191D01*
X83667609Y-100432191D02*
X83762847Y-100479810D01*
X83762847Y-100479810D02*
X83810466Y-100527429D01*
X83810466Y-100527429D02*
X83858085Y-100622667D01*
X83858085Y-100622667D02*
X83858085Y-101003619D01*
X84334276Y-99956000D02*
X84334276Y-99765524D01*
X84334276Y-99765524D02*
X84286657Y-99670286D01*
X84286657Y-99670286D02*
X84239037Y-99622667D01*
X84239037Y-99622667D02*
X84096180Y-99527429D01*
X84096180Y-99527429D02*
X83905704Y-99479810D01*
X83905704Y-99479810D02*
X83524752Y-99479810D01*
X83524752Y-99479810D02*
X83429514Y-99527429D01*
X83429514Y-99527429D02*
X83381895Y-99575048D01*
X83381895Y-99575048D02*
X83334276Y-99670286D01*
X83334276Y-99670286D02*
X83334276Y-99860762D01*
X83334276Y-99860762D02*
X83381895Y-99956000D01*
X83381895Y-99956000D02*
X83429514Y-100003619D01*
X83429514Y-100003619D02*
X83524752Y-100051238D01*
X83524752Y-100051238D02*
X83762847Y-100051238D01*
X83762847Y-100051238D02*
X83858085Y-100003619D01*
X83858085Y-100003619D02*
X83905704Y-99956000D01*
X83905704Y-99956000D02*
X83953323Y-99860762D01*
X83953323Y-99860762D02*
X83953323Y-99670286D01*
X83953323Y-99670286D02*
X83905704Y-99575048D01*
X83905704Y-99575048D02*
X83858085Y-99527429D01*
X83858085Y-99527429D02*
X83762847Y-99479810D01*
X134674819Y-158542857D02*
X134198628Y-158876190D01*
X134674819Y-159114285D02*
X133674819Y-159114285D01*
X133674819Y-159114285D02*
X133674819Y-158733333D01*
X133674819Y-158733333D02*
X133722438Y-158638095D01*
X133722438Y-158638095D02*
X133770057Y-158590476D01*
X133770057Y-158590476D02*
X133865295Y-158542857D01*
X133865295Y-158542857D02*
X134008152Y-158542857D01*
X134008152Y-158542857D02*
X134103390Y-158590476D01*
X134103390Y-158590476D02*
X134151009Y-158638095D01*
X134151009Y-158638095D02*
X134198628Y-158733333D01*
X134198628Y-158733333D02*
X134198628Y-159114285D01*
X133770057Y-158161904D02*
X133722438Y-158114285D01*
X133722438Y-158114285D02*
X133674819Y-158019047D01*
X133674819Y-158019047D02*
X133674819Y-157780952D01*
X133674819Y-157780952D02*
X133722438Y-157685714D01*
X133722438Y-157685714D02*
X133770057Y-157638095D01*
X133770057Y-157638095D02*
X133865295Y-157590476D01*
X133865295Y-157590476D02*
X133960533Y-157590476D01*
X133960533Y-157590476D02*
X134103390Y-157638095D01*
X134103390Y-157638095D02*
X134674819Y-158209523D01*
X134674819Y-158209523D02*
X134674819Y-157590476D01*
X133674819Y-156971428D02*
X133674819Y-156876190D01*
X133674819Y-156876190D02*
X133722438Y-156780952D01*
X133722438Y-156780952D02*
X133770057Y-156733333D01*
X133770057Y-156733333D02*
X133865295Y-156685714D01*
X133865295Y-156685714D02*
X134055771Y-156638095D01*
X134055771Y-156638095D02*
X134293866Y-156638095D01*
X134293866Y-156638095D02*
X134484342Y-156685714D01*
X134484342Y-156685714D02*
X134579580Y-156733333D01*
X134579580Y-156733333D02*
X134627200Y-156780952D01*
X134627200Y-156780952D02*
X134674819Y-156876190D01*
X134674819Y-156876190D02*
X134674819Y-156971428D01*
X134674819Y-156971428D02*
X134627200Y-157066666D01*
X134627200Y-157066666D02*
X134579580Y-157114285D01*
X134579580Y-157114285D02*
X134484342Y-157161904D01*
X134484342Y-157161904D02*
X134293866Y-157209523D01*
X134293866Y-157209523D02*
X134055771Y-157209523D01*
X134055771Y-157209523D02*
X133865295Y-157161904D01*
X133865295Y-157161904D02*
X133770057Y-157114285D01*
X133770057Y-157114285D02*
X133722438Y-157066666D01*
X133722438Y-157066666D02*
X133674819Y-156971428D01*
X137541095Y-167282419D02*
X137541095Y-166282419D01*
X137541095Y-166758609D02*
X138112523Y-166758609D01*
X138112523Y-167282419D02*
X138112523Y-166282419D01*
X138541095Y-166377657D02*
X138588714Y-166330038D01*
X138588714Y-166330038D02*
X138683952Y-166282419D01*
X138683952Y-166282419D02*
X138922047Y-166282419D01*
X138922047Y-166282419D02*
X139017285Y-166330038D01*
X139017285Y-166330038D02*
X139064904Y-166377657D01*
X139064904Y-166377657D02*
X139112523Y-166472895D01*
X139112523Y-166472895D02*
X139112523Y-166568133D01*
X139112523Y-166568133D02*
X139064904Y-166710990D01*
X139064904Y-166710990D02*
X138493476Y-167282419D01*
X138493476Y-167282419D02*
X139112523Y-167282419D01*
X72455088Y-88595243D02*
X72407466Y-88690486D01*
X72407466Y-88690486D02*
X72312223Y-88785730D01*
X72312223Y-88785730D02*
X72169358Y-88928595D01*
X72169358Y-88928595D02*
X72121736Y-89023838D01*
X72121736Y-89023838D02*
X72121736Y-89119081D01*
X72359844Y-89071460D02*
X72312223Y-89166703D01*
X72312223Y-89166703D02*
X72216979Y-89261946D01*
X72216979Y-89261946D02*
X72026493Y-89309568D01*
X72026493Y-89309568D02*
X71693141Y-89309568D01*
X71693141Y-89309568D02*
X71502654Y-89261946D01*
X71502654Y-89261946D02*
X71407411Y-89166703D01*
X71407411Y-89166703D02*
X71359789Y-89071460D01*
X71359789Y-89071460D02*
X71359789Y-88880973D01*
X71359789Y-88880973D02*
X71407411Y-88785730D01*
X71407411Y-88785730D02*
X71502654Y-88690486D01*
X71502654Y-88690486D02*
X71693141Y-88642865D01*
X71693141Y-88642865D02*
X72026493Y-88642865D01*
X72026493Y-88642865D02*
X72216979Y-88690486D01*
X72216979Y-88690486D02*
X72312223Y-88785730D01*
X72312223Y-88785730D02*
X72359844Y-88880973D01*
X72359844Y-88880973D02*
X72359844Y-89071460D01*
X71693141Y-87785674D02*
X72359844Y-87785674D01*
X71312168Y-88023783D02*
X72026493Y-88261891D01*
X72026493Y-88261891D02*
X72026493Y-87642809D01*
X112563095Y-147589819D02*
X112563095Y-148399342D01*
X112563095Y-148399342D02*
X112610714Y-148494580D01*
X112610714Y-148494580D02*
X112658333Y-148542200D01*
X112658333Y-148542200D02*
X112753571Y-148589819D01*
X112753571Y-148589819D02*
X112944047Y-148589819D01*
X112944047Y-148589819D02*
X113039285Y-148542200D01*
X113039285Y-148542200D02*
X113086904Y-148494580D01*
X113086904Y-148494580D02*
X113134523Y-148399342D01*
X113134523Y-148399342D02*
X113134523Y-147589819D01*
X114086904Y-147589819D02*
X113610714Y-147589819D01*
X113610714Y-147589819D02*
X113563095Y-148066009D01*
X113563095Y-148066009D02*
X113610714Y-148018390D01*
X113610714Y-148018390D02*
X113705952Y-147970771D01*
X113705952Y-147970771D02*
X113944047Y-147970771D01*
X113944047Y-147970771D02*
X114039285Y-148018390D01*
X114039285Y-148018390D02*
X114086904Y-148066009D01*
X114086904Y-148066009D02*
X114134523Y-148161247D01*
X114134523Y-148161247D02*
X114134523Y-148399342D01*
X114134523Y-148399342D02*
X114086904Y-148494580D01*
X114086904Y-148494580D02*
X114039285Y-148542200D01*
X114039285Y-148542200D02*
X113944047Y-148589819D01*
X113944047Y-148589819D02*
X113705952Y-148589819D01*
X113705952Y-148589819D02*
X113610714Y-148542200D01*
X113610714Y-148542200D02*
X113563095Y-148494580D01*
X103539580Y-134092857D02*
X103587200Y-134140476D01*
X103587200Y-134140476D02*
X103634819Y-134283333D01*
X103634819Y-134283333D02*
X103634819Y-134378571D01*
X103634819Y-134378571D02*
X103587200Y-134521428D01*
X103587200Y-134521428D02*
X103491961Y-134616666D01*
X103491961Y-134616666D02*
X103396723Y-134664285D01*
X103396723Y-134664285D02*
X103206247Y-134711904D01*
X103206247Y-134711904D02*
X103063390Y-134711904D01*
X103063390Y-134711904D02*
X102872914Y-134664285D01*
X102872914Y-134664285D02*
X102777676Y-134616666D01*
X102777676Y-134616666D02*
X102682438Y-134521428D01*
X102682438Y-134521428D02*
X102634819Y-134378571D01*
X102634819Y-134378571D02*
X102634819Y-134283333D01*
X102634819Y-134283333D02*
X102682438Y-134140476D01*
X102682438Y-134140476D02*
X102730057Y-134092857D01*
X102730057Y-133711904D02*
X102682438Y-133664285D01*
X102682438Y-133664285D02*
X102634819Y-133569047D01*
X102634819Y-133569047D02*
X102634819Y-133330952D01*
X102634819Y-133330952D02*
X102682438Y-133235714D01*
X102682438Y-133235714D02*
X102730057Y-133188095D01*
X102730057Y-133188095D02*
X102825295Y-133140476D01*
X102825295Y-133140476D02*
X102920533Y-133140476D01*
X102920533Y-133140476D02*
X103063390Y-133188095D01*
X103063390Y-133188095D02*
X103634819Y-133759523D01*
X103634819Y-133759523D02*
X103634819Y-133140476D01*
X102968152Y-132283333D02*
X103634819Y-132283333D01*
X102587200Y-132521428D02*
X103301485Y-132759523D01*
X103301485Y-132759523D02*
X103301485Y-132140476D01*
X57785714Y-172454819D02*
X57785714Y-171454819D01*
X57785714Y-171454819D02*
X58023809Y-171454819D01*
X58023809Y-171454819D02*
X58166666Y-171502438D01*
X58166666Y-171502438D02*
X58261904Y-171597676D01*
X58261904Y-171597676D02*
X58309523Y-171692914D01*
X58309523Y-171692914D02*
X58357142Y-171883390D01*
X58357142Y-171883390D02*
X58357142Y-172026247D01*
X58357142Y-172026247D02*
X58309523Y-172216723D01*
X58309523Y-172216723D02*
X58261904Y-172311961D01*
X58261904Y-172311961D02*
X58166666Y-172407200D01*
X58166666Y-172407200D02*
X58023809Y-172454819D01*
X58023809Y-172454819D02*
X57785714Y-172454819D01*
X59309523Y-172454819D02*
X58738095Y-172454819D01*
X59023809Y-172454819D02*
X59023809Y-171454819D01*
X59023809Y-171454819D02*
X58928571Y-171597676D01*
X58928571Y-171597676D02*
X58833333Y-171692914D01*
X58833333Y-171692914D02*
X58738095Y-171740533D01*
X59690476Y-171550057D02*
X59738095Y-171502438D01*
X59738095Y-171502438D02*
X59833333Y-171454819D01*
X59833333Y-171454819D02*
X60071428Y-171454819D01*
X60071428Y-171454819D02*
X60166666Y-171502438D01*
X60166666Y-171502438D02*
X60214285Y-171550057D01*
X60214285Y-171550057D02*
X60261904Y-171645295D01*
X60261904Y-171645295D02*
X60261904Y-171740533D01*
X60261904Y-171740533D02*
X60214285Y-171883390D01*
X60214285Y-171883390D02*
X59642857Y-172454819D01*
X59642857Y-172454819D02*
X60261904Y-172454819D01*
X58618095Y-174754819D02*
X58618095Y-173754819D01*
X59189523Y-174754819D02*
X58760952Y-174183390D01*
X59189523Y-173754819D02*
X58618095Y-174326247D01*
X45948695Y-86535819D02*
X45948695Y-85535819D01*
X45948695Y-86012009D02*
X46520123Y-86012009D01*
X46520123Y-86535819D02*
X46520123Y-85535819D01*
X46901076Y-85535819D02*
X47520123Y-85535819D01*
X47520123Y-85535819D02*
X47186790Y-85916771D01*
X47186790Y-85916771D02*
X47329647Y-85916771D01*
X47329647Y-85916771D02*
X47424885Y-85964390D01*
X47424885Y-85964390D02*
X47472504Y-86012009D01*
X47472504Y-86012009D02*
X47520123Y-86107247D01*
X47520123Y-86107247D02*
X47520123Y-86345342D01*
X47520123Y-86345342D02*
X47472504Y-86440580D01*
X47472504Y-86440580D02*
X47424885Y-86488200D01*
X47424885Y-86488200D02*
X47329647Y-86535819D01*
X47329647Y-86535819D02*
X47043933Y-86535819D01*
X47043933Y-86535819D02*
X46948695Y-86488200D01*
X46948695Y-86488200D02*
X46901076Y-86440580D01*
X82774819Y-149338094D02*
X81774819Y-149338094D01*
X81774819Y-149338094D02*
X81774819Y-149099999D01*
X81774819Y-149099999D02*
X81822438Y-148957142D01*
X81822438Y-148957142D02*
X81917676Y-148861904D01*
X81917676Y-148861904D02*
X82012914Y-148814285D01*
X82012914Y-148814285D02*
X82203390Y-148766666D01*
X82203390Y-148766666D02*
X82346247Y-148766666D01*
X82346247Y-148766666D02*
X82536723Y-148814285D01*
X82536723Y-148814285D02*
X82631961Y-148861904D01*
X82631961Y-148861904D02*
X82727200Y-148957142D01*
X82727200Y-148957142D02*
X82774819Y-149099999D01*
X82774819Y-149099999D02*
X82774819Y-149338094D01*
X82774819Y-147814285D02*
X82774819Y-148385713D01*
X82774819Y-148099999D02*
X81774819Y-148099999D01*
X81774819Y-148099999D02*
X81917676Y-148195237D01*
X81917676Y-148195237D02*
X82012914Y-148290475D01*
X82012914Y-148290475D02*
X82060533Y-148385713D01*
X90328095Y-111444819D02*
X90328095Y-112254342D01*
X90328095Y-112254342D02*
X90375714Y-112349580D01*
X90375714Y-112349580D02*
X90423333Y-112397200D01*
X90423333Y-112397200D02*
X90518571Y-112444819D01*
X90518571Y-112444819D02*
X90709047Y-112444819D01*
X90709047Y-112444819D02*
X90804285Y-112397200D01*
X90804285Y-112397200D02*
X90851904Y-112349580D01*
X90851904Y-112349580D02*
X90899523Y-112254342D01*
X90899523Y-112254342D02*
X90899523Y-111444819D01*
X91804285Y-111444819D02*
X91613809Y-111444819D01*
X91613809Y-111444819D02*
X91518571Y-111492438D01*
X91518571Y-111492438D02*
X91470952Y-111540057D01*
X91470952Y-111540057D02*
X91375714Y-111682914D01*
X91375714Y-111682914D02*
X91328095Y-111873390D01*
X91328095Y-111873390D02*
X91328095Y-112254342D01*
X91328095Y-112254342D02*
X91375714Y-112349580D01*
X91375714Y-112349580D02*
X91423333Y-112397200D01*
X91423333Y-112397200D02*
X91518571Y-112444819D01*
X91518571Y-112444819D02*
X91709047Y-112444819D01*
X91709047Y-112444819D02*
X91804285Y-112397200D01*
X91804285Y-112397200D02*
X91851904Y-112349580D01*
X91851904Y-112349580D02*
X91899523Y-112254342D01*
X91899523Y-112254342D02*
X91899523Y-112016247D01*
X91899523Y-112016247D02*
X91851904Y-111921009D01*
X91851904Y-111921009D02*
X91804285Y-111873390D01*
X91804285Y-111873390D02*
X91709047Y-111825771D01*
X91709047Y-111825771D02*
X91518571Y-111825771D01*
X91518571Y-111825771D02*
X91423333Y-111873390D01*
X91423333Y-111873390D02*
X91375714Y-111921009D01*
X91375714Y-111921009D02*
X91328095Y-112016247D01*
X138774819Y-165114285D02*
X137774819Y-165114285D01*
X137774819Y-165114285D02*
X137774819Y-164876190D01*
X137774819Y-164876190D02*
X137822438Y-164733333D01*
X137822438Y-164733333D02*
X137917676Y-164638095D01*
X137917676Y-164638095D02*
X138012914Y-164590476D01*
X138012914Y-164590476D02*
X138203390Y-164542857D01*
X138203390Y-164542857D02*
X138346247Y-164542857D01*
X138346247Y-164542857D02*
X138536723Y-164590476D01*
X138536723Y-164590476D02*
X138631961Y-164638095D01*
X138631961Y-164638095D02*
X138727200Y-164733333D01*
X138727200Y-164733333D02*
X138774819Y-164876190D01*
X138774819Y-164876190D02*
X138774819Y-165114285D01*
X138774819Y-163590476D02*
X138774819Y-164161904D01*
X138774819Y-163876190D02*
X137774819Y-163876190D01*
X137774819Y-163876190D02*
X137917676Y-163971428D01*
X137917676Y-163971428D02*
X138012914Y-164066666D01*
X138012914Y-164066666D02*
X138060533Y-164161904D01*
X137774819Y-162685714D02*
X137774819Y-163161904D01*
X137774819Y-163161904D02*
X138251009Y-163209523D01*
X138251009Y-163209523D02*
X138203390Y-163161904D01*
X138203390Y-163161904D02*
X138155771Y-163066666D01*
X138155771Y-163066666D02*
X138155771Y-162828571D01*
X138155771Y-162828571D02*
X138203390Y-162733333D01*
X138203390Y-162733333D02*
X138251009Y-162685714D01*
X138251009Y-162685714D02*
X138346247Y-162638095D01*
X138346247Y-162638095D02*
X138584342Y-162638095D01*
X138584342Y-162638095D02*
X138679580Y-162685714D01*
X138679580Y-162685714D02*
X138727200Y-162733333D01*
X138727200Y-162733333D02*
X138774819Y-162828571D01*
X138774819Y-162828571D02*
X138774819Y-163066666D01*
X138774819Y-163066666D02*
X138727200Y-163161904D01*
X138727200Y-163161904D02*
X138679580Y-163209523D01*
X83334819Y-156266666D02*
X82858628Y-156599999D01*
X83334819Y-156838094D02*
X82334819Y-156838094D01*
X82334819Y-156838094D02*
X82334819Y-156457142D01*
X82334819Y-156457142D02*
X82382438Y-156361904D01*
X82382438Y-156361904D02*
X82430057Y-156314285D01*
X82430057Y-156314285D02*
X82525295Y-156266666D01*
X82525295Y-156266666D02*
X82668152Y-156266666D01*
X82668152Y-156266666D02*
X82763390Y-156314285D01*
X82763390Y-156314285D02*
X82811009Y-156361904D01*
X82811009Y-156361904D02*
X82858628Y-156457142D01*
X82858628Y-156457142D02*
X82858628Y-156838094D01*
X83334819Y-155314285D02*
X83334819Y-155885713D01*
X83334819Y-155599999D02*
X82334819Y-155599999D01*
X82334819Y-155599999D02*
X82477676Y-155695237D01*
X82477676Y-155695237D02*
X82572914Y-155790475D01*
X82572914Y-155790475D02*
X82620533Y-155885713D01*
X72604819Y-98238094D02*
X71604819Y-98238094D01*
X71604819Y-98238094D02*
X71604819Y-97999999D01*
X71604819Y-97999999D02*
X71652438Y-97857142D01*
X71652438Y-97857142D02*
X71747676Y-97761904D01*
X71747676Y-97761904D02*
X71842914Y-97714285D01*
X71842914Y-97714285D02*
X72033390Y-97666666D01*
X72033390Y-97666666D02*
X72176247Y-97666666D01*
X72176247Y-97666666D02*
X72366723Y-97714285D01*
X72366723Y-97714285D02*
X72461961Y-97761904D01*
X72461961Y-97761904D02*
X72557200Y-97857142D01*
X72557200Y-97857142D02*
X72604819Y-97999999D01*
X72604819Y-97999999D02*
X72604819Y-98238094D01*
X72604819Y-97190475D02*
X72604819Y-96999999D01*
X72604819Y-96999999D02*
X72557200Y-96904761D01*
X72557200Y-96904761D02*
X72509580Y-96857142D01*
X72509580Y-96857142D02*
X72366723Y-96761904D01*
X72366723Y-96761904D02*
X72176247Y-96714285D01*
X72176247Y-96714285D02*
X71795295Y-96714285D01*
X71795295Y-96714285D02*
X71700057Y-96761904D01*
X71700057Y-96761904D02*
X71652438Y-96809523D01*
X71652438Y-96809523D02*
X71604819Y-96904761D01*
X71604819Y-96904761D02*
X71604819Y-97095237D01*
X71604819Y-97095237D02*
X71652438Y-97190475D01*
X71652438Y-97190475D02*
X71700057Y-97238094D01*
X71700057Y-97238094D02*
X71795295Y-97285713D01*
X71795295Y-97285713D02*
X72033390Y-97285713D01*
X72033390Y-97285713D02*
X72128628Y-97238094D01*
X72128628Y-97238094D02*
X72176247Y-97190475D01*
X72176247Y-97190475D02*
X72223866Y-97095237D01*
X72223866Y-97095237D02*
X72223866Y-96904761D01*
X72223866Y-96904761D02*
X72176247Y-96809523D01*
X72176247Y-96809523D02*
X72128628Y-96761904D01*
X72128628Y-96761904D02*
X72033390Y-96714285D01*
X59282035Y-110030463D02*
X59282035Y-109030369D01*
X59853517Y-110030463D02*
X59424906Y-109458981D01*
X59853517Y-109030369D02*
X59282035Y-109601851D01*
X60710741Y-109363734D02*
X60710741Y-110030463D01*
X60472623Y-108982746D02*
X60234506Y-109697098D01*
X60234506Y-109697098D02*
X60853611Y-109697098D01*
X72550088Y-109095243D02*
X72502466Y-109190486D01*
X72502466Y-109190486D02*
X72407223Y-109285730D01*
X72407223Y-109285730D02*
X72264358Y-109428595D01*
X72264358Y-109428595D02*
X72216736Y-109523838D01*
X72216736Y-109523838D02*
X72216736Y-109619081D01*
X72454844Y-109571460D02*
X72407223Y-109666703D01*
X72407223Y-109666703D02*
X72311979Y-109761946D01*
X72311979Y-109761946D02*
X72121493Y-109809568D01*
X72121493Y-109809568D02*
X71788141Y-109809568D01*
X71788141Y-109809568D02*
X71597654Y-109761946D01*
X71597654Y-109761946D02*
X71502411Y-109666703D01*
X71502411Y-109666703D02*
X71454789Y-109571460D01*
X71454789Y-109571460D02*
X71454789Y-109380973D01*
X71454789Y-109380973D02*
X71502411Y-109285730D01*
X71502411Y-109285730D02*
X71597654Y-109190486D01*
X71597654Y-109190486D02*
X71788141Y-109142865D01*
X71788141Y-109142865D02*
X72121493Y-109142865D01*
X72121493Y-109142865D02*
X72311979Y-109190486D01*
X72311979Y-109190486D02*
X72407223Y-109285730D01*
X72407223Y-109285730D02*
X72454844Y-109380973D01*
X72454844Y-109380973D02*
X72454844Y-109571460D01*
X71454789Y-108238053D02*
X71454789Y-108714269D01*
X71454789Y-108714269D02*
X71931006Y-108761891D01*
X71931006Y-108761891D02*
X71883384Y-108714269D01*
X71883384Y-108714269D02*
X71835763Y-108619026D01*
X71835763Y-108619026D02*
X71835763Y-108380918D01*
X71835763Y-108380918D02*
X71883384Y-108285674D01*
X71883384Y-108285674D02*
X71931006Y-108238053D01*
X71931006Y-108238053D02*
X72026249Y-108190431D01*
X72026249Y-108190431D02*
X72264358Y-108190431D01*
X72264358Y-108190431D02*
X72359601Y-108238053D01*
X72359601Y-108238053D02*
X72407223Y-108285674D01*
X72407223Y-108285674D02*
X72454844Y-108380918D01*
X72454844Y-108380918D02*
X72454844Y-108619026D01*
X72454844Y-108619026D02*
X72407223Y-108714269D01*
X72407223Y-108714269D02*
X72359601Y-108761891D01*
X134569295Y-86510419D02*
X134569295Y-85510419D01*
X134569295Y-85986609D02*
X135140723Y-85986609D01*
X135140723Y-86510419D02*
X135140723Y-85510419D01*
X136140723Y-86510419D02*
X135569295Y-86510419D01*
X135855009Y-86510419D02*
X135855009Y-85510419D01*
X135855009Y-85510419D02*
X135759771Y-85653276D01*
X135759771Y-85653276D02*
X135664533Y-85748514D01*
X135664533Y-85748514D02*
X135569295Y-85796133D01*
X92861905Y-164774819D02*
X92861905Y-163774819D01*
X92861905Y-163774819D02*
X93100000Y-163774819D01*
X93100000Y-163774819D02*
X93242857Y-163822438D01*
X93242857Y-163822438D02*
X93338095Y-163917676D01*
X93338095Y-163917676D02*
X93385714Y-164012914D01*
X93385714Y-164012914D02*
X93433333Y-164203390D01*
X93433333Y-164203390D02*
X93433333Y-164346247D01*
X93433333Y-164346247D02*
X93385714Y-164536723D01*
X93385714Y-164536723D02*
X93338095Y-164631961D01*
X93338095Y-164631961D02*
X93242857Y-164727200D01*
X93242857Y-164727200D02*
X93100000Y-164774819D01*
X93100000Y-164774819D02*
X92861905Y-164774819D01*
X94290476Y-163774819D02*
X94100000Y-163774819D01*
X94100000Y-163774819D02*
X94004762Y-163822438D01*
X94004762Y-163822438D02*
X93957143Y-163870057D01*
X93957143Y-163870057D02*
X93861905Y-164012914D01*
X93861905Y-164012914D02*
X93814286Y-164203390D01*
X93814286Y-164203390D02*
X93814286Y-164584342D01*
X93814286Y-164584342D02*
X93861905Y-164679580D01*
X93861905Y-164679580D02*
X93909524Y-164727200D01*
X93909524Y-164727200D02*
X94004762Y-164774819D01*
X94004762Y-164774819D02*
X94195238Y-164774819D01*
X94195238Y-164774819D02*
X94290476Y-164727200D01*
X94290476Y-164727200D02*
X94338095Y-164679580D01*
X94338095Y-164679580D02*
X94385714Y-164584342D01*
X94385714Y-164584342D02*
X94385714Y-164346247D01*
X94385714Y-164346247D02*
X94338095Y-164251009D01*
X94338095Y-164251009D02*
X94290476Y-164203390D01*
X94290476Y-164203390D02*
X94195238Y-164155771D01*
X94195238Y-164155771D02*
X94004762Y-164155771D01*
X94004762Y-164155771D02*
X93909524Y-164203390D01*
X93909524Y-164203390D02*
X93861905Y-164251009D01*
X93861905Y-164251009D02*
X93814286Y-164346247D01*
X73604819Y-115714285D02*
X72604819Y-115714285D01*
X72604819Y-115714285D02*
X72604819Y-115476190D01*
X72604819Y-115476190D02*
X72652438Y-115333333D01*
X72652438Y-115333333D02*
X72747676Y-115238095D01*
X72747676Y-115238095D02*
X72842914Y-115190476D01*
X72842914Y-115190476D02*
X73033390Y-115142857D01*
X73033390Y-115142857D02*
X73176247Y-115142857D01*
X73176247Y-115142857D02*
X73366723Y-115190476D01*
X73366723Y-115190476D02*
X73461961Y-115238095D01*
X73461961Y-115238095D02*
X73557200Y-115333333D01*
X73557200Y-115333333D02*
X73604819Y-115476190D01*
X73604819Y-115476190D02*
X73604819Y-115714285D01*
X73604819Y-114190476D02*
X73604819Y-114761904D01*
X73604819Y-114476190D02*
X72604819Y-114476190D01*
X72604819Y-114476190D02*
X72747676Y-114571428D01*
X72747676Y-114571428D02*
X72842914Y-114666666D01*
X72842914Y-114666666D02*
X72890533Y-114761904D01*
X73604819Y-113238095D02*
X73604819Y-113809523D01*
X73604819Y-113523809D02*
X72604819Y-113523809D01*
X72604819Y-113523809D02*
X72747676Y-113619047D01*
X72747676Y-113619047D02*
X72842914Y-113714285D01*
X72842914Y-113714285D02*
X72890533Y-113809523D01*
X79857142Y-109734819D02*
X79523809Y-109258628D01*
X79285714Y-109734819D02*
X79285714Y-108734819D01*
X79285714Y-108734819D02*
X79666666Y-108734819D01*
X79666666Y-108734819D02*
X79761904Y-108782438D01*
X79761904Y-108782438D02*
X79809523Y-108830057D01*
X79809523Y-108830057D02*
X79857142Y-108925295D01*
X79857142Y-108925295D02*
X79857142Y-109068152D01*
X79857142Y-109068152D02*
X79809523Y-109163390D01*
X79809523Y-109163390D02*
X79761904Y-109211009D01*
X79761904Y-109211009D02*
X79666666Y-109258628D01*
X79666666Y-109258628D02*
X79285714Y-109258628D01*
X80809523Y-109734819D02*
X80238095Y-109734819D01*
X80523809Y-109734819D02*
X80523809Y-108734819D01*
X80523809Y-108734819D02*
X80428571Y-108877676D01*
X80428571Y-108877676D02*
X80333333Y-108972914D01*
X80333333Y-108972914D02*
X80238095Y-109020533D01*
X81190476Y-108830057D02*
X81238095Y-108782438D01*
X81238095Y-108782438D02*
X81333333Y-108734819D01*
X81333333Y-108734819D02*
X81571428Y-108734819D01*
X81571428Y-108734819D02*
X81666666Y-108782438D01*
X81666666Y-108782438D02*
X81714285Y-108830057D01*
X81714285Y-108830057D02*
X81761904Y-108925295D01*
X81761904Y-108925295D02*
X81761904Y-109020533D01*
X81761904Y-109020533D02*
X81714285Y-109163390D01*
X81714285Y-109163390D02*
X81142857Y-109734819D01*
X81142857Y-109734819D02*
X81761904Y-109734819D01*
X88357142Y-111274819D02*
X88023809Y-110798628D01*
X87785714Y-111274819D02*
X87785714Y-110274819D01*
X87785714Y-110274819D02*
X88166666Y-110274819D01*
X88166666Y-110274819D02*
X88261904Y-110322438D01*
X88261904Y-110322438D02*
X88309523Y-110370057D01*
X88309523Y-110370057D02*
X88357142Y-110465295D01*
X88357142Y-110465295D02*
X88357142Y-110608152D01*
X88357142Y-110608152D02*
X88309523Y-110703390D01*
X88309523Y-110703390D02*
X88261904Y-110751009D01*
X88261904Y-110751009D02*
X88166666Y-110798628D01*
X88166666Y-110798628D02*
X87785714Y-110798628D01*
X88738095Y-110370057D02*
X88785714Y-110322438D01*
X88785714Y-110322438D02*
X88880952Y-110274819D01*
X88880952Y-110274819D02*
X89119047Y-110274819D01*
X89119047Y-110274819D02*
X89214285Y-110322438D01*
X89214285Y-110322438D02*
X89261904Y-110370057D01*
X89261904Y-110370057D02*
X89309523Y-110465295D01*
X89309523Y-110465295D02*
X89309523Y-110560533D01*
X89309523Y-110560533D02*
X89261904Y-110703390D01*
X89261904Y-110703390D02*
X88690476Y-111274819D01*
X88690476Y-111274819D02*
X89309523Y-111274819D01*
X90261904Y-111274819D02*
X89690476Y-111274819D01*
X89976190Y-111274819D02*
X89976190Y-110274819D01*
X89976190Y-110274819D02*
X89880952Y-110417676D01*
X89880952Y-110417676D02*
X89785714Y-110512914D01*
X89785714Y-110512914D02*
X89690476Y-110560533D01*
X99048333Y-160674819D02*
X98715000Y-160198628D01*
X98476905Y-160674819D02*
X98476905Y-159674819D01*
X98476905Y-159674819D02*
X98857857Y-159674819D01*
X98857857Y-159674819D02*
X98953095Y-159722438D01*
X98953095Y-159722438D02*
X99000714Y-159770057D01*
X99000714Y-159770057D02*
X99048333Y-159865295D01*
X99048333Y-159865295D02*
X99048333Y-160008152D01*
X99048333Y-160008152D02*
X99000714Y-160103390D01*
X99000714Y-160103390D02*
X98953095Y-160151009D01*
X98953095Y-160151009D02*
X98857857Y-160198628D01*
X98857857Y-160198628D02*
X98476905Y-160198628D01*
X99905476Y-159674819D02*
X99715000Y-159674819D01*
X99715000Y-159674819D02*
X99619762Y-159722438D01*
X99619762Y-159722438D02*
X99572143Y-159770057D01*
X99572143Y-159770057D02*
X99476905Y-159912914D01*
X99476905Y-159912914D02*
X99429286Y-160103390D01*
X99429286Y-160103390D02*
X99429286Y-160484342D01*
X99429286Y-160484342D02*
X99476905Y-160579580D01*
X99476905Y-160579580D02*
X99524524Y-160627200D01*
X99524524Y-160627200D02*
X99619762Y-160674819D01*
X99619762Y-160674819D02*
X99810238Y-160674819D01*
X99810238Y-160674819D02*
X99905476Y-160627200D01*
X99905476Y-160627200D02*
X99953095Y-160579580D01*
X99953095Y-160579580D02*
X100000714Y-160484342D01*
X100000714Y-160484342D02*
X100000714Y-160246247D01*
X100000714Y-160246247D02*
X99953095Y-160151009D01*
X99953095Y-160151009D02*
X99905476Y-160103390D01*
X99905476Y-160103390D02*
X99810238Y-160055771D01*
X99810238Y-160055771D02*
X99619762Y-160055771D01*
X99619762Y-160055771D02*
X99524524Y-160103390D01*
X99524524Y-160103390D02*
X99476905Y-160151009D01*
X99476905Y-160151009D02*
X99429286Y-160246247D01*
X59256635Y-126972263D02*
X59256635Y-125972169D01*
X59828117Y-126972263D02*
X59399506Y-126400781D01*
X59828117Y-125972169D02*
X59256635Y-126543651D01*
X60209106Y-126067416D02*
X60256729Y-126019793D01*
X60256729Y-126019793D02*
X60351976Y-125972169D01*
X60351976Y-125972169D02*
X60590094Y-125972169D01*
X60590094Y-125972169D02*
X60685341Y-126019793D01*
X60685341Y-126019793D02*
X60732964Y-126067416D01*
X60732964Y-126067416D02*
X60780588Y-126162663D01*
X60780588Y-126162663D02*
X60780588Y-126257910D01*
X60780588Y-126257910D02*
X60732964Y-126400781D01*
X60732964Y-126400781D02*
X60161482Y-126972263D01*
X60161482Y-126972263D02*
X60780588Y-126972263D01*
X118894642Y-131834819D02*
X118561309Y-131358628D01*
X118323214Y-131834819D02*
X118323214Y-130834819D01*
X118323214Y-130834819D02*
X118704166Y-130834819D01*
X118704166Y-130834819D02*
X118799404Y-130882438D01*
X118799404Y-130882438D02*
X118847023Y-130930057D01*
X118847023Y-130930057D02*
X118894642Y-131025295D01*
X118894642Y-131025295D02*
X118894642Y-131168152D01*
X118894642Y-131168152D02*
X118847023Y-131263390D01*
X118847023Y-131263390D02*
X118799404Y-131311009D01*
X118799404Y-131311009D02*
X118704166Y-131358628D01*
X118704166Y-131358628D02*
X118323214Y-131358628D01*
X119275595Y-130930057D02*
X119323214Y-130882438D01*
X119323214Y-130882438D02*
X119418452Y-130834819D01*
X119418452Y-130834819D02*
X119656547Y-130834819D01*
X119656547Y-130834819D02*
X119751785Y-130882438D01*
X119751785Y-130882438D02*
X119799404Y-130930057D01*
X119799404Y-130930057D02*
X119847023Y-131025295D01*
X119847023Y-131025295D02*
X119847023Y-131120533D01*
X119847023Y-131120533D02*
X119799404Y-131263390D01*
X119799404Y-131263390D02*
X119227976Y-131834819D01*
X119227976Y-131834819D02*
X119847023Y-131834819D01*
X120704166Y-131168152D02*
X120704166Y-131834819D01*
X120466071Y-130787200D02*
X120227976Y-131501485D01*
X120227976Y-131501485D02*
X120847023Y-131501485D01*
X106029819Y-160836904D02*
X106839342Y-160836904D01*
X106839342Y-160836904D02*
X106934580Y-160789285D01*
X106934580Y-160789285D02*
X106982200Y-160741666D01*
X106982200Y-160741666D02*
X107029819Y-160646428D01*
X107029819Y-160646428D02*
X107029819Y-160455952D01*
X107029819Y-160455952D02*
X106982200Y-160360714D01*
X106982200Y-160360714D02*
X106934580Y-160313095D01*
X106934580Y-160313095D02*
X106839342Y-160265476D01*
X106839342Y-160265476D02*
X106029819Y-160265476D01*
X107029819Y-159265476D02*
X107029819Y-159836904D01*
X107029819Y-159551190D02*
X106029819Y-159551190D01*
X106029819Y-159551190D02*
X106172676Y-159646428D01*
X106172676Y-159646428D02*
X106267914Y-159741666D01*
X106267914Y-159741666D02*
X106315533Y-159836904D01*
X101699219Y-128119094D02*
X100699219Y-128119094D01*
X100699219Y-128119094D02*
X100699219Y-127880999D01*
X100699219Y-127880999D02*
X100746838Y-127738142D01*
X100746838Y-127738142D02*
X100842076Y-127642904D01*
X100842076Y-127642904D02*
X100937314Y-127595285D01*
X100937314Y-127595285D02*
X101127790Y-127547666D01*
X101127790Y-127547666D02*
X101270647Y-127547666D01*
X101270647Y-127547666D02*
X101461123Y-127595285D01*
X101461123Y-127595285D02*
X101556361Y-127642904D01*
X101556361Y-127642904D02*
X101651600Y-127738142D01*
X101651600Y-127738142D02*
X101699219Y-127880999D01*
X101699219Y-127880999D02*
X101699219Y-128119094D01*
X101127790Y-126976237D02*
X101080171Y-127071475D01*
X101080171Y-127071475D02*
X101032552Y-127119094D01*
X101032552Y-127119094D02*
X100937314Y-127166713D01*
X100937314Y-127166713D02*
X100889695Y-127166713D01*
X100889695Y-127166713D02*
X100794457Y-127119094D01*
X100794457Y-127119094D02*
X100746838Y-127071475D01*
X100746838Y-127071475D02*
X100699219Y-126976237D01*
X100699219Y-126976237D02*
X100699219Y-126785761D01*
X100699219Y-126785761D02*
X100746838Y-126690523D01*
X100746838Y-126690523D02*
X100794457Y-126642904D01*
X100794457Y-126642904D02*
X100889695Y-126595285D01*
X100889695Y-126595285D02*
X100937314Y-126595285D01*
X100937314Y-126595285D02*
X101032552Y-126642904D01*
X101032552Y-126642904D02*
X101080171Y-126690523D01*
X101080171Y-126690523D02*
X101127790Y-126785761D01*
X101127790Y-126785761D02*
X101127790Y-126976237D01*
X101127790Y-126976237D02*
X101175409Y-127071475D01*
X101175409Y-127071475D02*
X101223028Y-127119094D01*
X101223028Y-127119094D02*
X101318266Y-127166713D01*
X101318266Y-127166713D02*
X101508742Y-127166713D01*
X101508742Y-127166713D02*
X101603980Y-127119094D01*
X101603980Y-127119094D02*
X101651600Y-127071475D01*
X101651600Y-127071475D02*
X101699219Y-126976237D01*
X101699219Y-126976237D02*
X101699219Y-126785761D01*
X101699219Y-126785761D02*
X101651600Y-126690523D01*
X101651600Y-126690523D02*
X101603980Y-126642904D01*
X101603980Y-126642904D02*
X101508742Y-126595285D01*
X101508742Y-126595285D02*
X101318266Y-126595285D01*
X101318266Y-126595285D02*
X101223028Y-126642904D01*
X101223028Y-126642904D02*
X101175409Y-126690523D01*
X101175409Y-126690523D02*
X101127790Y-126785761D01*
X116785714Y-171669819D02*
X116785714Y-170669819D01*
X116785714Y-170669819D02*
X117023809Y-170669819D01*
X117023809Y-170669819D02*
X117166666Y-170717438D01*
X117166666Y-170717438D02*
X117261904Y-170812676D01*
X117261904Y-170812676D02*
X117309523Y-170907914D01*
X117309523Y-170907914D02*
X117357142Y-171098390D01*
X117357142Y-171098390D02*
X117357142Y-171241247D01*
X117357142Y-171241247D02*
X117309523Y-171431723D01*
X117309523Y-171431723D02*
X117261904Y-171526961D01*
X117261904Y-171526961D02*
X117166666Y-171622200D01*
X117166666Y-171622200D02*
X117023809Y-171669819D01*
X117023809Y-171669819D02*
X116785714Y-171669819D01*
X118309523Y-171669819D02*
X117738095Y-171669819D01*
X118023809Y-171669819D02*
X118023809Y-170669819D01*
X118023809Y-170669819D02*
X117928571Y-170812676D01*
X117928571Y-170812676D02*
X117833333Y-170907914D01*
X117833333Y-170907914D02*
X117738095Y-170955533D01*
X119166666Y-171003152D02*
X119166666Y-171669819D01*
X118928571Y-170622200D02*
X118690476Y-171336485D01*
X118690476Y-171336485D02*
X119309523Y-171336485D01*
X110118095Y-173254819D02*
X110118095Y-172254819D01*
X110689523Y-173254819D02*
X110260952Y-172683390D01*
X110689523Y-172254819D02*
X110118095Y-172826247D01*
X83959819Y-96238094D02*
X82959819Y-96238094D01*
X82959819Y-96238094D02*
X82959819Y-95999999D01*
X82959819Y-95999999D02*
X83007438Y-95857142D01*
X83007438Y-95857142D02*
X83102676Y-95761904D01*
X83102676Y-95761904D02*
X83197914Y-95714285D01*
X83197914Y-95714285D02*
X83388390Y-95666666D01*
X83388390Y-95666666D02*
X83531247Y-95666666D01*
X83531247Y-95666666D02*
X83721723Y-95714285D01*
X83721723Y-95714285D02*
X83816961Y-95761904D01*
X83816961Y-95761904D02*
X83912200Y-95857142D01*
X83912200Y-95857142D02*
X83959819Y-95999999D01*
X83959819Y-95999999D02*
X83959819Y-96238094D01*
X82959819Y-94761904D02*
X82959819Y-95238094D01*
X82959819Y-95238094D02*
X83436009Y-95285713D01*
X83436009Y-95285713D02*
X83388390Y-95238094D01*
X83388390Y-95238094D02*
X83340771Y-95142856D01*
X83340771Y-95142856D02*
X83340771Y-94904761D01*
X83340771Y-94904761D02*
X83388390Y-94809523D01*
X83388390Y-94809523D02*
X83436009Y-94761904D01*
X83436009Y-94761904D02*
X83531247Y-94714285D01*
X83531247Y-94714285D02*
X83769342Y-94714285D01*
X83769342Y-94714285D02*
X83864580Y-94761904D01*
X83864580Y-94761904D02*
X83912200Y-94809523D01*
X83912200Y-94809523D02*
X83959819Y-94904761D01*
X83959819Y-94904761D02*
X83959819Y-95142856D01*
X83959819Y-95142856D02*
X83912200Y-95238094D01*
X83912200Y-95238094D02*
X83864580Y-95285713D01*
X108774819Y-119142857D02*
X108298628Y-119476190D01*
X108774819Y-119714285D02*
X107774819Y-119714285D01*
X107774819Y-119714285D02*
X107774819Y-119333333D01*
X107774819Y-119333333D02*
X107822438Y-119238095D01*
X107822438Y-119238095D02*
X107870057Y-119190476D01*
X107870057Y-119190476D02*
X107965295Y-119142857D01*
X107965295Y-119142857D02*
X108108152Y-119142857D01*
X108108152Y-119142857D02*
X108203390Y-119190476D01*
X108203390Y-119190476D02*
X108251009Y-119238095D01*
X108251009Y-119238095D02*
X108298628Y-119333333D01*
X108298628Y-119333333D02*
X108298628Y-119714285D01*
X108774819Y-118190476D02*
X108774819Y-118761904D01*
X108774819Y-118476190D02*
X107774819Y-118476190D01*
X107774819Y-118476190D02*
X107917676Y-118571428D01*
X107917676Y-118571428D02*
X108012914Y-118666666D01*
X108012914Y-118666666D02*
X108060533Y-118761904D01*
X107774819Y-117333333D02*
X107774819Y-117523809D01*
X107774819Y-117523809D02*
X107822438Y-117619047D01*
X107822438Y-117619047D02*
X107870057Y-117666666D01*
X107870057Y-117666666D02*
X108012914Y-117761904D01*
X108012914Y-117761904D02*
X108203390Y-117809523D01*
X108203390Y-117809523D02*
X108584342Y-117809523D01*
X108584342Y-117809523D02*
X108679580Y-117761904D01*
X108679580Y-117761904D02*
X108727200Y-117714285D01*
X108727200Y-117714285D02*
X108774819Y-117619047D01*
X108774819Y-117619047D02*
X108774819Y-117428571D01*
X108774819Y-117428571D02*
X108727200Y-117333333D01*
X108727200Y-117333333D02*
X108679580Y-117285714D01*
X108679580Y-117285714D02*
X108584342Y-117238095D01*
X108584342Y-117238095D02*
X108346247Y-117238095D01*
X108346247Y-117238095D02*
X108251009Y-117285714D01*
X108251009Y-117285714D02*
X108203390Y-117333333D01*
X108203390Y-117333333D02*
X108155771Y-117428571D01*
X108155771Y-117428571D02*
X108155771Y-117619047D01*
X108155771Y-117619047D02*
X108203390Y-117714285D01*
X108203390Y-117714285D02*
X108251009Y-117761904D01*
X108251009Y-117761904D02*
X108346247Y-117809523D01*
X83184819Y-131278094D02*
X82184819Y-131278094D01*
X82184819Y-131278094D02*
X82184819Y-131039999D01*
X82184819Y-131039999D02*
X82232438Y-130897142D01*
X82232438Y-130897142D02*
X82327676Y-130801904D01*
X82327676Y-130801904D02*
X82422914Y-130754285D01*
X82422914Y-130754285D02*
X82613390Y-130706666D01*
X82613390Y-130706666D02*
X82756247Y-130706666D01*
X82756247Y-130706666D02*
X82946723Y-130754285D01*
X82946723Y-130754285D02*
X83041961Y-130801904D01*
X83041961Y-130801904D02*
X83137200Y-130897142D01*
X83137200Y-130897142D02*
X83184819Y-131039999D01*
X83184819Y-131039999D02*
X83184819Y-131278094D01*
X82184819Y-130373332D02*
X82184819Y-129754285D01*
X82184819Y-129754285D02*
X82565771Y-130087618D01*
X82565771Y-130087618D02*
X82565771Y-129944761D01*
X82565771Y-129944761D02*
X82613390Y-129849523D01*
X82613390Y-129849523D02*
X82661009Y-129801904D01*
X82661009Y-129801904D02*
X82756247Y-129754285D01*
X82756247Y-129754285D02*
X82994342Y-129754285D01*
X82994342Y-129754285D02*
X83089580Y-129801904D01*
X83089580Y-129801904D02*
X83137200Y-129849523D01*
X83137200Y-129849523D02*
X83184819Y-129944761D01*
X83184819Y-129944761D02*
X83184819Y-130230475D01*
X83184819Y-130230475D02*
X83137200Y-130325713D01*
X83137200Y-130325713D02*
X83089580Y-130373332D01*
X71822488Y-124250443D02*
X71774866Y-124345686D01*
X71774866Y-124345686D02*
X71679623Y-124440930D01*
X71679623Y-124440930D02*
X71536758Y-124583795D01*
X71536758Y-124583795D02*
X71489136Y-124679038D01*
X71489136Y-124679038D02*
X71489136Y-124774281D01*
X71727244Y-124726660D02*
X71679623Y-124821903D01*
X71679623Y-124821903D02*
X71584379Y-124917146D01*
X71584379Y-124917146D02*
X71393893Y-124964768D01*
X71393893Y-124964768D02*
X71060541Y-124964768D01*
X71060541Y-124964768D02*
X70870054Y-124917146D01*
X70870054Y-124917146D02*
X70774811Y-124821903D01*
X70774811Y-124821903D02*
X70727189Y-124726660D01*
X70727189Y-124726660D02*
X70727189Y-124536173D01*
X70727189Y-124536173D02*
X70774811Y-124440930D01*
X70774811Y-124440930D02*
X70870054Y-124345686D01*
X70870054Y-124345686D02*
X71060541Y-124298065D01*
X71060541Y-124298065D02*
X71393893Y-124298065D01*
X71393893Y-124298065D02*
X71584379Y-124345686D01*
X71584379Y-124345686D02*
X71679623Y-124440930D01*
X71679623Y-124440930D02*
X71727244Y-124536173D01*
X71727244Y-124536173D02*
X71727244Y-124726660D01*
X70727189Y-123964713D02*
X70727189Y-123345631D01*
X70727189Y-123345631D02*
X71108163Y-123678983D01*
X71108163Y-123678983D02*
X71108163Y-123536118D01*
X71108163Y-123536118D02*
X71155784Y-123440874D01*
X71155784Y-123440874D02*
X71203406Y-123393253D01*
X71203406Y-123393253D02*
X71298649Y-123345631D01*
X71298649Y-123345631D02*
X71536758Y-123345631D01*
X71536758Y-123345631D02*
X71632001Y-123393253D01*
X71632001Y-123393253D02*
X71679623Y-123440874D01*
X71679623Y-123440874D02*
X71727244Y-123536118D01*
X71727244Y-123536118D02*
X71727244Y-123821848D01*
X71727244Y-123821848D02*
X71679623Y-123917091D01*
X71679623Y-123917091D02*
X71632001Y-123964713D01*
X83954819Y-135666666D02*
X83478628Y-135999999D01*
X83954819Y-136238094D02*
X82954819Y-136238094D01*
X82954819Y-136238094D02*
X82954819Y-135857142D01*
X82954819Y-135857142D02*
X83002438Y-135761904D01*
X83002438Y-135761904D02*
X83050057Y-135714285D01*
X83050057Y-135714285D02*
X83145295Y-135666666D01*
X83145295Y-135666666D02*
X83288152Y-135666666D01*
X83288152Y-135666666D02*
X83383390Y-135714285D01*
X83383390Y-135714285D02*
X83431009Y-135761904D01*
X83431009Y-135761904D02*
X83478628Y-135857142D01*
X83478628Y-135857142D02*
X83478628Y-136238094D01*
X83288152Y-134809523D02*
X83954819Y-134809523D01*
X82907200Y-135047618D02*
X83621485Y-135285713D01*
X83621485Y-135285713D02*
X83621485Y-134666666D01*
X54804819Y-161761904D02*
X55614342Y-161761904D01*
X55614342Y-161761904D02*
X55709580Y-161714285D01*
X55709580Y-161714285D02*
X55757200Y-161666666D01*
X55757200Y-161666666D02*
X55804819Y-161571428D01*
X55804819Y-161571428D02*
X55804819Y-161380952D01*
X55804819Y-161380952D02*
X55757200Y-161285714D01*
X55757200Y-161285714D02*
X55709580Y-161238095D01*
X55709580Y-161238095D02*
X55614342Y-161190476D01*
X55614342Y-161190476D02*
X54804819Y-161190476D01*
X55138152Y-160285714D02*
X55804819Y-160285714D01*
X54757200Y-160523809D02*
X55471485Y-160761904D01*
X55471485Y-160761904D02*
X55471485Y-160142857D01*
X48783333Y-172859580D02*
X48735714Y-172907200D01*
X48735714Y-172907200D02*
X48592857Y-172954819D01*
X48592857Y-172954819D02*
X48497619Y-172954819D01*
X48497619Y-172954819D02*
X48354762Y-172907200D01*
X48354762Y-172907200D02*
X48259524Y-172811961D01*
X48259524Y-172811961D02*
X48211905Y-172716723D01*
X48211905Y-172716723D02*
X48164286Y-172526247D01*
X48164286Y-172526247D02*
X48164286Y-172383390D01*
X48164286Y-172383390D02*
X48211905Y-172192914D01*
X48211905Y-172192914D02*
X48259524Y-172097676D01*
X48259524Y-172097676D02*
X48354762Y-172002438D01*
X48354762Y-172002438D02*
X48497619Y-171954819D01*
X48497619Y-171954819D02*
X48592857Y-171954819D01*
X48592857Y-171954819D02*
X48735714Y-172002438D01*
X48735714Y-172002438D02*
X48783333Y-172050057D01*
X49259524Y-172954819D02*
X49450000Y-172954819D01*
X49450000Y-172954819D02*
X49545238Y-172907200D01*
X49545238Y-172907200D02*
X49592857Y-172859580D01*
X49592857Y-172859580D02*
X49688095Y-172716723D01*
X49688095Y-172716723D02*
X49735714Y-172526247D01*
X49735714Y-172526247D02*
X49735714Y-172145295D01*
X49735714Y-172145295D02*
X49688095Y-172050057D01*
X49688095Y-172050057D02*
X49640476Y-172002438D01*
X49640476Y-172002438D02*
X49545238Y-171954819D01*
X49545238Y-171954819D02*
X49354762Y-171954819D01*
X49354762Y-171954819D02*
X49259524Y-172002438D01*
X49259524Y-172002438D02*
X49211905Y-172050057D01*
X49211905Y-172050057D02*
X49164286Y-172145295D01*
X49164286Y-172145295D02*
X49164286Y-172383390D01*
X49164286Y-172383390D02*
X49211905Y-172478628D01*
X49211905Y-172478628D02*
X49259524Y-172526247D01*
X49259524Y-172526247D02*
X49354762Y-172573866D01*
X49354762Y-172573866D02*
X49545238Y-172573866D01*
X49545238Y-172573866D02*
X49640476Y-172526247D01*
X49640476Y-172526247D02*
X49688095Y-172478628D01*
X49688095Y-172478628D02*
X49735714Y-172383390D01*
X76666666Y-158001009D02*
X76333333Y-158001009D01*
X76333333Y-158524819D02*
X76333333Y-157524819D01*
X76333333Y-157524819D02*
X76809523Y-157524819D01*
X77714285Y-158524819D02*
X77142857Y-158524819D01*
X77428571Y-158524819D02*
X77428571Y-157524819D01*
X77428571Y-157524819D02*
X77333333Y-157667676D01*
X77333333Y-157667676D02*
X77238095Y-157762914D01*
X77238095Y-157762914D02*
X77142857Y-157810533D01*
X72228888Y-141725643D02*
X72181266Y-141820886D01*
X72181266Y-141820886D02*
X72086023Y-141916130D01*
X72086023Y-141916130D02*
X71943158Y-142058995D01*
X71943158Y-142058995D02*
X71895536Y-142154238D01*
X71895536Y-142154238D02*
X71895536Y-142249481D01*
X72133644Y-142201860D02*
X72086023Y-142297103D01*
X72086023Y-142297103D02*
X71990779Y-142392346D01*
X71990779Y-142392346D02*
X71800293Y-142439968D01*
X71800293Y-142439968D02*
X71466941Y-142439968D01*
X71466941Y-142439968D02*
X71276454Y-142392346D01*
X71276454Y-142392346D02*
X71181211Y-142297103D01*
X71181211Y-142297103D02*
X71133589Y-142201860D01*
X71133589Y-142201860D02*
X71133589Y-142011373D01*
X71133589Y-142011373D02*
X71181211Y-141916130D01*
X71181211Y-141916130D02*
X71276454Y-141820886D01*
X71276454Y-141820886D02*
X71466941Y-141773265D01*
X71466941Y-141773265D02*
X71800293Y-141773265D01*
X71800293Y-141773265D02*
X71990779Y-141820886D01*
X71990779Y-141820886D02*
X72086023Y-141916130D01*
X72086023Y-141916130D02*
X72133644Y-142011373D01*
X72133644Y-142011373D02*
X72133644Y-142201860D01*
X71228833Y-141392291D02*
X71181211Y-141344669D01*
X71181211Y-141344669D02*
X71133589Y-141249426D01*
X71133589Y-141249426D02*
X71133589Y-141011318D01*
X71133589Y-141011318D02*
X71181211Y-140916074D01*
X71181211Y-140916074D02*
X71228833Y-140868453D01*
X71228833Y-140868453D02*
X71324076Y-140820831D01*
X71324076Y-140820831D02*
X71419319Y-140820831D01*
X71419319Y-140820831D02*
X71562184Y-140868453D01*
X71562184Y-140868453D02*
X72133644Y-141439913D01*
X72133644Y-141439913D02*
X72133644Y-140820831D01*
X97894642Y-124134819D02*
X97561309Y-123658628D01*
X97323214Y-124134819D02*
X97323214Y-123134819D01*
X97323214Y-123134819D02*
X97704166Y-123134819D01*
X97704166Y-123134819D02*
X97799404Y-123182438D01*
X97799404Y-123182438D02*
X97847023Y-123230057D01*
X97847023Y-123230057D02*
X97894642Y-123325295D01*
X97894642Y-123325295D02*
X97894642Y-123468152D01*
X97894642Y-123468152D02*
X97847023Y-123563390D01*
X97847023Y-123563390D02*
X97799404Y-123611009D01*
X97799404Y-123611009D02*
X97704166Y-123658628D01*
X97704166Y-123658628D02*
X97323214Y-123658628D01*
X98275595Y-123230057D02*
X98323214Y-123182438D01*
X98323214Y-123182438D02*
X98418452Y-123134819D01*
X98418452Y-123134819D02*
X98656547Y-123134819D01*
X98656547Y-123134819D02*
X98751785Y-123182438D01*
X98751785Y-123182438D02*
X98799404Y-123230057D01*
X98799404Y-123230057D02*
X98847023Y-123325295D01*
X98847023Y-123325295D02*
X98847023Y-123420533D01*
X98847023Y-123420533D02*
X98799404Y-123563390D01*
X98799404Y-123563390D02*
X98227976Y-124134819D01*
X98227976Y-124134819D02*
X98847023Y-124134819D01*
X99180357Y-123134819D02*
X99847023Y-123134819D01*
X99847023Y-123134819D02*
X99418452Y-124134819D01*
X106357142Y-139454819D02*
X106023809Y-138978628D01*
X105785714Y-139454819D02*
X105785714Y-138454819D01*
X105785714Y-138454819D02*
X106166666Y-138454819D01*
X106166666Y-138454819D02*
X106261904Y-138502438D01*
X106261904Y-138502438D02*
X106309523Y-138550057D01*
X106309523Y-138550057D02*
X106357142Y-138645295D01*
X106357142Y-138645295D02*
X106357142Y-138788152D01*
X106357142Y-138788152D02*
X106309523Y-138883390D01*
X106309523Y-138883390D02*
X106261904Y-138931009D01*
X106261904Y-138931009D02*
X106166666Y-138978628D01*
X106166666Y-138978628D02*
X105785714Y-138978628D01*
X106738095Y-138550057D02*
X106785714Y-138502438D01*
X106785714Y-138502438D02*
X106880952Y-138454819D01*
X106880952Y-138454819D02*
X107119047Y-138454819D01*
X107119047Y-138454819D02*
X107214285Y-138502438D01*
X107214285Y-138502438D02*
X107261904Y-138550057D01*
X107261904Y-138550057D02*
X107309523Y-138645295D01*
X107309523Y-138645295D02*
X107309523Y-138740533D01*
X107309523Y-138740533D02*
X107261904Y-138883390D01*
X107261904Y-138883390D02*
X106690476Y-139454819D01*
X106690476Y-139454819D02*
X107309523Y-139454819D01*
X108214285Y-138454819D02*
X107738095Y-138454819D01*
X107738095Y-138454819D02*
X107690476Y-138931009D01*
X107690476Y-138931009D02*
X107738095Y-138883390D01*
X107738095Y-138883390D02*
X107833333Y-138835771D01*
X107833333Y-138835771D02*
X108071428Y-138835771D01*
X108071428Y-138835771D02*
X108166666Y-138883390D01*
X108166666Y-138883390D02*
X108214285Y-138931009D01*
X108214285Y-138931009D02*
X108261904Y-139026247D01*
X108261904Y-139026247D02*
X108261904Y-139264342D01*
X108261904Y-139264342D02*
X108214285Y-139359580D01*
X108214285Y-139359580D02*
X108166666Y-139407200D01*
X108166666Y-139407200D02*
X108071428Y-139454819D01*
X108071428Y-139454819D02*
X107833333Y-139454819D01*
X107833333Y-139454819D02*
X107738095Y-139407200D01*
X107738095Y-139407200D02*
X107690476Y-139359580D01*
X108833333Y-108509580D02*
X108785714Y-108557200D01*
X108785714Y-108557200D02*
X108642857Y-108604819D01*
X108642857Y-108604819D02*
X108547619Y-108604819D01*
X108547619Y-108604819D02*
X108404762Y-108557200D01*
X108404762Y-108557200D02*
X108309524Y-108461961D01*
X108309524Y-108461961D02*
X108261905Y-108366723D01*
X108261905Y-108366723D02*
X108214286Y-108176247D01*
X108214286Y-108176247D02*
X108214286Y-108033390D01*
X108214286Y-108033390D02*
X108261905Y-107842914D01*
X108261905Y-107842914D02*
X108309524Y-107747676D01*
X108309524Y-107747676D02*
X108404762Y-107652438D01*
X108404762Y-107652438D02*
X108547619Y-107604819D01*
X108547619Y-107604819D02*
X108642857Y-107604819D01*
X108642857Y-107604819D02*
X108785714Y-107652438D01*
X108785714Y-107652438D02*
X108833333Y-107700057D01*
X109690476Y-107604819D02*
X109500000Y-107604819D01*
X109500000Y-107604819D02*
X109404762Y-107652438D01*
X109404762Y-107652438D02*
X109357143Y-107700057D01*
X109357143Y-107700057D02*
X109261905Y-107842914D01*
X109261905Y-107842914D02*
X109214286Y-108033390D01*
X109214286Y-108033390D02*
X109214286Y-108414342D01*
X109214286Y-108414342D02*
X109261905Y-108509580D01*
X109261905Y-108509580D02*
X109309524Y-108557200D01*
X109309524Y-108557200D02*
X109404762Y-108604819D01*
X109404762Y-108604819D02*
X109595238Y-108604819D01*
X109595238Y-108604819D02*
X109690476Y-108557200D01*
X109690476Y-108557200D02*
X109738095Y-108509580D01*
X109738095Y-108509580D02*
X109785714Y-108414342D01*
X109785714Y-108414342D02*
X109785714Y-108176247D01*
X109785714Y-108176247D02*
X109738095Y-108081009D01*
X109738095Y-108081009D02*
X109690476Y-108033390D01*
X109690476Y-108033390D02*
X109595238Y-107985771D01*
X109595238Y-107985771D02*
X109404762Y-107985771D01*
X109404762Y-107985771D02*
X109309524Y-108033390D01*
X109309524Y-108033390D02*
X109261905Y-108081009D01*
X109261905Y-108081009D02*
X109214286Y-108176247D01*
X103407380Y-138177904D02*
X103455000Y-138231476D01*
X103455000Y-138231476D02*
X103502619Y-138380285D01*
X103502619Y-138380285D02*
X103502619Y-138475523D01*
X103502619Y-138475523D02*
X103455000Y-138612428D01*
X103455000Y-138612428D02*
X103359761Y-138695761D01*
X103359761Y-138695761D02*
X103264523Y-138731476D01*
X103264523Y-138731476D02*
X103074047Y-138755285D01*
X103074047Y-138755285D02*
X102931190Y-138737428D01*
X102931190Y-138737428D02*
X102740714Y-138666000D01*
X102740714Y-138666000D02*
X102645476Y-138606476D01*
X102645476Y-138606476D02*
X102550238Y-138499333D01*
X102550238Y-138499333D02*
X102502619Y-138350523D01*
X102502619Y-138350523D02*
X102502619Y-138255285D01*
X102502619Y-138255285D02*
X102550238Y-138118381D01*
X102550238Y-138118381D02*
X102597857Y-138076714D01*
X102597857Y-137695761D02*
X102550238Y-137642190D01*
X102550238Y-137642190D02*
X102502619Y-137541000D01*
X102502619Y-137541000D02*
X102502619Y-137302904D01*
X102502619Y-137302904D02*
X102550238Y-137213619D01*
X102550238Y-137213619D02*
X102597857Y-137171952D01*
X102597857Y-137171952D02*
X102693095Y-137136238D01*
X102693095Y-137136238D02*
X102788333Y-137148142D01*
X102788333Y-137148142D02*
X102931190Y-137213619D01*
X102931190Y-137213619D02*
X103502619Y-137856476D01*
X103502619Y-137856476D02*
X103502619Y-137237428D01*
X102502619Y-136255285D02*
X102502619Y-136445761D01*
X102502619Y-136445761D02*
X102550238Y-136546952D01*
X102550238Y-136546952D02*
X102597857Y-136600523D01*
X102597857Y-136600523D02*
X102740714Y-136713619D01*
X102740714Y-136713619D02*
X102931190Y-136785047D01*
X102931190Y-136785047D02*
X103312142Y-136832666D01*
X103312142Y-136832666D02*
X103407380Y-136796952D01*
X103407380Y-136796952D02*
X103455000Y-136755285D01*
X103455000Y-136755285D02*
X103502619Y-136666000D01*
X103502619Y-136666000D02*
X103502619Y-136475523D01*
X103502619Y-136475523D02*
X103455000Y-136374333D01*
X103455000Y-136374333D02*
X103407380Y-136320761D01*
X103407380Y-136320761D02*
X103312142Y-136261238D01*
X103312142Y-136261238D02*
X103074047Y-136231476D01*
X103074047Y-136231476D02*
X102978809Y-136267190D01*
X102978809Y-136267190D02*
X102931190Y-136308857D01*
X102931190Y-136308857D02*
X102883571Y-136398142D01*
X102883571Y-136398142D02*
X102883571Y-136588619D01*
X102883571Y-136588619D02*
X102931190Y-136689809D01*
X102931190Y-136689809D02*
X102978809Y-136743380D01*
X102978809Y-136743380D02*
X103074047Y-136802904D01*
X113894642Y-131834819D02*
X113561309Y-131358628D01*
X113323214Y-131834819D02*
X113323214Y-130834819D01*
X113323214Y-130834819D02*
X113704166Y-130834819D01*
X113704166Y-130834819D02*
X113799404Y-130882438D01*
X113799404Y-130882438D02*
X113847023Y-130930057D01*
X113847023Y-130930057D02*
X113894642Y-131025295D01*
X113894642Y-131025295D02*
X113894642Y-131168152D01*
X113894642Y-131168152D02*
X113847023Y-131263390D01*
X113847023Y-131263390D02*
X113799404Y-131311009D01*
X113799404Y-131311009D02*
X113704166Y-131358628D01*
X113704166Y-131358628D02*
X113323214Y-131358628D01*
X114275595Y-130930057D02*
X114323214Y-130882438D01*
X114323214Y-130882438D02*
X114418452Y-130834819D01*
X114418452Y-130834819D02*
X114656547Y-130834819D01*
X114656547Y-130834819D02*
X114751785Y-130882438D01*
X114751785Y-130882438D02*
X114799404Y-130930057D01*
X114799404Y-130930057D02*
X114847023Y-131025295D01*
X114847023Y-131025295D02*
X114847023Y-131120533D01*
X114847023Y-131120533D02*
X114799404Y-131263390D01*
X114799404Y-131263390D02*
X114227976Y-131834819D01*
X114227976Y-131834819D02*
X114847023Y-131834819D01*
X115180357Y-130834819D02*
X115799404Y-130834819D01*
X115799404Y-130834819D02*
X115466071Y-131215771D01*
X115466071Y-131215771D02*
X115608928Y-131215771D01*
X115608928Y-131215771D02*
X115704166Y-131263390D01*
X115704166Y-131263390D02*
X115751785Y-131311009D01*
X115751785Y-131311009D02*
X115799404Y-131406247D01*
X115799404Y-131406247D02*
X115799404Y-131644342D01*
X115799404Y-131644342D02*
X115751785Y-131739580D01*
X115751785Y-131739580D02*
X115704166Y-131787200D01*
X115704166Y-131787200D02*
X115608928Y-131834819D01*
X115608928Y-131834819D02*
X115323214Y-131834819D01*
X115323214Y-131834819D02*
X115227976Y-131787200D01*
X115227976Y-131787200D02*
X115180357Y-131739580D01*
X99857142Y-173359580D02*
X99809523Y-173407200D01*
X99809523Y-173407200D02*
X99666666Y-173454819D01*
X99666666Y-173454819D02*
X99571428Y-173454819D01*
X99571428Y-173454819D02*
X99428571Y-173407200D01*
X99428571Y-173407200D02*
X99333333Y-173311961D01*
X99333333Y-173311961D02*
X99285714Y-173216723D01*
X99285714Y-173216723D02*
X99238095Y-173026247D01*
X99238095Y-173026247D02*
X99238095Y-172883390D01*
X99238095Y-172883390D02*
X99285714Y-172692914D01*
X99285714Y-172692914D02*
X99333333Y-172597676D01*
X99333333Y-172597676D02*
X99428571Y-172502438D01*
X99428571Y-172502438D02*
X99571428Y-172454819D01*
X99571428Y-172454819D02*
X99666666Y-172454819D01*
X99666666Y-172454819D02*
X99809523Y-172502438D01*
X99809523Y-172502438D02*
X99857142Y-172550057D01*
X100809523Y-173454819D02*
X100238095Y-173454819D01*
X100523809Y-173454819D02*
X100523809Y-172454819D01*
X100523809Y-172454819D02*
X100428571Y-172597676D01*
X100428571Y-172597676D02*
X100333333Y-172692914D01*
X100333333Y-172692914D02*
X100238095Y-172740533D01*
X101761904Y-173454819D02*
X101190476Y-173454819D01*
X101476190Y-173454819D02*
X101476190Y-172454819D01*
X101476190Y-172454819D02*
X101380952Y-172597676D01*
X101380952Y-172597676D02*
X101285714Y-172692914D01*
X101285714Y-172692914D02*
X101190476Y-172740533D01*
X83774819Y-113689285D02*
X82774819Y-113689285D01*
X82774819Y-113689285D02*
X82774819Y-113451190D01*
X82774819Y-113451190D02*
X82822438Y-113308333D01*
X82822438Y-113308333D02*
X82917676Y-113213095D01*
X82917676Y-113213095D02*
X83012914Y-113165476D01*
X83012914Y-113165476D02*
X83203390Y-113117857D01*
X83203390Y-113117857D02*
X83346247Y-113117857D01*
X83346247Y-113117857D02*
X83536723Y-113165476D01*
X83536723Y-113165476D02*
X83631961Y-113213095D01*
X83631961Y-113213095D02*
X83727200Y-113308333D01*
X83727200Y-113308333D02*
X83774819Y-113451190D01*
X83774819Y-113451190D02*
X83774819Y-113689285D01*
X83774819Y-112165476D02*
X83774819Y-112736904D01*
X83774819Y-112451190D02*
X82774819Y-112451190D01*
X82774819Y-112451190D02*
X82917676Y-112546428D01*
X82917676Y-112546428D02*
X83012914Y-112641666D01*
X83012914Y-112641666D02*
X83060533Y-112736904D01*
X82774819Y-111546428D02*
X82774819Y-111451190D01*
X82774819Y-111451190D02*
X82822438Y-111355952D01*
X82822438Y-111355952D02*
X82870057Y-111308333D01*
X82870057Y-111308333D02*
X82965295Y-111260714D01*
X82965295Y-111260714D02*
X83155771Y-111213095D01*
X83155771Y-111213095D02*
X83393866Y-111213095D01*
X83393866Y-111213095D02*
X83584342Y-111260714D01*
X83584342Y-111260714D02*
X83679580Y-111308333D01*
X83679580Y-111308333D02*
X83727200Y-111355952D01*
X83727200Y-111355952D02*
X83774819Y-111451190D01*
X83774819Y-111451190D02*
X83774819Y-111546428D01*
X83774819Y-111546428D02*
X83727200Y-111641666D01*
X83727200Y-111641666D02*
X83679580Y-111689285D01*
X83679580Y-111689285D02*
X83584342Y-111736904D01*
X83584342Y-111736904D02*
X83393866Y-111784523D01*
X83393866Y-111784523D02*
X83155771Y-111784523D01*
X83155771Y-111784523D02*
X82965295Y-111736904D01*
X82965295Y-111736904D02*
X82870057Y-111689285D01*
X82870057Y-111689285D02*
X82822438Y-111641666D01*
X82822438Y-111641666D02*
X82774819Y-111546428D01*
X99470380Y-138056857D02*
X99518000Y-138104476D01*
X99518000Y-138104476D02*
X99565619Y-138247333D01*
X99565619Y-138247333D02*
X99565619Y-138342571D01*
X99565619Y-138342571D02*
X99518000Y-138485428D01*
X99518000Y-138485428D02*
X99422761Y-138580666D01*
X99422761Y-138580666D02*
X99327523Y-138628285D01*
X99327523Y-138628285D02*
X99137047Y-138675904D01*
X99137047Y-138675904D02*
X98994190Y-138675904D01*
X98994190Y-138675904D02*
X98803714Y-138628285D01*
X98803714Y-138628285D02*
X98708476Y-138580666D01*
X98708476Y-138580666D02*
X98613238Y-138485428D01*
X98613238Y-138485428D02*
X98565619Y-138342571D01*
X98565619Y-138342571D02*
X98565619Y-138247333D01*
X98565619Y-138247333D02*
X98613238Y-138104476D01*
X98613238Y-138104476D02*
X98660857Y-138056857D01*
X98660857Y-137675904D02*
X98613238Y-137628285D01*
X98613238Y-137628285D02*
X98565619Y-137533047D01*
X98565619Y-137533047D02*
X98565619Y-137294952D01*
X98565619Y-137294952D02*
X98613238Y-137199714D01*
X98613238Y-137199714D02*
X98660857Y-137152095D01*
X98660857Y-137152095D02*
X98756095Y-137104476D01*
X98756095Y-137104476D02*
X98851333Y-137104476D01*
X98851333Y-137104476D02*
X98994190Y-137152095D01*
X98994190Y-137152095D02*
X99565619Y-137723523D01*
X99565619Y-137723523D02*
X99565619Y-137104476D01*
X98565619Y-136199714D02*
X98565619Y-136675904D01*
X98565619Y-136675904D02*
X99041809Y-136723523D01*
X99041809Y-136723523D02*
X98994190Y-136675904D01*
X98994190Y-136675904D02*
X98946571Y-136580666D01*
X98946571Y-136580666D02*
X98946571Y-136342571D01*
X98946571Y-136342571D02*
X98994190Y-136247333D01*
X98994190Y-136247333D02*
X99041809Y-136199714D01*
X99041809Y-136199714D02*
X99137047Y-136152095D01*
X99137047Y-136152095D02*
X99375142Y-136152095D01*
X99375142Y-136152095D02*
X99470380Y-136199714D01*
X99470380Y-136199714D02*
X99518000Y-136247333D01*
X99518000Y-136247333D02*
X99565619Y-136342571D01*
X99565619Y-136342571D02*
X99565619Y-136580666D01*
X99565619Y-136580666D02*
X99518000Y-136675904D01*
X99518000Y-136675904D02*
X99470380Y-136723523D01*
X113563095Y-124089819D02*
X113563095Y-124899342D01*
X113563095Y-124899342D02*
X113610714Y-124994580D01*
X113610714Y-124994580D02*
X113658333Y-125042200D01*
X113658333Y-125042200D02*
X113753571Y-125089819D01*
X113753571Y-125089819D02*
X113944047Y-125089819D01*
X113944047Y-125089819D02*
X114039285Y-125042200D01*
X114039285Y-125042200D02*
X114086904Y-124994580D01*
X114086904Y-124994580D02*
X114134523Y-124899342D01*
X114134523Y-124899342D02*
X114134523Y-124089819D01*
X114563095Y-124185057D02*
X114610714Y-124137438D01*
X114610714Y-124137438D02*
X114705952Y-124089819D01*
X114705952Y-124089819D02*
X114944047Y-124089819D01*
X114944047Y-124089819D02*
X115039285Y-124137438D01*
X115039285Y-124137438D02*
X115086904Y-124185057D01*
X115086904Y-124185057D02*
X115134523Y-124280295D01*
X115134523Y-124280295D02*
X115134523Y-124375533D01*
X115134523Y-124375533D02*
X115086904Y-124518390D01*
X115086904Y-124518390D02*
X114515476Y-125089819D01*
X114515476Y-125089819D02*
X115134523Y-125089819D01*
X117974257Y-100069638D02*
X117926638Y-100164876D01*
X117926638Y-100164876D02*
X117831400Y-100260114D01*
X117831400Y-100260114D02*
X117688542Y-100402971D01*
X117688542Y-100402971D02*
X117640923Y-100498209D01*
X117640923Y-100498209D02*
X117640923Y-100593447D01*
X117879019Y-100545828D02*
X117831400Y-100641066D01*
X117831400Y-100641066D02*
X117736161Y-100736304D01*
X117736161Y-100736304D02*
X117545685Y-100783923D01*
X117545685Y-100783923D02*
X117212352Y-100783923D01*
X117212352Y-100783923D02*
X117021876Y-100736304D01*
X117021876Y-100736304D02*
X116926638Y-100641066D01*
X116926638Y-100641066D02*
X116879019Y-100545828D01*
X116879019Y-100545828D02*
X116879019Y-100355352D01*
X116879019Y-100355352D02*
X116926638Y-100260114D01*
X116926638Y-100260114D02*
X117021876Y-100164876D01*
X117021876Y-100164876D02*
X117212352Y-100117257D01*
X117212352Y-100117257D02*
X117545685Y-100117257D01*
X117545685Y-100117257D02*
X117736161Y-100164876D01*
X117736161Y-100164876D02*
X117831400Y-100260114D01*
X117831400Y-100260114D02*
X117879019Y-100355352D01*
X117879019Y-100355352D02*
X117879019Y-100545828D01*
X117879019Y-99164876D02*
X117879019Y-99736304D01*
X117879019Y-99450590D02*
X116879019Y-99450590D01*
X116879019Y-99450590D02*
X117021876Y-99545828D01*
X117021876Y-99545828D02*
X117117114Y-99641066D01*
X117117114Y-99641066D02*
X117164733Y-99736304D01*
X59236835Y-144204863D02*
X59236835Y-143204769D01*
X59808317Y-144204863D02*
X59379706Y-143633381D01*
X59808317Y-143204769D02*
X59236835Y-143776251D01*
X60760788Y-144204863D02*
X60189306Y-144204863D01*
X60475047Y-144204863D02*
X60475047Y-143204769D01*
X60475047Y-143204769D02*
X60379800Y-143347640D01*
X60379800Y-143347640D02*
X60284553Y-143442887D01*
X60284553Y-143442887D02*
X60189306Y-143490510D01*
X43103895Y-160246619D02*
X43103895Y-159246619D01*
X43103895Y-159722809D02*
X43675323Y-159722809D01*
X43675323Y-160246619D02*
X43675323Y-159246619D01*
X44580085Y-159579952D02*
X44580085Y-160246619D01*
X44341990Y-159199000D02*
X44103895Y-159913285D01*
X44103895Y-159913285D02*
X44722942Y-159913285D01*
X80233333Y-126734819D02*
X79900000Y-126258628D01*
X79661905Y-126734819D02*
X79661905Y-125734819D01*
X79661905Y-125734819D02*
X80042857Y-125734819D01*
X80042857Y-125734819D02*
X80138095Y-125782438D01*
X80138095Y-125782438D02*
X80185714Y-125830057D01*
X80185714Y-125830057D02*
X80233333Y-125925295D01*
X80233333Y-125925295D02*
X80233333Y-126068152D01*
X80233333Y-126068152D02*
X80185714Y-126163390D01*
X80185714Y-126163390D02*
X80138095Y-126211009D01*
X80138095Y-126211009D02*
X80042857Y-126258628D01*
X80042857Y-126258628D02*
X79661905Y-126258628D01*
X81138095Y-125734819D02*
X80661905Y-125734819D01*
X80661905Y-125734819D02*
X80614286Y-126211009D01*
X80614286Y-126211009D02*
X80661905Y-126163390D01*
X80661905Y-126163390D02*
X80757143Y-126115771D01*
X80757143Y-126115771D02*
X80995238Y-126115771D01*
X80995238Y-126115771D02*
X81090476Y-126163390D01*
X81090476Y-126163390D02*
X81138095Y-126211009D01*
X81138095Y-126211009D02*
X81185714Y-126306247D01*
X81185714Y-126306247D02*
X81185714Y-126544342D01*
X81185714Y-126544342D02*
X81138095Y-126639580D01*
X81138095Y-126639580D02*
X81090476Y-126687200D01*
X81090476Y-126687200D02*
X80995238Y-126734819D01*
X80995238Y-126734819D02*
X80757143Y-126734819D01*
X80757143Y-126734819D02*
X80661905Y-126687200D01*
X80661905Y-126687200D02*
X80614286Y-126639580D01*
X118357142Y-108634819D02*
X118023809Y-108158628D01*
X117785714Y-108634819D02*
X117785714Y-107634819D01*
X117785714Y-107634819D02*
X118166666Y-107634819D01*
X118166666Y-107634819D02*
X118261904Y-107682438D01*
X118261904Y-107682438D02*
X118309523Y-107730057D01*
X118309523Y-107730057D02*
X118357142Y-107825295D01*
X118357142Y-107825295D02*
X118357142Y-107968152D01*
X118357142Y-107968152D02*
X118309523Y-108063390D01*
X118309523Y-108063390D02*
X118261904Y-108111009D01*
X118261904Y-108111009D02*
X118166666Y-108158628D01*
X118166666Y-108158628D02*
X117785714Y-108158628D01*
X119309523Y-108634819D02*
X118738095Y-108634819D01*
X119023809Y-108634819D02*
X119023809Y-107634819D01*
X119023809Y-107634819D02*
X118928571Y-107777676D01*
X118928571Y-107777676D02*
X118833333Y-107872914D01*
X118833333Y-107872914D02*
X118738095Y-107920533D01*
X120214285Y-107634819D02*
X119738095Y-107634819D01*
X119738095Y-107634819D02*
X119690476Y-108111009D01*
X119690476Y-108111009D02*
X119738095Y-108063390D01*
X119738095Y-108063390D02*
X119833333Y-108015771D01*
X119833333Y-108015771D02*
X120071428Y-108015771D01*
X120071428Y-108015771D02*
X120166666Y-108063390D01*
X120166666Y-108063390D02*
X120214285Y-108111009D01*
X120214285Y-108111009D02*
X120261904Y-108206247D01*
X120261904Y-108206247D02*
X120261904Y-108444342D01*
X120261904Y-108444342D02*
X120214285Y-108539580D01*
X120214285Y-108539580D02*
X120166666Y-108587200D01*
X120166666Y-108587200D02*
X120071428Y-108634819D01*
X120071428Y-108634819D02*
X119833333Y-108634819D01*
X119833333Y-108634819D02*
X119738095Y-108587200D01*
X119738095Y-108587200D02*
X119690476Y-108539580D01*
X75333333Y-163004819D02*
X74857143Y-163004819D01*
X74857143Y-163004819D02*
X74857143Y-162004819D01*
X76190476Y-163004819D02*
X75619048Y-163004819D01*
X75904762Y-163004819D02*
X75904762Y-162004819D01*
X75904762Y-162004819D02*
X75809524Y-162147676D01*
X75809524Y-162147676D02*
X75714286Y-162242914D01*
X75714286Y-162242914D02*
X75619048Y-162290533D01*
X99004780Y-134170657D02*
X99052400Y-134218276D01*
X99052400Y-134218276D02*
X99100019Y-134361133D01*
X99100019Y-134361133D02*
X99100019Y-134456371D01*
X99100019Y-134456371D02*
X99052400Y-134599228D01*
X99052400Y-134599228D02*
X98957161Y-134694466D01*
X98957161Y-134694466D02*
X98861923Y-134742085D01*
X98861923Y-134742085D02*
X98671447Y-134789704D01*
X98671447Y-134789704D02*
X98528590Y-134789704D01*
X98528590Y-134789704D02*
X98338114Y-134742085D01*
X98338114Y-134742085D02*
X98242876Y-134694466D01*
X98242876Y-134694466D02*
X98147638Y-134599228D01*
X98147638Y-134599228D02*
X98100019Y-134456371D01*
X98100019Y-134456371D02*
X98100019Y-134361133D01*
X98100019Y-134361133D02*
X98147638Y-134218276D01*
X98147638Y-134218276D02*
X98195257Y-134170657D01*
X98195257Y-133789704D02*
X98147638Y-133742085D01*
X98147638Y-133742085D02*
X98100019Y-133646847D01*
X98100019Y-133646847D02*
X98100019Y-133408752D01*
X98100019Y-133408752D02*
X98147638Y-133313514D01*
X98147638Y-133313514D02*
X98195257Y-133265895D01*
X98195257Y-133265895D02*
X98290495Y-133218276D01*
X98290495Y-133218276D02*
X98385733Y-133218276D01*
X98385733Y-133218276D02*
X98528590Y-133265895D01*
X98528590Y-133265895D02*
X99100019Y-133837323D01*
X99100019Y-133837323D02*
X99100019Y-133218276D01*
X98100019Y-132884942D02*
X98100019Y-132218276D01*
X98100019Y-132218276D02*
X99100019Y-132646847D01*
X84234819Y-118117857D02*
X83758628Y-118451190D01*
X84234819Y-118689285D02*
X83234819Y-118689285D01*
X83234819Y-118689285D02*
X83234819Y-118308333D01*
X83234819Y-118308333D02*
X83282438Y-118213095D01*
X83282438Y-118213095D02*
X83330057Y-118165476D01*
X83330057Y-118165476D02*
X83425295Y-118117857D01*
X83425295Y-118117857D02*
X83568152Y-118117857D01*
X83568152Y-118117857D02*
X83663390Y-118165476D01*
X83663390Y-118165476D02*
X83711009Y-118213095D01*
X83711009Y-118213095D02*
X83758628Y-118308333D01*
X83758628Y-118308333D02*
X83758628Y-118689285D01*
X84234819Y-117165476D02*
X84234819Y-117736904D01*
X84234819Y-117451190D02*
X83234819Y-117451190D01*
X83234819Y-117451190D02*
X83377676Y-117546428D01*
X83377676Y-117546428D02*
X83472914Y-117641666D01*
X83472914Y-117641666D02*
X83520533Y-117736904D01*
X84234819Y-116213095D02*
X84234819Y-116784523D01*
X84234819Y-116498809D02*
X83234819Y-116498809D01*
X83234819Y-116498809D02*
X83377676Y-116594047D01*
X83377676Y-116594047D02*
X83472914Y-116689285D01*
X83472914Y-116689285D02*
X83520533Y-116784523D01*
X113319642Y-108634819D02*
X112986309Y-108158628D01*
X112748214Y-108634819D02*
X112748214Y-107634819D01*
X112748214Y-107634819D02*
X113129166Y-107634819D01*
X113129166Y-107634819D02*
X113224404Y-107682438D01*
X113224404Y-107682438D02*
X113272023Y-107730057D01*
X113272023Y-107730057D02*
X113319642Y-107825295D01*
X113319642Y-107825295D02*
X113319642Y-107968152D01*
X113319642Y-107968152D02*
X113272023Y-108063390D01*
X113272023Y-108063390D02*
X113224404Y-108111009D01*
X113224404Y-108111009D02*
X113129166Y-108158628D01*
X113129166Y-108158628D02*
X112748214Y-108158628D01*
X114272023Y-108634819D02*
X113700595Y-108634819D01*
X113986309Y-108634819D02*
X113986309Y-107634819D01*
X113986309Y-107634819D02*
X113891071Y-107777676D01*
X113891071Y-107777676D02*
X113795833Y-107872914D01*
X113795833Y-107872914D02*
X113700595Y-107920533D01*
X115129166Y-107968152D02*
X115129166Y-108634819D01*
X114891071Y-107587200D02*
X114652976Y-108301485D01*
X114652976Y-108301485D02*
X115272023Y-108301485D01*
X138209580Y-176642857D02*
X138257200Y-176690476D01*
X138257200Y-176690476D02*
X138304819Y-176833333D01*
X138304819Y-176833333D02*
X138304819Y-176928571D01*
X138304819Y-176928571D02*
X138257200Y-177071428D01*
X138257200Y-177071428D02*
X138161961Y-177166666D01*
X138161961Y-177166666D02*
X138066723Y-177214285D01*
X138066723Y-177214285D02*
X137876247Y-177261904D01*
X137876247Y-177261904D02*
X137733390Y-177261904D01*
X137733390Y-177261904D02*
X137542914Y-177214285D01*
X137542914Y-177214285D02*
X137447676Y-177166666D01*
X137447676Y-177166666D02*
X137352438Y-177071428D01*
X137352438Y-177071428D02*
X137304819Y-176928571D01*
X137304819Y-176928571D02*
X137304819Y-176833333D01*
X137304819Y-176833333D02*
X137352438Y-176690476D01*
X137352438Y-176690476D02*
X137400057Y-176642857D01*
X138304819Y-175690476D02*
X138304819Y-176261904D01*
X138304819Y-175976190D02*
X137304819Y-175976190D01*
X137304819Y-175976190D02*
X137447676Y-176071428D01*
X137447676Y-176071428D02*
X137542914Y-176166666D01*
X137542914Y-176166666D02*
X137590533Y-176261904D01*
X137400057Y-175309523D02*
X137352438Y-175261904D01*
X137352438Y-175261904D02*
X137304819Y-175166666D01*
X137304819Y-175166666D02*
X137304819Y-174928571D01*
X137304819Y-174928571D02*
X137352438Y-174833333D01*
X137352438Y-174833333D02*
X137400057Y-174785714D01*
X137400057Y-174785714D02*
X137495295Y-174738095D01*
X137495295Y-174738095D02*
X137590533Y-174738095D01*
X137590533Y-174738095D02*
X137733390Y-174785714D01*
X137733390Y-174785714D02*
X138304819Y-175357142D01*
X138304819Y-175357142D02*
X138304819Y-174738095D01*
X108894642Y-131709580D02*
X108847023Y-131757200D01*
X108847023Y-131757200D02*
X108704166Y-131804819D01*
X108704166Y-131804819D02*
X108608928Y-131804819D01*
X108608928Y-131804819D02*
X108466071Y-131757200D01*
X108466071Y-131757200D02*
X108370833Y-131661961D01*
X108370833Y-131661961D02*
X108323214Y-131566723D01*
X108323214Y-131566723D02*
X108275595Y-131376247D01*
X108275595Y-131376247D02*
X108275595Y-131233390D01*
X108275595Y-131233390D02*
X108323214Y-131042914D01*
X108323214Y-131042914D02*
X108370833Y-130947676D01*
X108370833Y-130947676D02*
X108466071Y-130852438D01*
X108466071Y-130852438D02*
X108608928Y-130804819D01*
X108608928Y-130804819D02*
X108704166Y-130804819D01*
X108704166Y-130804819D02*
X108847023Y-130852438D01*
X108847023Y-130852438D02*
X108894642Y-130900057D01*
X109275595Y-130900057D02*
X109323214Y-130852438D01*
X109323214Y-130852438D02*
X109418452Y-130804819D01*
X109418452Y-130804819D02*
X109656547Y-130804819D01*
X109656547Y-130804819D02*
X109751785Y-130852438D01*
X109751785Y-130852438D02*
X109799404Y-130900057D01*
X109799404Y-130900057D02*
X109847023Y-130995295D01*
X109847023Y-130995295D02*
X109847023Y-131090533D01*
X109847023Y-131090533D02*
X109799404Y-131233390D01*
X109799404Y-131233390D02*
X109227976Y-131804819D01*
X109227976Y-131804819D02*
X109847023Y-131804819D01*
X110180357Y-130804819D02*
X110799404Y-130804819D01*
X110799404Y-130804819D02*
X110466071Y-131185771D01*
X110466071Y-131185771D02*
X110608928Y-131185771D01*
X110608928Y-131185771D02*
X110704166Y-131233390D01*
X110704166Y-131233390D02*
X110751785Y-131281009D01*
X110751785Y-131281009D02*
X110799404Y-131376247D01*
X110799404Y-131376247D02*
X110799404Y-131614342D01*
X110799404Y-131614342D02*
X110751785Y-131709580D01*
X110751785Y-131709580D02*
X110704166Y-131757200D01*
X110704166Y-131757200D02*
X110608928Y-131804819D01*
X110608928Y-131804819D02*
X110323214Y-131804819D01*
X110323214Y-131804819D02*
X110227976Y-131757200D01*
X110227976Y-131757200D02*
X110180357Y-131709580D01*
X122032733Y-118556019D02*
X121699400Y-118079828D01*
X121461305Y-118556019D02*
X121461305Y-117556019D01*
X121461305Y-117556019D02*
X121842257Y-117556019D01*
X121842257Y-117556019D02*
X121937495Y-117603638D01*
X121937495Y-117603638D02*
X121985114Y-117651257D01*
X121985114Y-117651257D02*
X122032733Y-117746495D01*
X122032733Y-117746495D02*
X122032733Y-117889352D01*
X122032733Y-117889352D02*
X121985114Y-117984590D01*
X121985114Y-117984590D02*
X121937495Y-118032209D01*
X121937495Y-118032209D02*
X121842257Y-118079828D01*
X121842257Y-118079828D02*
X121461305Y-118079828D01*
X122604162Y-117984590D02*
X122508924Y-117936971D01*
X122508924Y-117936971D02*
X122461305Y-117889352D01*
X122461305Y-117889352D02*
X122413686Y-117794114D01*
X122413686Y-117794114D02*
X122413686Y-117746495D01*
X122413686Y-117746495D02*
X122461305Y-117651257D01*
X122461305Y-117651257D02*
X122508924Y-117603638D01*
X122508924Y-117603638D02*
X122604162Y-117556019D01*
X122604162Y-117556019D02*
X122794638Y-117556019D01*
X122794638Y-117556019D02*
X122889876Y-117603638D01*
X122889876Y-117603638D02*
X122937495Y-117651257D01*
X122937495Y-117651257D02*
X122985114Y-117746495D01*
X122985114Y-117746495D02*
X122985114Y-117794114D01*
X122985114Y-117794114D02*
X122937495Y-117889352D01*
X122937495Y-117889352D02*
X122889876Y-117936971D01*
X122889876Y-117936971D02*
X122794638Y-117984590D01*
X122794638Y-117984590D02*
X122604162Y-117984590D01*
X122604162Y-117984590D02*
X122508924Y-118032209D01*
X122508924Y-118032209D02*
X122461305Y-118079828D01*
X122461305Y-118079828D02*
X122413686Y-118175066D01*
X122413686Y-118175066D02*
X122413686Y-118365542D01*
X122413686Y-118365542D02*
X122461305Y-118460780D01*
X122461305Y-118460780D02*
X122508924Y-118508400D01*
X122508924Y-118508400D02*
X122604162Y-118556019D01*
X122604162Y-118556019D02*
X122794638Y-118556019D01*
X122794638Y-118556019D02*
X122889876Y-118508400D01*
X122889876Y-118508400D02*
X122937495Y-118460780D01*
X122937495Y-118460780D02*
X122985114Y-118365542D01*
X122985114Y-118365542D02*
X122985114Y-118175066D01*
X122985114Y-118175066D02*
X122937495Y-118079828D01*
X122937495Y-118079828D02*
X122889876Y-118032209D01*
X122889876Y-118032209D02*
X122794638Y-117984590D01*
X93432142Y-107929580D02*
X93384523Y-107977200D01*
X93384523Y-107977200D02*
X93241666Y-108024819D01*
X93241666Y-108024819D02*
X93146428Y-108024819D01*
X93146428Y-108024819D02*
X93003571Y-107977200D01*
X93003571Y-107977200D02*
X92908333Y-107881961D01*
X92908333Y-107881961D02*
X92860714Y-107786723D01*
X92860714Y-107786723D02*
X92813095Y-107596247D01*
X92813095Y-107596247D02*
X92813095Y-107453390D01*
X92813095Y-107453390D02*
X92860714Y-107262914D01*
X92860714Y-107262914D02*
X92908333Y-107167676D01*
X92908333Y-107167676D02*
X93003571Y-107072438D01*
X93003571Y-107072438D02*
X93146428Y-107024819D01*
X93146428Y-107024819D02*
X93241666Y-107024819D01*
X93241666Y-107024819D02*
X93384523Y-107072438D01*
X93384523Y-107072438D02*
X93432142Y-107120057D01*
X94384523Y-108024819D02*
X93813095Y-108024819D01*
X94098809Y-108024819D02*
X94098809Y-107024819D01*
X94098809Y-107024819D02*
X94003571Y-107167676D01*
X94003571Y-107167676D02*
X93908333Y-107262914D01*
X93908333Y-107262914D02*
X93813095Y-107310533D01*
X94860714Y-108024819D02*
X95051190Y-108024819D01*
X95051190Y-108024819D02*
X95146428Y-107977200D01*
X95146428Y-107977200D02*
X95194047Y-107929580D01*
X95194047Y-107929580D02*
X95289285Y-107786723D01*
X95289285Y-107786723D02*
X95336904Y-107596247D01*
X95336904Y-107596247D02*
X95336904Y-107215295D01*
X95336904Y-107215295D02*
X95289285Y-107120057D01*
X95289285Y-107120057D02*
X95241666Y-107072438D01*
X95241666Y-107072438D02*
X95146428Y-107024819D01*
X95146428Y-107024819D02*
X94955952Y-107024819D01*
X94955952Y-107024819D02*
X94860714Y-107072438D01*
X94860714Y-107072438D02*
X94813095Y-107120057D01*
X94813095Y-107120057D02*
X94765476Y-107215295D01*
X94765476Y-107215295D02*
X94765476Y-107453390D01*
X94765476Y-107453390D02*
X94813095Y-107548628D01*
X94813095Y-107548628D02*
X94860714Y-107596247D01*
X94860714Y-107596247D02*
X94955952Y-107643866D01*
X94955952Y-107643866D02*
X95146428Y-107643866D01*
X95146428Y-107643866D02*
X95241666Y-107596247D01*
X95241666Y-107596247D02*
X95289285Y-107548628D01*
X95289285Y-107548628D02*
X95336904Y-107453390D01*
X52274819Y-163214285D02*
X51274819Y-163214285D01*
X51274819Y-163214285D02*
X51274819Y-162976190D01*
X51274819Y-162976190D02*
X51322438Y-162833333D01*
X51322438Y-162833333D02*
X51417676Y-162738095D01*
X51417676Y-162738095D02*
X51512914Y-162690476D01*
X51512914Y-162690476D02*
X51703390Y-162642857D01*
X51703390Y-162642857D02*
X51846247Y-162642857D01*
X51846247Y-162642857D02*
X52036723Y-162690476D01*
X52036723Y-162690476D02*
X52131961Y-162738095D01*
X52131961Y-162738095D02*
X52227200Y-162833333D01*
X52227200Y-162833333D02*
X52274819Y-162976190D01*
X52274819Y-162976190D02*
X52274819Y-163214285D01*
X52274819Y-161690476D02*
X52274819Y-162261904D01*
X52274819Y-161976190D02*
X51274819Y-161976190D01*
X51274819Y-161976190D02*
X51417676Y-162071428D01*
X51417676Y-162071428D02*
X51512914Y-162166666D01*
X51512914Y-162166666D02*
X51560533Y-162261904D01*
X51274819Y-161357142D02*
X51274819Y-160738095D01*
X51274819Y-160738095D02*
X51655771Y-161071428D01*
X51655771Y-161071428D02*
X51655771Y-160928571D01*
X51655771Y-160928571D02*
X51703390Y-160833333D01*
X51703390Y-160833333D02*
X51751009Y-160785714D01*
X51751009Y-160785714D02*
X51846247Y-160738095D01*
X51846247Y-160738095D02*
X52084342Y-160738095D01*
X52084342Y-160738095D02*
X52179580Y-160785714D01*
X52179580Y-160785714D02*
X52227200Y-160833333D01*
X52227200Y-160833333D02*
X52274819Y-160928571D01*
X52274819Y-160928571D02*
X52274819Y-161214285D01*
X52274819Y-161214285D02*
X52227200Y-161309523D01*
X52227200Y-161309523D02*
X52179580Y-161357142D01*
D13*
%TO.C,R26*%
X116460837Y-94479200D02*
X115013363Y-94479200D01*
X116460837Y-97189200D02*
X115013363Y-97189200D01*
%TO.C,L2*%
X125200000Y-164300000D02*
X131800000Y-164300000D01*
X125200000Y-166000000D02*
X125200000Y-164300000D01*
X125200000Y-170700000D02*
X125200000Y-169000000D01*
X131800000Y-164300000D02*
X131800000Y-166000000D01*
X131800000Y-169000000D02*
X131800000Y-170700000D01*
X131800000Y-170700000D02*
X125200000Y-170700000D01*
%TO.C,R10*%
X81628737Y-89355000D02*
X80181263Y-89355000D01*
X81628737Y-86645000D02*
X80181263Y-86645000D01*
D14*
%TO.C,K3*%
X69550000Y-100250000D02*
X50450000Y-100250000D01*
X69550000Y-84750000D02*
X69550000Y-100250000D01*
X50450000Y-100250000D02*
X50450000Y-84750000D01*
X50450000Y-84750000D02*
X69550000Y-84750000D01*
D10*
X70300000Y-98619000D02*
G75*
G03*
X70100000Y-98619000I-100000J0D01*
G01*
X70100000Y-98619000D02*
G75*
G03*
X70300000Y-98619000I100000J0D01*
G01*
D13*
%TO.C,C10*%
X82390900Y-170611700D02*
X82390900Y-171399200D01*
X82784650Y-171005450D02*
X81997150Y-171005450D01*
X82888963Y-171639200D02*
X81603400Y-171639200D01*
X82888963Y-171639200D02*
X83953400Y-172703637D01*
X78197837Y-171639200D02*
X79483400Y-171639200D01*
X78197837Y-171639200D02*
X77133400Y-172703637D01*
X83953400Y-172703637D02*
X83953400Y-178459200D01*
X77133400Y-172703637D02*
X77133400Y-178459200D01*
X83953400Y-178459200D02*
X81603400Y-178459200D01*
X77133400Y-178459200D02*
X79483400Y-178459200D01*
%TO.C,R2*%
X111776263Y-99045000D02*
X113223737Y-99045000D01*
X111776263Y-101755000D02*
X113223737Y-101755000D01*
%TO.C,C20*%
X120645600Y-146335636D02*
X120645600Y-146119964D01*
X121365600Y-146335636D02*
X121365600Y-146119964D01*
%TO.C,R19*%
X48645000Y-157723737D02*
X48645000Y-156276263D01*
X51355000Y-157723737D02*
X51355000Y-156276263D01*
%TO.C,D4*%
X73150000Y-133110000D02*
X74850000Y-133110000D01*
X73150000Y-133110000D02*
X73150000Y-130450000D01*
X74850000Y-133110000D02*
X74850000Y-130450000D01*
%TO.C,C8*%
X122271200Y-146335636D02*
X122271200Y-146119964D01*
X122991200Y-146335636D02*
X122991200Y-146119964D01*
%TO.C,D7*%
X90185000Y-165835000D02*
X90185000Y-160165000D01*
X90185000Y-160165000D02*
X81500000Y-160165000D01*
X81500000Y-165835000D02*
X90185000Y-165835000D01*
%TO.C,D2*%
X73650000Y-150110000D02*
X75350000Y-150110000D01*
X73650000Y-150110000D02*
X73650000Y-147450000D01*
X75350000Y-150110000D02*
X75350000Y-147450000D01*
%TO.C,F2*%
X104048779Y-165991000D02*
X103723221Y-165991000D01*
X104048779Y-164971000D02*
X103723221Y-164971000D01*
%TO.C,R9*%
X82360000Y-99776263D02*
X82360000Y-101223737D01*
X79650000Y-99776263D02*
X79650000Y-101223737D01*
%TO.C,R7*%
X124348864Y-120645600D02*
X122894736Y-120645600D01*
X124348864Y-118825600D02*
X122894736Y-118825600D01*
%TO.C,R20*%
X135145000Y-158623737D02*
X135145000Y-157176263D01*
X137855000Y-158623737D02*
X137855000Y-157176263D01*
%TO.C,C1*%
X126547400Y-118149000D02*
X126547400Y-117149000D01*
X126047400Y-117649000D02*
X127047400Y-117649000D01*
X125861837Y-116909000D02*
X127547400Y-116909000D01*
X125861837Y-116909000D02*
X124797400Y-115844563D01*
X132252963Y-116909000D02*
X130567400Y-116909000D01*
X132252963Y-116909000D02*
X133317400Y-115844563D01*
X124797400Y-115844563D02*
X124797400Y-108389000D01*
X133317400Y-115844563D02*
X133317400Y-108389000D01*
X124797400Y-108389000D02*
X127547400Y-108389000D01*
X133317400Y-108389000D02*
X130567400Y-108389000D01*
D14*
%TO.C,Q4*%
X72849000Y-86405500D02*
X72849000Y-90594500D01*
X77048500Y-87713700D02*
G75*
G03*
X74246000Y-85845101I-2548480J-786300D01*
G01*
X74246000Y-85845100D02*
G75*
G03*
X72849000Y-86405400I253950J-2654900D01*
G01*
X72849001Y-90594498D02*
G75*
G03*
X77048400Y-89286299I1650989J2094488D01*
G01*
D13*
%TO.C,R13*%
X123243800Y-126354664D02*
X123243800Y-124800536D01*
X128063800Y-126354664D02*
X128063800Y-124800536D01*
%TO.C,C7*%
X125490000Y-145200000D02*
X125490000Y-144200000D01*
X124990000Y-144700000D02*
X125990000Y-144700000D01*
X124804437Y-143960000D02*
X126490000Y-143960000D01*
X124804437Y-143960000D02*
X123740000Y-142895563D01*
X131195563Y-143960000D02*
X129510000Y-143960000D01*
X131195563Y-143960000D02*
X132260000Y-142895563D01*
X123740000Y-142895563D02*
X123740000Y-135440000D01*
X132260000Y-142895563D02*
X132260000Y-135440000D01*
X123740000Y-135440000D02*
X126490000Y-135440000D01*
X132260000Y-135440000D02*
X129510000Y-135440000D01*
D14*
%TO.C,U5*%
X115200000Y-147170000D02*
X110800000Y-147170000D01*
X115200000Y-136830000D02*
X110800000Y-136830000D01*
D15*
X117340000Y-146535000D02*
G75*
G03*
X117140000Y-146535000I-100000J0D01*
G01*
X117140000Y-146535000D02*
G75*
G03*
X117340000Y-146535000I100000J0D01*
G01*
D13*
%TO.C,C24*%
X102235000Y-133188748D02*
X102235000Y-133711252D01*
X100765000Y-133188748D02*
X100765000Y-133711252D01*
%TO.C,C4*%
X121560000Y-123551836D02*
X121560000Y-123336164D01*
X122280000Y-123551836D02*
X122280000Y-123336164D01*
%TO.C,D12*%
X60320000Y-176500000D02*
X61620000Y-176500000D01*
X61620000Y-173715000D02*
X61620000Y-179285000D01*
X61620000Y-179285000D02*
X71380000Y-179285000D01*
X63048000Y-173715000D02*
X63048000Y-179285000D01*
X63168000Y-173715000D02*
X63168000Y-179285000D01*
X63288000Y-173715000D02*
X63288000Y-179285000D01*
X71380000Y-173715000D02*
X61620000Y-173715000D01*
X71380000Y-179285000D02*
X71380000Y-173715000D01*
X72680000Y-176500000D02*
X71380000Y-176500000D01*
%TO.C,D1*%
X81635000Y-146315000D02*
X79365000Y-146315000D01*
X79365000Y-146315000D02*
X79365000Y-150200000D01*
X81635000Y-150200000D02*
X81635000Y-146315000D01*
%TO.C,U6*%
X87950000Y-113660000D02*
X87950000Y-149340000D01*
X87950000Y-149340000D02*
X93250000Y-149340000D01*
X89600000Y-113660000D02*
X87950000Y-113660000D01*
X93250000Y-113660000D02*
X91600000Y-113660000D01*
X93250000Y-149340000D02*
X93250000Y-113660000D01*
X89600000Y-113660000D02*
G75*
G03*
X91600000Y-113660000I1000000J0D01*
G01*
%TO.C,D15*%
X137635000Y-161615000D02*
X135365000Y-161615000D01*
X135365000Y-161615000D02*
X135365000Y-165500000D01*
X137635000Y-165500000D02*
X137635000Y-161615000D01*
%TO.C,R1*%
X81955000Y-153376263D02*
X81955000Y-154823737D01*
X79245000Y-153376263D02*
X79245000Y-154823737D01*
%TO.C,D9*%
X73150000Y-99110000D02*
X74850000Y-99110000D01*
X73150000Y-99110000D02*
X73150000Y-96450000D01*
X74850000Y-99110000D02*
X74850000Y-96450000D01*
D14*
%TO.C,K4*%
X69550000Y-117250000D02*
X50450000Y-117250000D01*
X69550000Y-101750000D02*
X69550000Y-117250000D01*
X50450000Y-117250000D02*
X50450000Y-101750000D01*
X50450000Y-101750000D02*
X69550000Y-101750000D01*
D10*
X70300000Y-115619000D02*
G75*
G03*
X70100000Y-115619000I-100000J0D01*
G01*
X70100000Y-115619000D02*
G75*
G03*
X70300000Y-115619000I100000J0D01*
G01*
D14*
%TO.C,Q5*%
X72849000Y-106905500D02*
X72849000Y-111094500D01*
X77048500Y-108213700D02*
G75*
G03*
X74246000Y-106345101I-2548480J-786300D01*
G01*
X74246000Y-106345100D02*
G75*
G03*
X72849000Y-106905400I253950J-2654900D01*
G01*
X72849001Y-111094498D02*
G75*
G03*
X77048400Y-109786299I1650989J2094488D01*
G01*
D13*
%TO.C,D6*%
X95885000Y-163635000D02*
X95885000Y-161365000D01*
X95885000Y-161365000D02*
X92000000Y-161365000D01*
X92000000Y-163635000D02*
X95885000Y-163635000D01*
%TO.C,D11*%
X74150000Y-116110000D02*
X75850000Y-116110000D01*
X74150000Y-116110000D02*
X74150000Y-113450000D01*
X75850000Y-116110000D02*
X75850000Y-113450000D01*
%TO.C,C21*%
X119401000Y-147707236D02*
X119401000Y-147491564D01*
X120121000Y-147707236D02*
X120121000Y-147491564D01*
%TO.C,R12*%
X81223737Y-108355000D02*
X79776263Y-108355000D01*
X81223737Y-105645000D02*
X79776263Y-105645000D01*
%TO.C,R21*%
X89727064Y-109910000D02*
X88272936Y-109910000D01*
X89727064Y-108090000D02*
X88272936Y-108090000D01*
%TO.C,R6*%
X98491263Y-161145000D02*
X99938737Y-161145000D01*
X98491263Y-163855000D02*
X99938737Y-163855000D01*
D14*
%TO.C,K2*%
X69450000Y-134250000D02*
X50350000Y-134250000D01*
X69450000Y-118750000D02*
X69450000Y-134250000D01*
X50350000Y-134250000D02*
X50350000Y-118750000D01*
X50350000Y-118750000D02*
X69450000Y-118750000D01*
D10*
X70200000Y-132619000D02*
G75*
G03*
X70000000Y-132619000I-100000J0D01*
G01*
X70000000Y-132619000D02*
G75*
G03*
X70200000Y-132619000I100000J0D01*
G01*
D13*
%TO.C,R24*%
X118810436Y-132290000D02*
X120264564Y-132290000D01*
X118810436Y-134110000D02*
X120264564Y-134110000D01*
%TO.C,R18*%
X121227064Y-140610000D02*
X119772936Y-140610000D01*
X121227064Y-138790000D02*
X119772936Y-138790000D01*
%TO.C,U1*%
X108025000Y-164900000D02*
X108975000Y-164900000D01*
X108975000Y-164900000D02*
X108975000Y-170025000D01*
X117475000Y-164900000D02*
X117475000Y-166000000D01*
X118425000Y-164900000D02*
X117475000Y-164900000D01*
X108025000Y-163400000D02*
X108025000Y-164900000D01*
X118425000Y-163400000D02*
X118425000Y-164900000D01*
%TO.C,D8*%
X101836600Y-128319800D02*
X104106600Y-128319800D01*
X104106600Y-128319800D02*
X104106600Y-124434800D01*
X101836600Y-124434800D02*
X101836600Y-128319800D01*
%TO.C,C3*%
X125903400Y-122256436D02*
X125903400Y-122040764D01*
X126623400Y-122256436D02*
X126623400Y-122040764D01*
%TO.C,R22*%
X124005800Y-148935264D02*
X124005800Y-147381136D01*
X128825800Y-148935264D02*
X128825800Y-147381136D01*
%TO.C,D14*%
X111820000Y-175000000D02*
X113120000Y-175000000D01*
X113120000Y-172215000D02*
X113120000Y-177785000D01*
X113120000Y-177785000D02*
X122880000Y-177785000D01*
X114548000Y-172215000D02*
X114548000Y-177785000D01*
X114668000Y-172215000D02*
X114668000Y-177785000D01*
X114788000Y-172215000D02*
X114788000Y-177785000D01*
X122880000Y-172215000D02*
X113120000Y-172215000D01*
X122880000Y-177785000D02*
X122880000Y-172215000D01*
X124180000Y-175000000D02*
X122880000Y-175000000D01*
%TO.C,D5*%
X82140000Y-93215000D02*
X79870000Y-93215000D01*
X79870000Y-93215000D02*
X79870000Y-97100000D01*
X82140000Y-97100000D02*
X82140000Y-93215000D01*
%TO.C,R16*%
X107410000Y-117772936D02*
X107410000Y-119227064D01*
X105590000Y-117772936D02*
X105590000Y-119227064D01*
%TO.C,D3*%
X81535000Y-128215000D02*
X79265000Y-128215000D01*
X79265000Y-128215000D02*
X79265000Y-132100000D01*
X81535000Y-132100000D02*
X81535000Y-128215000D01*
D14*
%TO.C,Q3*%
X72249000Y-121905500D02*
X72249000Y-126094500D01*
X76448500Y-123213700D02*
G75*
G03*
X73646000Y-121345101I-2548480J-786300D01*
G01*
X73646000Y-121345100D02*
G75*
G03*
X72249000Y-121905400I253950J-2654900D01*
G01*
X72249001Y-126094498D02*
G75*
G03*
X76448400Y-124786299I1650989J2094488D01*
G01*
D13*
%TO.C,R3*%
X80723737Y-142855000D02*
X79276263Y-142855000D01*
X80723737Y-140145000D02*
X79276263Y-140145000D01*
%TO.C,R4*%
X81755000Y-134776263D02*
X81755000Y-136223737D01*
X79045000Y-134776263D02*
X79045000Y-136223737D01*
%TO.C,C5*%
X117214764Y-124176200D02*
X117430436Y-124176200D01*
X117214764Y-124896200D02*
X117430436Y-124896200D01*
%TO.C,R17*%
X121727064Y-144410000D02*
X120272936Y-144410000D01*
X121727064Y-142590000D02*
X120272936Y-142590000D01*
%TO.C,U4*%
X56800000Y-165825000D02*
X57750000Y-165825000D01*
X57750000Y-165825000D02*
X57750000Y-170950000D01*
X66250000Y-165825000D02*
X66250000Y-166925000D01*
X67200000Y-165825000D02*
X66250000Y-165825000D01*
X56800000Y-164325000D02*
X56800000Y-165825000D01*
X67200000Y-164325000D02*
X67200000Y-165825000D01*
D16*
%TO.C,C9*%
X42650000Y-168700000D02*
X42650000Y-172100000D01*
X42650000Y-168700000D02*
X44750000Y-166600000D01*
X42650000Y-173900000D02*
X42650000Y-177300000D01*
X42650000Y-177300000D02*
X44750000Y-179400000D01*
D17*
X43550000Y-170200000D02*
X46150000Y-170200000D01*
D16*
X44750000Y-166600000D02*
X55450000Y-166600000D01*
D17*
X44750000Y-168900000D02*
X44750000Y-171500000D01*
D16*
X44750000Y-179400000D02*
X55450000Y-179400000D01*
X55450000Y-166600000D02*
X55450000Y-172100000D01*
X55450000Y-173900000D02*
X55450000Y-179400000D01*
D13*
%TO.C,C22*%
X115893964Y-147518800D02*
X116109636Y-147518800D01*
X115893964Y-148238800D02*
X116109636Y-148238800D01*
%TO.C,F1*%
X76837221Y-158990000D02*
X77162779Y-158990000D01*
X76837221Y-160010000D02*
X77162779Y-160010000D01*
D14*
%TO.C,Q2*%
X72849000Y-139405500D02*
X72849000Y-143594500D01*
X77048500Y-140713700D02*
G75*
G03*
X74246000Y-138845101I-2548480J-786300D01*
G01*
X74246000Y-138845100D02*
G75*
G03*
X72849000Y-139405400I253950J-2654900D01*
G01*
X72849001Y-143594498D02*
G75*
G03*
X77048400Y-142286299I1650989J2094488D01*
G01*
D13*
%TO.C,R27*%
X97810436Y-124590000D02*
X99264564Y-124590000D01*
X97810436Y-126410000D02*
X99264564Y-126410000D01*
%TO.C,R25*%
X106727064Y-141910000D02*
X105272936Y-141910000D01*
X106727064Y-140090000D02*
X105272936Y-140090000D01*
%TO.C,C6*%
X108288748Y-109090000D02*
X109711252Y-109090000D01*
X108288748Y-110910000D02*
X109711252Y-110910000D01*
%TO.C,C26*%
X100765000Y-137711252D02*
X100765000Y-137188748D01*
X102235000Y-137711252D02*
X102235000Y-137188748D01*
%TO.C,R23*%
X113810436Y-132290000D02*
X115264564Y-132290000D01*
X113810436Y-134110000D02*
X115264564Y-134110000D01*
D16*
%TO.C,C11*%
X94200000Y-169200000D02*
X94200000Y-172600000D01*
X94200000Y-169200000D02*
X96300000Y-167100000D01*
X94200000Y-174400000D02*
X94200000Y-177800000D01*
X94200000Y-177800000D02*
X96300000Y-179900000D01*
D17*
X95100000Y-170700000D02*
X97700000Y-170700000D01*
D16*
X96300000Y-167100000D02*
X107000000Y-167100000D01*
D17*
X96300000Y-169400000D02*
X96300000Y-172000000D01*
D16*
X96300000Y-179900000D02*
X107000000Y-179900000D01*
X107000000Y-167100000D02*
X107000000Y-172600000D01*
X107000000Y-174400000D02*
X107000000Y-179900000D01*
D13*
%TO.C,D10*%
X82135000Y-110215000D02*
X79865000Y-110215000D01*
X79865000Y-110215000D02*
X79865000Y-114100000D01*
X82135000Y-114100000D02*
X82135000Y-110215000D01*
%TO.C,C25*%
X96765000Y-137661252D02*
X96765000Y-137138748D01*
X98235000Y-137661252D02*
X98235000Y-137138748D01*
D14*
%TO.C,U2*%
X116200000Y-123670000D02*
X111800000Y-123670000D01*
X116200000Y-113330000D02*
X111800000Y-113330000D01*
D15*
X118340000Y-123035000D02*
G75*
G03*
X118140000Y-123035000I-100000J0D01*
G01*
X118140000Y-123035000D02*
G75*
G03*
X118340000Y-123035000I100000J0D01*
G01*
D13*
%TO.C,Q1*%
X118175000Y-104020000D02*
X122816000Y-104020000D01*
X118175000Y-104020000D02*
X118175000Y-93780000D01*
X119685000Y-104020000D02*
X119685000Y-93780000D01*
X122816000Y-104020000D02*
X122816000Y-93780000D01*
X118175000Y-100750000D02*
X119685000Y-100750000D01*
X118175000Y-97049000D02*
X119685000Y-97049000D01*
X118175000Y-93780000D02*
X122816000Y-93780000D01*
D14*
%TO.C,K1*%
X69550000Y-151250000D02*
X50450000Y-151250000D01*
X69550000Y-135750000D02*
X69550000Y-151250000D01*
X50450000Y-151250000D02*
X50450000Y-135750000D01*
X50450000Y-135750000D02*
X69550000Y-135750000D01*
D10*
X70300000Y-149619000D02*
G75*
G03*
X70100000Y-149619000I-100000J0D01*
G01*
X70100000Y-149619000D02*
G75*
G03*
X70300000Y-149619000I100000J0D01*
G01*
D13*
%TO.C,R5*%
X81123737Y-125355000D02*
X79676263Y-125355000D01*
X81123737Y-122645000D02*
X79676263Y-122645000D01*
%TO.C,R15*%
X118272936Y-109090000D02*
X119727064Y-109090000D01*
X118272936Y-110910000D02*
X119727064Y-110910000D01*
%TO.C,L1*%
X72200000Y-163800000D02*
X78800000Y-163800000D01*
X72200000Y-165500000D02*
X72200000Y-163800000D01*
X72200000Y-170200000D02*
X72200000Y-168500000D01*
X78800000Y-163800000D02*
X78800000Y-165500000D01*
X78800000Y-168500000D02*
X78800000Y-170200000D01*
X78800000Y-170200000D02*
X72200000Y-170200000D01*
%TO.C,C27*%
X97845200Y-133419964D02*
X97845200Y-133635636D01*
X97125200Y-133419964D02*
X97125200Y-133635636D01*
%TO.C,C2*%
X123693600Y-122332636D02*
X123693600Y-122116964D01*
X124413600Y-122332636D02*
X124413600Y-122116964D01*
%TO.C,R11*%
X82355000Y-116776263D02*
X82355000Y-118223737D01*
X79645000Y-116776263D02*
X79645000Y-118223737D01*
%TO.C,R14*%
X113235436Y-109090000D02*
X114689564Y-109090000D01*
X113235436Y-110910000D02*
X114689564Y-110910000D01*
%TO.C,C12*%
X135347500Y-171562500D02*
X135347500Y-172350000D01*
X135741250Y-171956250D02*
X134953750Y-171956250D01*
X135845563Y-172590000D02*
X134560000Y-172590000D01*
X135845563Y-172590000D02*
X136910000Y-173654437D01*
X131154437Y-172590000D02*
X132440000Y-172590000D01*
X131154437Y-172590000D02*
X130090000Y-173654437D01*
X136910000Y-173654437D02*
X136910000Y-179410000D01*
X130090000Y-173654437D02*
X130090000Y-179410000D01*
X136910000Y-179410000D02*
X134560000Y-179410000D01*
X130090000Y-179410000D02*
X132440000Y-179410000D01*
%TO.C,C23*%
X108826248Y-132290000D02*
X110248752Y-132290000D01*
X108826248Y-134110000D02*
X110248752Y-134110000D01*
%TO.C,R8*%
X122926464Y-117191200D02*
X121472336Y-117191200D01*
X122926464Y-115371200D02*
X121472336Y-115371200D01*
%TO.C,C19*%
X93934420Y-108490000D02*
X94215580Y-108490000D01*
X93934420Y-109510000D02*
X94215580Y-109510000D01*
%TO.C,D13*%
X51135000Y-159715000D02*
X48865000Y-159715000D01*
X48865000Y-159715000D02*
X48865000Y-163600000D01*
X51135000Y-163600000D02*
X51135000Y-159715000D01*
%TD*%
M02*
