%TF.GenerationSoftware,KiCad,Pcbnew,7.0.10*%
%TF.CreationDate,2024-08-08T13:18:15-05:00*%
%TF.ProjectId,river_sampler,72697665-725f-4736-916d-706c65722e6b,rev?*%
%TF.SameCoordinates,Original*%
%TF.FileFunction,Copper,L1,Top*%
%TF.FilePolarity,Positive*%
%FSLAX46Y46*%
G04 Gerber Fmt 4.6, Leading zero omitted, Abs format (unit mm)*
G04 Created by KiCad (PCBNEW 7.0.10) date 2024-08-08 13:18:15*
%MOMM*%
%LPD*%
G01*
G04 APERTURE LIST*
G04 Aperture macros list*
%AMRoundRect*
0 Rectangle with rounded corners*
0 $1 Rounding radius*
0 $2 $3 $4 $5 $6 $7 $8 $9 X,Y pos of 4 corners*
0 Add a 4 corners polygon primitive as box body*
4,1,4,$2,$3,$4,$5,$6,$7,$8,$9,$2,$3,0*
0 Add four circle primitives for the rounded corners*
1,1,$1+$1,$2,$3*
1,1,$1+$1,$4,$5*
1,1,$1+$1,$6,$7*
1,1,$1+$1,$8,$9*
0 Add four rect primitives between the rounded corners*
20,1,$1+$1,$2,$3,$4,$5,0*
20,1,$1+$1,$4,$5,$6,$7,0*
20,1,$1+$1,$6,$7,$8,$9,0*
20,1,$1+$1,$8,$9,$2,$3,0*%
G04 Aperture macros list end*
%TA.AperFunction,SMDPad,CuDef*%
%ADD10C,0.750000*%
%TD*%
%TA.AperFunction,SMDPad,CuDef*%
%ADD11RoundRect,0.250000X0.312500X1.075000X-0.312500X1.075000X-0.312500X-1.075000X0.312500X-1.075000X0*%
%TD*%
%TA.AperFunction,SMDPad,CuDef*%
%ADD12R,1.500000X2.400000*%
%TD*%
%TA.AperFunction,ComponentPad*%
%ADD13C,1.935000*%
%TD*%
%TA.AperFunction,ComponentPad*%
%ADD14C,1.980000*%
%TD*%
%TA.AperFunction,ComponentPad*%
%ADD15R,1.980000X1.980000*%
%TD*%
%TA.AperFunction,SMDPad,CuDef*%
%ADD16RoundRect,0.250000X-0.550000X1.500000X-0.550000X-1.500000X0.550000X-1.500000X0.550000X1.500000X0*%
%TD*%
%TA.AperFunction,SMDPad,CuDef*%
%ADD17RoundRect,0.250000X-0.312500X-1.075000X0.312500X-1.075000X0.312500X1.075000X-0.312500X1.075000X0*%
%TD*%
%TA.AperFunction,SMDPad,CuDef*%
%ADD18RoundRect,0.140000X0.170000X-0.140000X0.170000X0.140000X-0.170000X0.140000X-0.170000X-0.140000X0*%
%TD*%
%TA.AperFunction,SMDPad,CuDef*%
%ADD19RoundRect,0.250000X1.075000X-0.312500X1.075000X0.312500X-1.075000X0.312500X-1.075000X-0.312500X0*%
%TD*%
%TA.AperFunction,SMDPad,CuDef*%
%ADD20RoundRect,0.112500X0.112500X-0.187500X0.112500X0.187500X-0.112500X0.187500X-0.112500X-0.187500X0*%
%TD*%
%TA.AperFunction,SMDPad,CuDef*%
%ADD21RoundRect,0.250000X0.987500X2.325000X-0.987500X2.325000X-0.987500X-2.325000X0.987500X-2.325000X0*%
%TD*%
%TA.AperFunction,SMDPad,CuDef*%
%ADD22RoundRect,0.218750X0.218750X0.256250X-0.218750X0.256250X-0.218750X-0.256250X0.218750X-0.256250X0*%
%TD*%
%TA.AperFunction,SMDPad,CuDef*%
%ADD23RoundRect,0.250000X-1.075000X0.312500X-1.075000X-0.312500X1.075000X-0.312500X1.075000X0.312500X0*%
%TD*%
%TA.AperFunction,SMDPad,CuDef*%
%ADD24RoundRect,0.250000X0.312500X0.625000X-0.312500X0.625000X-0.312500X-0.625000X0.312500X-0.625000X0*%
%TD*%
%TA.AperFunction,ComponentPad*%
%ADD25C,4.400000*%
%TD*%
%TA.AperFunction,SMDPad,CuDef*%
%ADD26RoundRect,0.250000X1.000000X-1.500000X1.000000X1.500000X-1.000000X1.500000X-1.000000X-1.500000X0*%
%TD*%
%TA.AperFunction,ComponentPad*%
%ADD27C,1.320800*%
%TD*%
%TA.AperFunction,SMDPad,CuDef*%
%ADD28RoundRect,0.250000X2.125000X-0.275000X2.125000X0.275000X-2.125000X0.275000X-2.125000X-0.275000X0*%
%TD*%
%TA.AperFunction,SMDPad,CuDef*%
%ADD29R,1.600000X0.300000*%
%TD*%
%TA.AperFunction,SMDPad,CuDef*%
%ADD30R,3.400000X9.700000*%
%TD*%
%TA.AperFunction,SMDPad,CuDef*%
%ADD31RoundRect,0.250000X-0.475000X0.250000X-0.475000X-0.250000X0.475000X-0.250000X0.475000X0.250000X0*%
%TD*%
%TA.AperFunction,ComponentPad*%
%ADD32R,2.400000X2.400000*%
%TD*%
%TA.AperFunction,ComponentPad*%
%ADD33O,2.400000X2.400000*%
%TD*%
%TA.AperFunction,SMDPad,CuDef*%
%ADD34RoundRect,0.250000X-0.625000X0.375000X-0.625000X-0.375000X0.625000X-0.375000X0.625000X0.375000X0*%
%TD*%
%TA.AperFunction,ComponentPad*%
%ADD35R,1.600000X1.600000*%
%TD*%
%TA.AperFunction,ComponentPad*%
%ADD36O,1.600000X1.600000*%
%TD*%
%TA.AperFunction,SMDPad,CuDef*%
%ADD37RoundRect,0.250000X0.375000X0.625000X-0.375000X0.625000X-0.375000X-0.625000X0.375000X-0.625000X0*%
%TD*%
%TA.AperFunction,SMDPad,CuDef*%
%ADD38RoundRect,0.250000X-0.312500X-0.625000X0.312500X-0.625000X0.312500X0.625000X-0.312500X0.625000X0*%
%TD*%
%TA.AperFunction,SMDPad,CuDef*%
%ADD39RoundRect,0.250000X0.300000X-2.050000X0.300000X2.050000X-0.300000X2.050000X-0.300000X-2.050000X0*%
%TD*%
%TA.AperFunction,SMDPad,CuDef*%
%ADD40RoundRect,0.250000X2.375000X-2.025000X2.375000X2.025000X-2.375000X2.025000X-2.375000X-2.025000X0*%
%TD*%
%TA.AperFunction,SMDPad,CuDef*%
%ADD41RoundRect,0.250002X5.149998X-4.449998X5.149998X4.449998X-5.149998X4.449998X-5.149998X-4.449998X0*%
%TD*%
%TA.AperFunction,SMDPad,CuDef*%
%ADD42RoundRect,0.250000X0.625000X-0.375000X0.625000X0.375000X-0.625000X0.375000X-0.625000X-0.375000X0*%
%TD*%
%TA.AperFunction,SMDPad,CuDef*%
%ADD43RoundRect,0.250000X-0.625000X0.312500X-0.625000X-0.312500X0.625000X-0.312500X0.625000X0.312500X0*%
%TD*%
%TA.AperFunction,SMDPad,CuDef*%
%ADD44RoundRect,0.140000X-0.140000X-0.170000X0.140000X-0.170000X0.140000X0.170000X-0.140000X0.170000X0*%
%TD*%
%TA.AperFunction,SMDPad,CuDef*%
%ADD45RoundRect,0.350000X-1.900000X-0.350000X1.900000X-0.350000X1.900000X0.350000X-1.900000X0.350000X0*%
%TD*%
%TA.AperFunction,SMDPad,CuDef*%
%ADD46RoundRect,0.218750X-0.218750X-0.256250X0.218750X-0.256250X0.218750X0.256250X-0.218750X0.256250X0*%
%TD*%
%TA.AperFunction,SMDPad,CuDef*%
%ADD47RoundRect,0.250000X-0.325000X-0.650000X0.325000X-0.650000X0.325000X0.650000X-0.325000X0.650000X0*%
%TD*%
%TA.AperFunction,SMDPad,CuDef*%
%ADD48RoundRect,0.250000X0.475000X-0.250000X0.475000X0.250000X-0.475000X0.250000X-0.475000X-0.250000X0*%
%TD*%
%TA.AperFunction,ComponentPad*%
%ADD49R,2.000000X1.905000*%
%TD*%
%TA.AperFunction,ComponentPad*%
%ADD50O,2.000000X1.905000*%
%TD*%
%TA.AperFunction,SMDPad,CuDef*%
%ADD51RoundRect,0.140000X-0.170000X0.140000X-0.170000X-0.140000X0.170000X-0.140000X0.170000X0.140000X0*%
%TD*%
%TA.AperFunction,SMDPad,CuDef*%
%ADD52RoundRect,0.225000X-0.225000X-0.250000X0.225000X-0.250000X0.225000X0.250000X-0.225000X0.250000X0*%
%TD*%
%TA.AperFunction,ComponentPad*%
%ADD53R,2.800000X2.800000*%
%TD*%
%TA.AperFunction,ComponentPad*%
%ADD54C,2.800000*%
%TD*%
%TA.AperFunction,ComponentPad*%
%ADD55R,2.600000X2.600000*%
%TD*%
%TA.AperFunction,ComponentPad*%
%ADD56C,2.600000*%
%TD*%
%TA.AperFunction,ViaPad*%
%ADD57C,0.800000*%
%TD*%
%TA.AperFunction,ViaPad*%
%ADD58C,0.500000*%
%TD*%
%TA.AperFunction,Conductor*%
%ADD59C,1.000000*%
%TD*%
%TA.AperFunction,Conductor*%
%ADD60C,0.127000*%
%TD*%
%TA.AperFunction,Conductor*%
%ADD61C,1.270000*%
%TD*%
%TA.AperFunction,Conductor*%
%ADD62C,1.500000*%
%TD*%
%TA.AperFunction,Conductor*%
%ADD63C,0.250000*%
%TD*%
%TA.AperFunction,Conductor*%
%ADD64C,0.500000*%
%TD*%
G04 APERTURE END LIST*
D10*
%TO.P,REF\u002A\u002A,*%
%TO.N,*%
X56515000Y-83108800D03*
%TD*%
%TO.P,REF\u002A\u002A,*%
%TO.N,*%
X126949200Y-179654200D03*
%TD*%
D11*
%TO.P,R26,1*%
%TO.N,GND*%
X117199600Y-95834200D03*
%TO.P,R26,2*%
%TO.N,Net-(Q1-B)*%
X114274600Y-95834200D03*
%TD*%
D12*
%TO.P,L2,1,1*%
%TO.N,Net-(D14-K)*%
X125750000Y-167500000D03*
%TO.P,L2,2,2*%
%TO.N,+5V*%
X131250000Y-167500000D03*
%TD*%
D11*
%TO.P,R10,1*%
%TO.N,/ACT_2*%
X82367500Y-88000000D03*
%TO.P,R10,2*%
%TO.N,Net-(Q4-B)*%
X79442500Y-88000000D03*
%TD*%
D13*
%TO.P,K3,11*%
%TO.N,/Distribution System/5V relay3/RELAY_OUT*%
X68100000Y-92500000D03*
D14*
%TO.P,K3,12*%
%TO.N,GND*%
X53900000Y-98500000D03*
%TO.P,K3,14*%
%TO.N,+12V*%
X53900000Y-86500000D03*
D15*
%TO.P,K3,A1*%
%TO.N,+5V*%
X66100000Y-98500000D03*
D14*
%TO.P,K3,A2*%
%TO.N,Net-(D5-K)*%
X66100000Y-86500000D03*
%TD*%
D16*
%TO.P,C10,1*%
%TO.N,+12V*%
X80543400Y-172349200D03*
%TO.P,C10,2*%
%TO.N,GND*%
X80543400Y-177749200D03*
%TD*%
D17*
%TO.P,R2,1*%
%TO.N,/VALVE_POWER*%
X111037500Y-100400000D03*
%TO.P,R2,2*%
%TO.N,Net-(Q1-B)*%
X113962500Y-100400000D03*
%TD*%
D18*
%TO.P,C20,1*%
%TO.N,+24V*%
X121005600Y-146707800D03*
%TO.P,C20,2*%
%TO.N,GND*%
X121005600Y-145747800D03*
%TD*%
D19*
%TO.P,R19,1*%
%TO.N,Net-(D13-K)*%
X50000000Y-158462500D03*
%TO.P,R19,2*%
%TO.N,GND*%
X50000000Y-155537500D03*
%TD*%
D20*
%TO.P,D4,1,K*%
%TO.N,+5V*%
X74000000Y-132550000D03*
%TO.P,D4,2,A*%
%TO.N,Net-(D3-K)*%
X74000000Y-130450000D03*
%TD*%
D18*
%TO.P,C8,1*%
%TO.N,+24V*%
X122631200Y-146707800D03*
%TO.P,C8,2*%
%TO.N,GND*%
X122631200Y-145747800D03*
%TD*%
D21*
%TO.P,D7,1,K*%
%TO.N,+24V*%
X88687500Y-163000000D03*
%TO.P,D7,2,A*%
%TO.N,Net-(D7-A)*%
X82312500Y-163000000D03*
%TD*%
D20*
%TO.P,D2,1,K*%
%TO.N,+5V*%
X74500000Y-149550000D03*
%TO.P,D2,2,A*%
%TO.N,Net-(D1-K)*%
X74500000Y-147450000D03*
%TD*%
D22*
%TO.P,F2,1*%
%TO.N,Net-(U1-VIN)*%
X104673500Y-165481000D03*
%TO.P,F2,2*%
%TO.N,+24V*%
X103098500Y-165481000D03*
%TD*%
D23*
%TO.P,R9,1*%
%TO.N,Net-(D5-A)*%
X81005000Y-99037500D03*
%TO.P,R9,2*%
%TO.N,+5V*%
X81005000Y-101962500D03*
%TD*%
D24*
%TO.P,R7,1*%
%TO.N,GND*%
X125084300Y-119735600D03*
%TO.P,R7,2*%
%TO.N,/Distribution System/drv8825 driver1/RsenA*%
X122159300Y-119735600D03*
%TD*%
D19*
%TO.P,R20,1*%
%TO.N,Net-(D15-K)*%
X136500000Y-159362500D03*
%TO.P,R20,2*%
%TO.N,GND*%
X136500000Y-156437500D03*
%TD*%
D25*
%TO.P,H2,1*%
%TO.N,N/C*%
X138303000Y-170027600D03*
%TD*%
D26*
%TO.P,C1,1*%
%TO.N,+24V*%
X129057400Y-115899000D03*
%TO.P,C1,2*%
%TO.N,GND*%
X129057400Y-109399000D03*
%TD*%
D27*
%TO.P,Q4,1,C*%
%TO.N,Net-(D5-K)*%
X74500000Y-89770000D03*
%TO.P,Q4,2,B*%
%TO.N,Net-(Q4-B)*%
X76405000Y-88500000D03*
%TO.P,Q4,3,E*%
%TO.N,GND*%
X74500000Y-87230000D03*
%TD*%
D28*
%TO.P,R13,1*%
%TO.N,+24V*%
X125653800Y-127052600D03*
%TO.P,R13,2*%
%TO.N,Net-(U2-VMA)*%
X125653800Y-124102600D03*
%TD*%
D26*
%TO.P,C7,1*%
%TO.N,+24V*%
X128000000Y-142950000D03*
%TO.P,C7,2*%
%TO.N,GND*%
X128000000Y-136450000D03*
%TD*%
D29*
%TO.P,U5,1,CP1*%
%TO.N,Net-(U5-CP1)*%
X115800000Y-146225000D03*
%TO.P,U5,2,CP2*%
%TO.N,Net-(U5-CP2)*%
X115800000Y-145575000D03*
%TO.P,U5,3,VCP*%
%TO.N,+24V*%
X115800000Y-144925000D03*
%TO.P,U5,4,VMA*%
%TO.N,Net-(U5-VMA)*%
X115800000Y-144275000D03*
%TO.P,U5,5,AOUT1*%
%TO.N,/Distribution System/drv8825 driver/MOT_1*%
X115800000Y-143625000D03*
%TO.P,U5,6,ISENA*%
%TO.N,/Distribution System/drv8825 driver/RsenA*%
X115800000Y-142975000D03*
%TO.P,U5,7,AOUT2*%
%TO.N,/Distribution System/drv8825 driver/MOT_2*%
X115800000Y-142325000D03*
%TO.P,U5,8,BOUT2*%
%TO.N,/Distribution System/drv8825 driver/MOT_3*%
X115800000Y-141675000D03*
%TO.P,U5,9,ISENB*%
%TO.N,/Distribution System/drv8825 driver/RsenB*%
X115800000Y-141025000D03*
%TO.P,U5,10,BOUT1*%
%TO.N,/Distribution System/drv8825 driver/MOT_4*%
X115800000Y-140375000D03*
%TO.P,U5,11,VMB*%
%TO.N,+24V*%
X115800000Y-139725000D03*
%TO.P,U5,12,AVREF*%
%TO.N,Net-(U5-AVREF)*%
X115800000Y-139075000D03*
%TO.P,U5,13,BVREF*%
X115800000Y-138425000D03*
%TO.P,U5,14,GND*%
%TO.N,GND*%
X115800000Y-137775000D03*
%TO.P,U5,15,V3P3OUT*%
%TO.N,/Distribution System/drv8825 driver/3.3V_out*%
X110200000Y-137775000D03*
%TO.P,U5,16,nRESET*%
%TO.N,Net-(U5-DECAY)*%
X110200000Y-138425000D03*
%TO.P,U5,17,nSLEEP*%
X110200000Y-139075000D03*
%TO.P,U5,18,nFAULT*%
%TO.N,unconnected-(U5-nFAULT-Pad18)*%
X110200000Y-139725000D03*
%TO.P,U5,19,DECAY*%
%TO.N,Net-(U5-DECAY)*%
X110200000Y-140375000D03*
%TO.P,U5,20,DIR*%
%TO.N,/MOTOR_DIR*%
X110200000Y-141025000D03*
%TO.P,U5,21,nENBL*%
%TO.N,unconnected-(U5-nENBL-Pad21)*%
X110200000Y-141675000D03*
%TO.P,U5,22,STEP*%
%TO.N,/MOTOR_STEP*%
X110200000Y-142325000D03*
%TO.P,U5,23,NC*%
%TO.N,unconnected-(U5-NC-Pad23)*%
X110200000Y-142975000D03*
%TO.P,U5,24,MODE0*%
%TO.N,unconnected-(U5-MODE0-Pad24)*%
X110200000Y-143625000D03*
%TO.P,U5,25,MODE1*%
%TO.N,+5V*%
X110200000Y-144275000D03*
%TO.P,U5,26,MODE2*%
%TO.N,unconnected-(U5-MODE2-Pad26)*%
X110200000Y-144925000D03*
%TO.P,U5,27,nHOME*%
%TO.N,unconnected-(U5-nHOME-Pad27)*%
X110200000Y-145575000D03*
%TO.P,U5,28,GND*%
%TO.N,GND*%
X110200000Y-146225000D03*
D30*
%TO.P,U5,29*%
%TO.N,N/C*%
X113000000Y-142000000D03*
%TD*%
D31*
%TO.P,C24,1*%
%TO.N,+5V*%
X101500000Y-132500000D03*
%TO.P,C24,2*%
%TO.N,GND*%
X101500000Y-134400000D03*
%TD*%
D18*
%TO.P,C4,1*%
%TO.N,+24V*%
X121920000Y-123924000D03*
%TO.P,C4,2*%
%TO.N,Net-(U2-VMA)*%
X121920000Y-122964000D03*
%TD*%
D32*
%TO.P,D12,1,K*%
%TO.N,Net-(D12-K)*%
X58880000Y-176500000D03*
D33*
%TO.P,D12,2,A*%
%TO.N,GND*%
X74120000Y-176500000D03*
%TD*%
D25*
%TO.P,H3,1*%
%TO.N,N/C*%
X46710600Y-89281000D03*
%TD*%
D34*
%TO.P,D1,1,K*%
%TO.N,Net-(D1-K)*%
X80500000Y-147200000D03*
%TO.P,D1,2,A*%
%TO.N,Net-(D1-A)*%
X80500000Y-150000000D03*
%TD*%
D35*
%TO.P,U6,1,~{RESET}/PC6*%
%TO.N,/PULLUP*%
X86790000Y-114990000D03*
D36*
%TO.P,U6,2,PD0*%
%TO.N,unconnected-(U6-PD0-Pad2)*%
X86790000Y-117530000D03*
%TO.P,U6,3,PD1*%
%TO.N,unconnected-(U6-PD1-Pad3)*%
X86790000Y-120070000D03*
%TO.P,U6,4,PD2*%
%TO.N,/ACT_2*%
X86790000Y-122610000D03*
%TO.P,U6,5,PD3*%
%TO.N,/ACT_1*%
X86790000Y-125150000D03*
%TO.P,U6,6,PD4*%
%TO.N,/MP_1*%
X86790000Y-127690000D03*
%TO.P,U6,7,VCC*%
%TO.N,+5V*%
X86790000Y-130230000D03*
%TO.P,U6,8,GND*%
%TO.N,GND*%
X86790000Y-132770000D03*
%TO.P,U6,9,XTAL1/PB6*%
%TO.N,/OSC1*%
X86790000Y-135310000D03*
%TO.P,U6,10,XTAL2/PB7*%
%TO.N,/OSC2*%
X86790000Y-137850000D03*
%TO.P,U6,11,PD5*%
%TO.N,unconnected-(U6-PD5-Pad11)*%
X86790000Y-140390000D03*
%TO.P,U6,12,PD6*%
%TO.N,/MP_2*%
X86790000Y-142930000D03*
%TO.P,U6,13,PD7*%
%TO.N,unconnected-(U6-PD7-Pad13)*%
X86790000Y-145470000D03*
%TO.P,U6,14,PB0*%
%TO.N,unconnected-(U6-PB0-Pad14)*%
X86790000Y-148010000D03*
%TO.P,U6,15,PB1*%
%TO.N,unconnected-(U6-PB1-Pad15)*%
X94410000Y-148010000D03*
%TO.P,U6,16,PB2*%
%TO.N,/MOTOR_STEP*%
X94410000Y-145470000D03*
%TO.P,U6,17,PB3*%
%TO.N,/MOTOR_DIR*%
X94410000Y-142930000D03*
%TO.P,U6,18,PB4*%
%TO.N,unconnected-(U6-PB4-Pad18)*%
X94410000Y-140390000D03*
%TO.P,U6,19,PB5*%
%TO.N,/MAINPUMP_STEP*%
X94410000Y-137850000D03*
%TO.P,U6,20,AVCC*%
%TO.N,+5V*%
X94410000Y-135310000D03*
%TO.P,U6,21,AREF*%
%TO.N,Net-(U6-AREF)*%
X94410000Y-132770000D03*
%TO.P,U6,22,GND*%
%TO.N,GND*%
X94410000Y-130230000D03*
%TO.P,U6,23,PC0*%
%TO.N,/MAINPUMP_DIR*%
X94410000Y-127690000D03*
%TO.P,U6,24,PC1*%
%TO.N,Net-(U6-PC1)*%
X94410000Y-125150000D03*
%TO.P,U6,25,PC2*%
%TO.N,/VALVE_POWER*%
X94410000Y-122610000D03*
%TO.P,U6,26,PC3*%
%TO.N,/LIMIT_SW*%
X94410000Y-120070000D03*
%TO.P,U6,27,PC4*%
%TO.N,/LEVELSENSE_FULL*%
X94410000Y-117530000D03*
%TO.P,U6,28,PC5*%
%TO.N,/FLOW_SENSE*%
X94410000Y-114990000D03*
%TD*%
D34*
%TO.P,D15,1,K*%
%TO.N,Net-(D15-K)*%
X136500000Y-162500000D03*
%TO.P,D15,2,A*%
%TO.N,+5V*%
X136500000Y-165300000D03*
%TD*%
D23*
%TO.P,R1,1*%
%TO.N,Net-(D1-A)*%
X80600000Y-152637500D03*
%TO.P,R1,2*%
%TO.N,+5V*%
X80600000Y-155562500D03*
%TD*%
D20*
%TO.P,D9,1,K*%
%TO.N,+5V*%
X74000000Y-98550000D03*
%TO.P,D9,2,A*%
%TO.N,Net-(D5-K)*%
X74000000Y-96450000D03*
%TD*%
D13*
%TO.P,K4,11*%
%TO.N,/Distribution System/5V relay2/RELAY_OUT*%
X68100000Y-109500000D03*
D14*
%TO.P,K4,12*%
%TO.N,GND*%
X53900000Y-115500000D03*
%TO.P,K4,14*%
%TO.N,+12V*%
X53900000Y-103500000D03*
D15*
%TO.P,K4,A1*%
%TO.N,+5V*%
X66100000Y-115500000D03*
D14*
%TO.P,K4,A2*%
%TO.N,Net-(D10-K)*%
X66100000Y-103500000D03*
%TD*%
D27*
%TO.P,Q5,1,C*%
%TO.N,Net-(D10-K)*%
X74500000Y-110270000D03*
%TO.P,Q5,2,B*%
%TO.N,Net-(Q5-B)*%
X76405000Y-109000000D03*
%TO.P,Q5,3,E*%
%TO.N,GND*%
X74500000Y-107730000D03*
%TD*%
D25*
%TO.P,H1,1*%
%TO.N,N/C*%
X135331200Y-89255600D03*
%TD*%
D37*
%TO.P,D6,1,K*%
%TO.N,Net-(D6-K)*%
X95000000Y-162500000D03*
%TO.P,D6,2,A*%
%TO.N,+24V*%
X92200000Y-162500000D03*
%TD*%
D20*
%TO.P,D11,1,K*%
%TO.N,+5V*%
X75000000Y-115550000D03*
%TO.P,D11,2,A*%
%TO.N,Net-(D10-K)*%
X75000000Y-113450000D03*
%TD*%
D18*
%TO.P,C21,1*%
%TO.N,+24V*%
X119761000Y-148079400D03*
%TO.P,C21,2*%
%TO.N,Net-(U5-VMA)*%
X119761000Y-147119400D03*
%TD*%
D11*
%TO.P,R12,1*%
%TO.N,/ACT_1*%
X81962500Y-107000000D03*
%TO.P,R12,2*%
%TO.N,Net-(Q5-B)*%
X79037500Y-107000000D03*
%TD*%
D24*
%TO.P,R21,1*%
%TO.N,+5V*%
X90462500Y-109000000D03*
%TO.P,R21,2*%
%TO.N,/PULLUP*%
X87537500Y-109000000D03*
%TD*%
D17*
%TO.P,R6,1*%
%TO.N,Net-(D6-K)*%
X97752500Y-162500000D03*
%TO.P,R6,2*%
%TO.N,GND*%
X100677500Y-162500000D03*
%TD*%
D13*
%TO.P,K2,11*%
%TO.N,/Distribution System/5V relay/RELAY_OUT*%
X68000000Y-126500000D03*
D14*
%TO.P,K2,12*%
%TO.N,GND*%
X53800000Y-132500000D03*
%TO.P,K2,14*%
%TO.N,+12V*%
X53800000Y-120500000D03*
D15*
%TO.P,K2,A1*%
%TO.N,+5V*%
X66000000Y-132500000D03*
D14*
%TO.P,K2,A2*%
%TO.N,Net-(D3-K)*%
X66000000Y-120500000D03*
%TD*%
D38*
%TO.P,R24,1*%
%TO.N,Net-(U5-AVREF)*%
X118075000Y-133200000D03*
%TO.P,R24,2*%
%TO.N,GND*%
X121000000Y-133200000D03*
%TD*%
D24*
%TO.P,R18,1*%
%TO.N,GND*%
X121962500Y-139700000D03*
%TO.P,R18,2*%
%TO.N,/Distribution System/drv8825 driver/RsenB*%
X119037500Y-139700000D03*
%TD*%
D39*
%TO.P,U1,1,VIN*%
%TO.N,Net-(U1-VIN)*%
X109825000Y-167725000D03*
%TO.P,U1,2,OUT*%
%TO.N,Net-(D14-K)*%
X111525000Y-167725000D03*
%TO.P,U1,3,GND*%
%TO.N,GND*%
X113225000Y-167725000D03*
D40*
X110450000Y-161000000D03*
X116000000Y-161000000D03*
D41*
X113225000Y-158575000D03*
D40*
X110450000Y-156150000D03*
X116000000Y-156150000D03*
D39*
%TO.P,U1,4,FB*%
%TO.N,+5V*%
X114925000Y-167725000D03*
%TO.P,U1,5,~{ON}/OFF*%
%TO.N,GND*%
X116625000Y-167725000D03*
%TD*%
D42*
%TO.P,D8,1,K*%
%TO.N,GND*%
X102971600Y-127434800D03*
%TO.P,D8,2,A*%
%TO.N,Net-(D8-A)*%
X102971600Y-124634800D03*
%TD*%
D18*
%TO.P,C3,1*%
%TO.N,+24V*%
X126263400Y-122628600D03*
%TO.P,C3,2*%
%TO.N,GND*%
X126263400Y-121668600D03*
%TD*%
D28*
%TO.P,R22,1*%
%TO.N,+24V*%
X126415800Y-149633200D03*
%TO.P,R22,2*%
%TO.N,Net-(U5-VMA)*%
X126415800Y-146683200D03*
%TD*%
D32*
%TO.P,D14,1,K*%
%TO.N,Net-(D14-K)*%
X110380000Y-175000000D03*
D33*
%TO.P,D14,2,A*%
%TO.N,GND*%
X125620000Y-175000000D03*
%TD*%
D34*
%TO.P,D5,1,K*%
%TO.N,Net-(D5-K)*%
X81005000Y-94100000D03*
%TO.P,D5,2,A*%
%TO.N,Net-(D5-A)*%
X81005000Y-96900000D03*
%TD*%
D43*
%TO.P,R16,1*%
%TO.N,Net-(U2-DECAY)*%
X106500000Y-117037500D03*
%TO.P,R16,2*%
%TO.N,+5V*%
X106500000Y-119962500D03*
%TD*%
D34*
%TO.P,D3,1,K*%
%TO.N,Net-(D3-K)*%
X80400000Y-129100000D03*
%TO.P,D3,2,A*%
%TO.N,Net-(D3-A)*%
X80400000Y-131900000D03*
%TD*%
D27*
%TO.P,Q3,1,C*%
%TO.N,Net-(D3-K)*%
X73900000Y-125270000D03*
%TO.P,Q3,2,B*%
%TO.N,Net-(Q3-B)*%
X75805000Y-124000000D03*
%TO.P,Q3,3,E*%
%TO.N,GND*%
X73900000Y-122730000D03*
%TD*%
D11*
%TO.P,R3,1*%
%TO.N,/MP_2*%
X81462500Y-141500000D03*
%TO.P,R3,2*%
%TO.N,Net-(Q2-B)*%
X78537500Y-141500000D03*
%TD*%
D23*
%TO.P,R4,1*%
%TO.N,Net-(D3-A)*%
X80400000Y-134037500D03*
%TO.P,R4,2*%
%TO.N,+5V*%
X80400000Y-136962500D03*
%TD*%
D44*
%TO.P,C5,1*%
%TO.N,Net-(U2-CP1)*%
X116842600Y-124536200D03*
%TO.P,C5,2*%
%TO.N,Net-(U2-CP2)*%
X117802600Y-124536200D03*
%TD*%
D24*
%TO.P,R17,1*%
%TO.N,GND*%
X122462500Y-143500000D03*
%TO.P,R17,2*%
%TO.N,/Distribution System/drv8825 driver/RsenA*%
X119537500Y-143500000D03*
%TD*%
D39*
%TO.P,U4,1,VIN*%
%TO.N,Net-(U4-VIN)*%
X58600000Y-168650000D03*
%TO.P,U4,2,OUT*%
%TO.N,Net-(D12-K)*%
X60300000Y-168650000D03*
%TO.P,U4,3,GND*%
%TO.N,GND*%
X62000000Y-168650000D03*
D40*
X59225000Y-161925000D03*
X64775000Y-161925000D03*
D41*
X62000000Y-159500000D03*
D40*
X59225000Y-157075000D03*
X64775000Y-157075000D03*
D39*
%TO.P,U4,4,FB*%
%TO.N,+12V*%
X63700000Y-168650000D03*
%TO.P,U4,5,~{ON}/OFF*%
%TO.N,GND*%
X65400000Y-168650000D03*
%TD*%
D45*
%TO.P,C9,1*%
%TO.N,Net-(U4-VIN)*%
X44500000Y-173000000D03*
%TO.P,C9,2*%
%TO.N,GND*%
X53500000Y-173000000D03*
%TD*%
D44*
%TO.P,C22,1*%
%TO.N,Net-(U5-CP1)*%
X115521800Y-147878800D03*
%TO.P,C22,2*%
%TO.N,Net-(U5-CP2)*%
X116481800Y-147878800D03*
%TD*%
D46*
%TO.P,F1,1*%
%TO.N,Net-(U4-VIN)*%
X76212500Y-159500000D03*
%TO.P,F1,2*%
%TO.N,+24V*%
X77787500Y-159500000D03*
%TD*%
D27*
%TO.P,Q2,1,C*%
%TO.N,Net-(D1-K)*%
X74500000Y-142770000D03*
%TO.P,Q2,2,B*%
%TO.N,Net-(Q2-B)*%
X76405000Y-141500000D03*
%TO.P,Q2,3,E*%
%TO.N,GND*%
X74500000Y-140230000D03*
%TD*%
D38*
%TO.P,R27,1*%
%TO.N,Net-(U6-PC1)*%
X97075000Y-125500000D03*
%TO.P,R27,2*%
%TO.N,Net-(D8-A)*%
X100000000Y-125500000D03*
%TD*%
D24*
%TO.P,R25,1*%
%TO.N,Net-(U5-DECAY)*%
X107462500Y-141000000D03*
%TO.P,R25,2*%
%TO.N,+5V*%
X104537500Y-141000000D03*
%TD*%
D47*
%TO.P,C6,1*%
%TO.N,/Distribution System/drv8825 driver1/3.3V_out*%
X107525000Y-110000000D03*
%TO.P,C6,2*%
%TO.N,GND*%
X110475000Y-110000000D03*
%TD*%
D48*
%TO.P,C26,1*%
%TO.N,+5V*%
X101500000Y-138400000D03*
%TO.P,C26,2*%
%TO.N,GND*%
X101500000Y-136500000D03*
%TD*%
D38*
%TO.P,R23,1*%
%TO.N,/Distribution System/drv8825 driver/3.3V_out*%
X113075000Y-133200000D03*
%TO.P,R23,2*%
%TO.N,Net-(U5-AVREF)*%
X116000000Y-133200000D03*
%TD*%
D45*
%TO.P,C11,1*%
%TO.N,Net-(U1-VIN)*%
X96050000Y-173500000D03*
%TO.P,C11,2*%
%TO.N,GND*%
X105050000Y-173500000D03*
%TD*%
D34*
%TO.P,D10,1,K*%
%TO.N,Net-(D10-K)*%
X81000000Y-111100000D03*
%TO.P,D10,2,A*%
%TO.N,Net-(D10-A)*%
X81000000Y-113900000D03*
%TD*%
D48*
%TO.P,C25,1*%
%TO.N,+5V*%
X97500000Y-138350000D03*
%TO.P,C25,2*%
%TO.N,GND*%
X97500000Y-136450000D03*
%TD*%
D29*
%TO.P,U2,1,CP1*%
%TO.N,Net-(U2-CP1)*%
X116800000Y-122725000D03*
%TO.P,U2,2,CP2*%
%TO.N,Net-(U2-CP2)*%
X116800000Y-122075000D03*
%TO.P,U2,3,VCP*%
%TO.N,+24V*%
X116800000Y-121425000D03*
%TO.P,U2,4,VMA*%
%TO.N,Net-(U2-VMA)*%
X116800000Y-120775000D03*
%TO.P,U2,5,AOUT1*%
%TO.N,/Distribution System/drv8825 driver1/MOT_1*%
X116800000Y-120125000D03*
%TO.P,U2,6,ISENA*%
%TO.N,/Distribution System/drv8825 driver1/RsenA*%
X116800000Y-119475000D03*
%TO.P,U2,7,AOUT2*%
%TO.N,/Distribution System/drv8825 driver1/MOT_2*%
X116800000Y-118825000D03*
%TO.P,U2,8,BOUT2*%
%TO.N,/Distribution System/drv8825 driver1/MOT_3*%
X116800000Y-118175000D03*
%TO.P,U2,9,ISENB*%
%TO.N,/Distribution System/drv8825 driver1/RsenB*%
X116800000Y-117525000D03*
%TO.P,U2,10,BOUT1*%
%TO.N,/Distribution System/drv8825 driver1/MOT_4*%
X116800000Y-116875000D03*
%TO.P,U2,11,VMB*%
%TO.N,+24V*%
X116800000Y-116225000D03*
%TO.P,U2,12,AVREF*%
%TO.N,Net-(U2-AVREF)*%
X116800000Y-115575000D03*
%TO.P,U2,13,BVREF*%
X116800000Y-114925000D03*
%TO.P,U2,14,GND*%
%TO.N,GND*%
X116800000Y-114275000D03*
%TO.P,U2,15,V3P3OUT*%
%TO.N,/Distribution System/drv8825 driver1/3.3V_out*%
X111200000Y-114275000D03*
%TO.P,U2,16,nRESET*%
%TO.N,Net-(U2-DECAY)*%
X111200000Y-114925000D03*
%TO.P,U2,17,nSLEEP*%
X111200000Y-115575000D03*
%TO.P,U2,18,nFAULT*%
%TO.N,unconnected-(U2-nFAULT-Pad18)*%
X111200000Y-116225000D03*
%TO.P,U2,19,DECAY*%
%TO.N,Net-(U2-DECAY)*%
X111200000Y-116875000D03*
%TO.P,U2,20,DIR*%
%TO.N,/MAINPUMP_DIR*%
X111200000Y-117525000D03*
%TO.P,U2,21,nENBL*%
%TO.N,unconnected-(U2-nENBL-Pad21)*%
X111200000Y-118175000D03*
%TO.P,U2,22,STEP*%
%TO.N,/MAINPUMP_STEP*%
X111200000Y-118825000D03*
%TO.P,U2,23,NC*%
%TO.N,unconnected-(U2-NC-Pad23)*%
X111200000Y-119475000D03*
%TO.P,U2,24,MODE0*%
%TO.N,unconnected-(U2-MODE0-Pad24)*%
X111200000Y-120125000D03*
%TO.P,U2,25,MODE1*%
%TO.N,+5V*%
X111200000Y-120775000D03*
%TO.P,U2,26,MODE2*%
%TO.N,unconnected-(U2-MODE2-Pad26)*%
X111200000Y-121425000D03*
%TO.P,U2,27,nHOME*%
%TO.N,unconnected-(U2-nHOME-Pad27)*%
X111200000Y-122075000D03*
%TO.P,U2,28,GND*%
%TO.N,GND*%
X111200000Y-122725000D03*
D30*
%TO.P,U2,29*%
%TO.N,N/C*%
X114000000Y-118500000D03*
%TD*%
D49*
%TO.P,Q1,1,B*%
%TO.N,Net-(Q1-B)*%
X121445000Y-101440000D03*
D50*
%TO.P,Q1,2,C*%
%TO.N,Net-(J10-Pin_2)*%
X121445000Y-98900000D03*
%TO.P,Q1,3,E*%
%TO.N,GND*%
X121445000Y-96360000D03*
%TD*%
D13*
%TO.P,K1,11*%
%TO.N,/Distribution System/5V relay1/RELAY_OUT*%
X68100000Y-143500000D03*
D14*
%TO.P,K1,12*%
%TO.N,GND*%
X53900000Y-149500000D03*
%TO.P,K1,14*%
%TO.N,+12V*%
X53900000Y-137500000D03*
D15*
%TO.P,K1,A1*%
%TO.N,+5V*%
X66100000Y-149500000D03*
D14*
%TO.P,K1,A2*%
%TO.N,Net-(D1-K)*%
X66100000Y-137500000D03*
%TD*%
D25*
%TO.P,H4,1*%
%TO.N,N/C*%
X43865800Y-162991800D03*
%TD*%
D11*
%TO.P,R5,1*%
%TO.N,/MP_1*%
X81862500Y-124000000D03*
%TO.P,R5,2*%
%TO.N,Net-(Q3-B)*%
X78937500Y-124000000D03*
%TD*%
D38*
%TO.P,R15,1*%
%TO.N,Net-(U2-AVREF)*%
X117537500Y-110000000D03*
%TO.P,R15,2*%
%TO.N,GND*%
X120462500Y-110000000D03*
%TD*%
D12*
%TO.P,L1,1,1*%
%TO.N,Net-(D12-K)*%
X72750000Y-167000000D03*
%TO.P,L1,2,2*%
%TO.N,+12V*%
X78250000Y-167000000D03*
%TD*%
D51*
%TO.P,C27,1*%
%TO.N,Net-(U6-AREF)*%
X97485200Y-133047800D03*
%TO.P,C27,2*%
%TO.N,GND*%
X97485200Y-134007800D03*
%TD*%
D18*
%TO.P,C2,1*%
%TO.N,+24V*%
X124053600Y-122704800D03*
%TO.P,C2,2*%
%TO.N,GND*%
X124053600Y-121744800D03*
%TD*%
D23*
%TO.P,R11,1*%
%TO.N,Net-(D10-A)*%
X81000000Y-116037500D03*
%TO.P,R11,2*%
%TO.N,+5V*%
X81000000Y-118962500D03*
%TD*%
D38*
%TO.P,R14,1*%
%TO.N,/Distribution System/drv8825 driver1/3.3V_out*%
X112500000Y-110000000D03*
%TO.P,R14,2*%
%TO.N,Net-(U2-AVREF)*%
X115425000Y-110000000D03*
%TD*%
D16*
%TO.P,C12,1*%
%TO.N,+5V*%
X133500000Y-173300000D03*
%TO.P,C12,2*%
%TO.N,GND*%
X133500000Y-178700000D03*
%TD*%
D47*
%TO.P,C23,1*%
%TO.N,/Distribution System/drv8825 driver/3.3V_out*%
X108062500Y-133200000D03*
%TO.P,C23,2*%
%TO.N,GND*%
X111012500Y-133200000D03*
%TD*%
D24*
%TO.P,R8,1*%
%TO.N,GND*%
X123661900Y-116281200D03*
%TO.P,R8,2*%
%TO.N,/Distribution System/drv8825 driver1/RsenB*%
X120736900Y-116281200D03*
%TD*%
D52*
%TO.P,C19,1*%
%TO.N,/PULLUP*%
X93300000Y-109000000D03*
%TO.P,C19,2*%
%TO.N,GND*%
X94850000Y-109000000D03*
%TD*%
D34*
%TO.P,D13,1,K*%
%TO.N,Net-(D13-K)*%
X50000000Y-160600000D03*
%TO.P,D13,2,A*%
%TO.N,+12V*%
X50000000Y-163400000D03*
%TD*%
D53*
%TO.P,J10,1,Pin_1*%
%TO.N,+12V*%
X135750000Y-96500000D03*
D54*
%TO.P,J10,2,Pin_2*%
%TO.N,Net-(J10-Pin_2)*%
X135750000Y-101500000D03*
%TD*%
D53*
%TO.P,J4,1,Pin_1*%
%TO.N,/LIMIT_SW*%
X121500000Y-86250000D03*
D54*
%TO.P,J4,2,Pin_2*%
%TO.N,GND*%
X126500000Y-86250000D03*
%TD*%
D53*
%TO.P,J13,1,Pin_1*%
%TO.N,/Distribution System/5V relay2/RELAY_OUT*%
X45720000Y-104582600D03*
D54*
%TO.P,J13,2,Pin_2*%
%TO.N,/Distribution System/5V relay3/RELAY_OUT*%
X45720000Y-99582600D03*
%TD*%
%TO.P,J3,1,Pin_1*%
%TO.N,/Distribution System/drv8825 driver/MOT_1*%
X136500000Y-151000000D03*
%TO.P,J3,2,Pin_2*%
%TO.N,/Distribution System/drv8825 driver/MOT_2*%
X136500000Y-146000000D03*
%TO.P,J3,3,Pin_3*%
%TO.N,/Distribution System/drv8825 driver/MOT_3*%
X136500000Y-141000000D03*
D53*
%TO.P,J3,4,Pin_4*%
%TO.N,/Distribution System/drv8825 driver/MOT_4*%
X136500000Y-136000000D03*
%TD*%
D55*
%TO.P,J14,1,Pin_1*%
%TO.N,GND*%
X91545000Y-175500000D03*
D56*
%TO.P,J14,2,Pin_2*%
%TO.N,Net-(D7-A)*%
X86465000Y-175500000D03*
%TD*%
D53*
%TO.P,J12,1,Pin_1*%
%TO.N,+5V*%
X87500000Y-86250000D03*
D54*
%TO.P,J12,2,Pin_2*%
%TO.N,/FLOW_SENSE*%
X92500000Y-86250000D03*
%TO.P,J12,3,Pin_3*%
%TO.N,GND*%
X97500000Y-86250000D03*
%TD*%
%TO.P,J5,1,Pin_1*%
%TO.N,/Distribution System/drv8825 driver1/MOT_1*%
X136250000Y-126000000D03*
%TO.P,J5,2,Pin_2*%
%TO.N,/Distribution System/drv8825 driver1/MOT_2*%
X136250000Y-121000000D03*
%TO.P,J5,3,Pin_3*%
%TO.N,/Distribution System/drv8825 driver1/MOT_3*%
X136250000Y-116000000D03*
D53*
%TO.P,J5,4,Pin_4*%
%TO.N,/Distribution System/drv8825 driver1/MOT_4*%
X136250000Y-111000000D03*
%TD*%
%TO.P,J6,1,Pin_1*%
%TO.N,+5V*%
X104500000Y-86250000D03*
D54*
%TO.P,J6,2,Pin_2*%
%TO.N,/LEVELSENSE_FULL*%
X109500000Y-86250000D03*
%TO.P,J6,3,Pin_3*%
%TO.N,GND*%
X114500000Y-86250000D03*
%TD*%
%TO.P,J11,1,Pin_1*%
%TO.N,/Distribution System/5V relay/RELAY_OUT*%
X45466000Y-132490200D03*
D53*
%TO.P,J11,2,Pin_2*%
%TO.N,/Distribution System/5V relay1/RELAY_OUT*%
X45466000Y-137490200D03*
%TD*%
D57*
%TO.N,GND*%
X98602800Y-134670800D03*
X110185200Y-147802600D03*
X111226600Y-124510800D03*
X127812800Y-133248400D03*
X65354200Y-172897800D03*
X123164600Y-108559600D03*
X84505800Y-131978400D03*
X94843600Y-111455200D03*
D58*
%TO.N,Net-(U4-VIN)*%
X74500000Y-160000000D03*
D57*
X57000000Y-171500000D03*
%TO.N,+24V*%
X105537000Y-130327400D03*
X118719600Y-125298200D03*
X118694200Y-121742200D03*
X118846600Y-115265200D03*
X106857800Y-146202400D03*
X118541800Y-138074400D03*
%TO.N,+5V*%
X109651800Y-120827800D03*
X122072400Y-162356800D03*
X84201000Y-155676600D03*
X107365800Y-121818400D03*
%TO.N,+12V*%
X80340200Y-166776400D03*
X88036400Y-157962600D03*
%TO.N,/Distribution System/drv8825 driver/MOT_2*%
X118000000Y-142836500D03*
%TO.N,/Distribution System/drv8825 driver/MOT_1*%
X118000000Y-144500000D03*
%TO.N,/Distribution System/drv8825 driver/MOT_3*%
X118017398Y-141682771D03*
%TO.N,/Distribution System/drv8825 driver/MOT_4*%
X117500000Y-140000000D03*
%TO.N,/Distribution System/drv8825 driver1/MOT_1*%
X119507000Y-120243600D03*
%TO.N,/Distribution System/drv8825 driver1/MOT_2*%
X118440200Y-118719600D03*
%TO.N,/Distribution System/drv8825 driver1/MOT_3*%
X120599200Y-117957600D03*
%TO.N,/Distribution System/drv8825 driver1/MOT_4*%
X118770400Y-116636800D03*
%TD*%
D59*
%TO.N,GND*%
X120919200Y-95834200D02*
X121445000Y-96360000D01*
X117199600Y-95834200D02*
X120919200Y-95834200D01*
%TO.N,Net-(Q1-B)*%
X113962500Y-96146300D02*
X114274600Y-95834200D01*
X113962500Y-100400000D02*
X113962500Y-96146300D01*
%TO.N,Net-(J10-Pin_2)*%
X128999000Y-98900000D02*
X121445000Y-98900000D01*
X131599000Y-101500000D02*
X128999000Y-98900000D01*
X135750000Y-101500000D02*
X131599000Y-101500000D01*
%TO.N,+12V*%
X139674600Y-100424600D02*
X135750000Y-96500000D01*
X139674600Y-107670600D02*
X139674600Y-100424600D01*
%TO.N,GND*%
X105050000Y-178024200D02*
X105714800Y-178689000D01*
X86790000Y-132770000D02*
X85348200Y-132770000D01*
X100677500Y-162500000D02*
X102177500Y-161000000D01*
X105714800Y-178689000D02*
X123621800Y-178689000D01*
D60*
X110185200Y-147777200D02*
X110185200Y-147802600D01*
X92684600Y-129362200D02*
X93552400Y-130230000D01*
X92684600Y-126949200D02*
X92684600Y-129362200D01*
X128447800Y-174091600D02*
X127539400Y-175000000D01*
X95530300Y-126213500D02*
X93420300Y-126213500D01*
D59*
X102971600Y-127434800D02*
X96721870Y-127434800D01*
X80822800Y-177749200D02*
X80543400Y-177749200D01*
D60*
X93552400Y-130230000D02*
X94410000Y-130230000D01*
D59*
X84505800Y-131978400D02*
X84505800Y-131927600D01*
X53500000Y-178173400D02*
X53492400Y-178181000D01*
D60*
X116625000Y-167725000D02*
X118640400Y-165709600D01*
X121000000Y-132074400D02*
X121000000Y-133200000D01*
X93420300Y-126213500D02*
X92684600Y-126949200D01*
D59*
X71473800Y-179146200D02*
X74120000Y-176500000D01*
D60*
X110200000Y-147762400D02*
X110185200Y-147777200D01*
D59*
X53492400Y-178181000D02*
X54457600Y-179146200D01*
X105050000Y-173500000D02*
X105050000Y-178024200D01*
X136500000Y-156437500D02*
X116287500Y-156437500D01*
D60*
X114985800Y-131572000D02*
X120497600Y-131572000D01*
D59*
X54457600Y-179146200D02*
X71473800Y-179146200D01*
D60*
X115800000Y-137775000D02*
X115800000Y-135688200D01*
X114909600Y-131572000D02*
X114985800Y-131572000D01*
X110200000Y-146225000D02*
X110200000Y-147762400D01*
D59*
X80494200Y-177700000D02*
X75320000Y-177700000D01*
X96721870Y-127434800D02*
X96266000Y-126978930D01*
X84556600Y-131978400D02*
X84505800Y-131978400D01*
D60*
X111200000Y-122725000D02*
X111226600Y-124510800D01*
D59*
X129320000Y-178700000D02*
X125620000Y-175000000D01*
X133500000Y-178700000D02*
X129320000Y-178700000D01*
X94410000Y-130230000D02*
X96397200Y-130230000D01*
D60*
X128447800Y-166141400D02*
X128447800Y-174091600D01*
X96266000Y-126949200D02*
X95530300Y-126213500D01*
X111099600Y-107823000D02*
X113563400Y-107823000D01*
X111226600Y-124510800D02*
X111200000Y-124512000D01*
D59*
X84505800Y-131927600D02*
X84607400Y-132029200D01*
X96266000Y-126978930D02*
X96266000Y-126949200D01*
D60*
X110475000Y-108447600D02*
X111099600Y-107823000D01*
X115800000Y-135688200D02*
X114706400Y-134594600D01*
D59*
X65400000Y-168650000D02*
X65400000Y-172852000D01*
D60*
X120462500Y-108600700D02*
X120462500Y-110000000D01*
X110475000Y-110000000D02*
X110475000Y-108447600D01*
D59*
X102177500Y-161000000D02*
X110450000Y-161000000D01*
D60*
X110159800Y-147802600D02*
X110185200Y-147777200D01*
X115189000Y-112014000D02*
X113944400Y-112014000D01*
X114985800Y-131572000D02*
X112640500Y-131572000D01*
D59*
X50000000Y-155537500D02*
X57687500Y-155537500D01*
D60*
X120497600Y-131572000D02*
X121000000Y-132074400D01*
X113944400Y-112014000D02*
X113563400Y-111633000D01*
D59*
X94850000Y-111448800D02*
X94843600Y-111455200D01*
D60*
X111200000Y-124512000D02*
X111175800Y-124536200D01*
X119684800Y-107823000D02*
X120462500Y-108600700D01*
X118640400Y-165709600D02*
X128016000Y-165709600D01*
D59*
X123621800Y-178689000D02*
X125620000Y-176690800D01*
D60*
X114706400Y-131775200D02*
X114909600Y-131572000D01*
X110185200Y-147802600D02*
X110159800Y-147802600D01*
X112640500Y-131572000D02*
X111012500Y-133200000D01*
D59*
X94850000Y-109000000D02*
X94850000Y-111448800D01*
X59225000Y-157075000D02*
X59225000Y-154825000D01*
X116287500Y-156437500D02*
X116000000Y-156150000D01*
X98602800Y-132435600D02*
X98602800Y-134670800D01*
D60*
X114706400Y-134594600D02*
X114706400Y-131775200D01*
D59*
X53500000Y-173000000D02*
X53500000Y-178173400D01*
X59225000Y-154825000D02*
X53900000Y-149500000D01*
D60*
X116800000Y-113625000D02*
X115189000Y-112014000D01*
X128016000Y-165709600D02*
X128447800Y-166141400D01*
D59*
X96397200Y-130230000D02*
X98602800Y-132435600D01*
X85348200Y-132770000D02*
X84556600Y-131978400D01*
D60*
X127539400Y-175000000D02*
X125620000Y-175000000D01*
D59*
X75320000Y-177700000D02*
X74120000Y-176500000D01*
D60*
X116800000Y-114275000D02*
X116800000Y-113625000D01*
D59*
X80873600Y-177698400D02*
X80822800Y-177749200D01*
D60*
X113563400Y-111633000D02*
X113563400Y-107823000D01*
D59*
X57687500Y-155537500D02*
X59225000Y-157075000D01*
X65400000Y-172852000D02*
X65354200Y-172897800D01*
X80543400Y-177749200D02*
X80494200Y-177700000D01*
X125620000Y-176690800D02*
X125620000Y-175000000D01*
D60*
X113563400Y-107823000D02*
X119684800Y-107823000D01*
%TO.N,Net-(U2-VMA)*%
X121920000Y-122964000D02*
X123058600Y-124102600D01*
X121920000Y-122605800D02*
X120192800Y-120878600D01*
X121920000Y-122964000D02*
X121920000Y-122605800D01*
X116932100Y-120907100D02*
X116800000Y-120775000D01*
X120164300Y-120907100D02*
X116932100Y-120907100D01*
X123058600Y-124102600D02*
X125653800Y-124102600D01*
X120192800Y-120878600D02*
X120164300Y-120907100D01*
%TO.N,Net-(U2-CP1)*%
X116800000Y-122725000D02*
X116800000Y-124493600D01*
X116800000Y-124493600D02*
X116842600Y-124536200D01*
%TO.N,Net-(U2-CP2)*%
X117727000Y-122075000D02*
X118033800Y-122381800D01*
X118033800Y-122381800D02*
X118033800Y-124305000D01*
X118033800Y-124305000D02*
X117802600Y-124536200D01*
X116800000Y-122075000D02*
X117727000Y-122075000D01*
%TO.N,/Distribution System/drv8825 driver1/3.3V_out*%
X109997400Y-112472400D02*
X111200000Y-112472400D01*
X111200000Y-112472400D02*
X111200000Y-114275000D01*
X112500000Y-110000000D02*
X112500000Y-111172400D01*
X107525000Y-110000000D02*
X109997400Y-112472400D01*
X112500000Y-111172400D02*
X111200000Y-112472400D01*
D61*
%TO.N,Net-(U4-VIN)*%
X75000000Y-159500000D02*
X74500000Y-160000000D01*
X76212500Y-159500000D02*
X75000000Y-159500000D01*
X44500000Y-173000000D02*
X48850000Y-168650000D01*
X57000000Y-171500000D02*
X57000000Y-170250000D01*
X48850000Y-168650000D02*
X58600000Y-168650000D01*
X57000000Y-170250000D02*
X58600000Y-168650000D01*
D60*
%TO.N,+24V*%
X119443500Y-147967700D02*
X119555200Y-148079400D01*
D62*
X77812500Y-159475000D02*
X77787500Y-159500000D01*
X91168500Y-165481000D02*
X103098500Y-165481000D01*
D60*
X118237000Y-146761200D02*
X119443500Y-147967700D01*
D62*
X85162500Y-159475000D02*
X77812500Y-159475000D01*
D59*
X103601000Y-149510000D02*
X103671600Y-149580600D01*
D60*
X118377000Y-121425000D02*
X118694200Y-121742200D01*
D59*
X93517200Y-149510000D02*
X98450400Y-149510000D01*
D60*
X118237000Y-146761200D02*
X118237000Y-147726400D01*
D62*
X129971800Y-144596900D02*
X128304800Y-142929900D01*
D59*
X128092200Y-125730000D02*
X129057400Y-124764800D01*
X118719600Y-126238000D02*
X114630200Y-130327400D01*
D60*
X123720800Y-145618200D02*
X126085600Y-145618200D01*
X116727000Y-139725000D02*
X118377600Y-138074400D01*
X126187200Y-122704800D02*
X126263400Y-122628600D01*
X118377600Y-138074400D02*
X118541800Y-138074400D01*
X118237000Y-147345400D02*
X118237000Y-146761200D01*
D62*
X129057400Y-124764800D02*
X129057400Y-122631200D01*
D59*
X114630200Y-130327400D02*
X105537000Y-130327400D01*
D60*
X126085600Y-145618200D02*
X128000000Y-143703800D01*
X119280200Y-149633200D02*
X126415800Y-149633200D01*
D59*
X121488200Y-148259800D02*
X128930400Y-148259800D01*
D62*
X91700000Y-163000000D02*
X92200000Y-162500000D01*
X129235200Y-148239700D02*
X129971800Y-147503100D01*
X88687500Y-163000000D02*
X91700000Y-163000000D01*
D60*
X118237000Y-146761200D02*
X118237000Y-148590000D01*
D59*
X85162500Y-157864700D02*
X92811600Y-150215600D01*
D60*
X117886800Y-116225000D02*
X116800000Y-116225000D01*
D59*
X103601000Y-149510000D02*
X106781600Y-146329400D01*
X98450400Y-149510000D02*
X103601000Y-149510000D01*
D60*
X118237000Y-146761200D02*
X118237000Y-146435000D01*
D59*
X122682000Y-125730000D02*
X128092200Y-125730000D01*
D60*
X128000000Y-143703800D02*
X128000000Y-142950000D01*
X126263400Y-122628600D02*
X129054800Y-122628600D01*
X116727000Y-144925000D02*
X115800000Y-144925000D01*
X129054800Y-122628600D02*
X129057400Y-122631200D01*
X121005600Y-146707800D02*
X122631200Y-146707800D01*
D62*
X129971800Y-147503100D02*
X129971800Y-144596900D01*
D60*
X122379000Y-127052600D02*
X125653800Y-127052600D01*
X119738200Y-121742200D02*
X121920000Y-123924000D01*
X119555200Y-148079400D02*
X119761000Y-148079400D01*
D59*
X118719600Y-125298200D02*
X118719600Y-126238000D01*
D60*
X122631200Y-146707800D02*
X123720800Y-145618200D01*
X124053600Y-122704800D02*
X126187200Y-122704800D01*
X118237000Y-146435000D02*
X116727000Y-144925000D01*
D59*
X85162500Y-159475000D02*
X85162500Y-157864700D01*
D63*
X116001800Y-149580600D02*
X118237000Y-147345400D01*
D60*
X118694200Y-121742200D02*
X118694200Y-123367800D01*
D59*
X92811600Y-150215600D02*
X93517200Y-149510000D01*
D60*
X118237000Y-147726400D02*
X118770400Y-148259800D01*
X121920000Y-123924000D02*
X121920000Y-124180600D01*
D59*
X103671600Y-149580600D02*
X116001800Y-149580600D01*
D60*
X118694200Y-123367800D02*
X122379000Y-127052600D01*
X118237000Y-148590000D02*
X119280200Y-149633200D01*
D62*
X129057400Y-122631200D02*
X129057400Y-115899000D01*
D60*
X116800000Y-121425000D02*
X118377000Y-121425000D01*
X118694200Y-121742200D02*
X122682000Y-125730000D01*
X118694200Y-121742200D02*
X119738200Y-121742200D01*
X115800000Y-139725000D02*
X116727000Y-139725000D01*
D62*
X88687500Y-163000000D02*
X85162500Y-159475000D01*
D60*
X118846600Y-115265200D02*
X117886800Y-116225000D01*
D62*
X88687500Y-163000000D02*
X91168500Y-165481000D01*
D60*
X118770400Y-148259800D02*
X121488200Y-148259800D01*
D59*
%TO.N,Net-(U1-VIN)*%
X109825000Y-167725000D02*
X97349400Y-167725000D01*
X107581000Y-165481000D02*
X109825000Y-167725000D01*
X97231200Y-167843200D02*
X97231200Y-172318800D01*
X97231200Y-172318800D02*
X96050000Y-173500000D01*
X97349400Y-167725000D02*
X97231200Y-167843200D01*
X104673500Y-165481000D02*
X107581000Y-165481000D01*
%TO.N,+5V*%
X90144600Y-133584600D02*
X90144600Y-124485400D01*
X87500000Y-106037500D02*
X90462500Y-109000000D01*
X65717800Y-98882200D02*
X66100000Y-98500000D01*
X71323200Y-115500000D02*
X71323200Y-109448600D01*
X90144600Y-124485400D02*
X90652600Y-123977400D01*
X63576200Y-106349800D02*
X62306200Y-105079800D01*
X62306200Y-105079800D02*
X62306200Y-100660200D01*
X72009000Y-149550000D02*
X66150000Y-149550000D01*
X81005000Y-101962500D02*
X77412500Y-101962500D01*
X131250000Y-165750000D02*
X131250000Y-167500000D01*
X102500000Y-83000000D02*
X104500000Y-85000000D01*
X74000000Y-132550000D02*
X75987500Y-132550000D01*
D62*
X66150000Y-149550000D02*
X66100000Y-149500000D01*
D59*
X75987500Y-132550000D02*
X80400000Y-136962500D01*
X101038200Y-144275000D02*
X98628200Y-146685000D01*
X90750000Y-83000000D02*
X102500000Y-83000000D01*
X78412500Y-118962500D02*
X75000000Y-115550000D01*
X136500000Y-165300000D02*
X133450000Y-165300000D01*
X87500000Y-84198000D02*
X87500000Y-86250000D01*
X63277600Y-115500000D02*
X66100000Y-115500000D01*
X74000000Y-132550000D02*
X66050000Y-132550000D01*
X62585600Y-86715600D02*
X62585600Y-85115400D01*
D60*
X111200000Y-120775000D02*
X109704600Y-120775000D01*
D59*
X62306200Y-100660200D02*
X64084200Y-98882200D01*
D64*
X94460000Y-135310000D02*
X95910000Y-136760000D01*
D59*
X63220600Y-115443000D02*
X63277600Y-115500000D01*
D60*
X97180400Y-146685000D02*
X93218000Y-146685000D01*
D64*
X95910000Y-136760000D02*
X95910000Y-137947400D01*
D59*
X70459600Y-128040400D02*
X70459600Y-124587000D01*
X98628200Y-146685000D02*
X97180400Y-146685000D01*
X90144600Y-133584600D02*
X89887600Y-133327600D01*
X62585600Y-85115400D02*
X64312800Y-83388200D01*
D60*
X90145500Y-141453500D02*
X95554800Y-141453500D01*
D59*
X62128400Y-121716800D02*
X62128400Y-116535200D01*
D60*
X97993200Y-123977400D02*
X99212400Y-122758200D01*
D59*
X115775000Y-164225000D02*
X122351800Y-164225000D01*
X70459600Y-124587000D02*
X68656200Y-122783600D01*
X69850000Y-90093800D02*
X65963800Y-90093800D01*
X86690200Y-83388200D02*
X87500000Y-84198000D01*
X101450000Y-138350000D02*
X101500000Y-138400000D01*
X106500000Y-119962500D02*
X106500000Y-121155800D01*
X93218000Y-146685000D02*
X89966800Y-146685000D01*
X129725000Y-164225000D02*
X131250000Y-165750000D01*
X91870000Y-135310000D02*
X86790000Y-130230000D01*
X89941400Y-141249400D02*
X89941400Y-133381400D01*
X94410000Y-135310000D02*
X91870000Y-135310000D01*
X69037200Y-140919200D02*
X66090800Y-140919200D01*
D60*
X122072400Y-162356800D02*
X122072400Y-163945600D01*
D59*
X102008100Y-119962500D02*
X106500000Y-119962500D01*
X89966800Y-146685000D02*
X89941400Y-146710400D01*
X95554800Y-141453500D02*
X104084000Y-141453500D01*
D60*
X110200000Y-144275000D02*
X106962400Y-144275000D01*
D59*
X103027000Y-138400000D02*
X103403400Y-138023600D01*
X114925000Y-167725000D02*
X114925000Y-165075000D01*
D60*
X90652600Y-123977400D02*
X97993200Y-123977400D01*
D59*
X89941400Y-149936200D02*
X89941400Y-146710400D01*
X70866000Y-98550000D02*
X66150000Y-98550000D01*
X99212400Y-122758200D02*
X102008100Y-119962500D01*
D62*
X80600000Y-155562500D02*
X79275000Y-155562500D01*
D59*
X122351800Y-164225000D02*
X129725000Y-164225000D01*
X62128400Y-116535200D02*
X63220600Y-115443000D01*
X68656200Y-122783600D02*
X63195200Y-122783600D01*
X96312600Y-138350000D02*
X97500000Y-138350000D01*
D60*
X94460000Y-135310000D02*
X94410000Y-135310000D01*
D59*
X87500000Y-86250000D02*
X90750000Y-83000000D01*
X66000000Y-132500000D02*
X70459600Y-128040400D01*
X71323200Y-115500000D02*
X74950000Y-115500000D01*
X103403400Y-138023600D02*
X103403400Y-133248400D01*
D60*
X109704600Y-120775000D02*
X109651800Y-120827800D01*
D59*
X66090800Y-140919200D02*
X63779400Y-138607800D01*
X131250000Y-171050000D02*
X133500000Y-173300000D01*
X106962400Y-144275000D02*
X101038200Y-144275000D01*
X64312800Y-83388200D02*
X86690200Y-83388200D01*
X104500000Y-86250000D02*
X104500000Y-85000000D01*
X89887600Y-133327600D02*
X86790000Y-130230000D01*
X63779400Y-138607800D02*
X63779400Y-134720600D01*
X131250000Y-167500000D02*
X131250000Y-171050000D01*
X74000000Y-98550000D02*
X70866000Y-98550000D01*
X84201000Y-155676600D02*
X89941400Y-149936200D01*
X70866000Y-98550000D02*
X70866000Y-91109800D01*
X101500000Y-138400000D02*
X103027000Y-138400000D01*
X103403400Y-133248400D02*
X102655000Y-132500000D01*
X89941400Y-133381400D02*
X89887600Y-133327600D01*
X70866000Y-91109800D02*
X69850000Y-90093800D01*
X71323200Y-109448600D02*
X68224400Y-106349800D01*
D62*
X66050000Y-132550000D02*
X66000000Y-132500000D01*
D60*
X104084000Y-141453500D02*
X104537500Y-141000000D01*
D59*
X97500000Y-138350000D02*
X101450000Y-138350000D01*
X87500000Y-86250000D02*
X87500000Y-106037500D01*
X63195200Y-122783600D02*
X62128400Y-121716800D01*
X74500000Y-150787500D02*
X74500000Y-149550000D01*
X89941400Y-146710400D02*
X89941400Y-141249400D01*
D60*
X122072400Y-163945600D02*
X122351800Y-164225000D01*
D59*
X72009000Y-143891000D02*
X69037200Y-140919200D01*
X65963800Y-90093800D02*
X62585600Y-86715600D01*
X63779400Y-134720600D02*
X66000000Y-132500000D01*
D60*
X84201000Y-155676600D02*
X84086900Y-155562500D01*
D59*
X74500000Y-149550000D02*
X72009000Y-149550000D01*
X66100000Y-115500000D02*
X71323200Y-115500000D01*
D60*
X89941400Y-141249400D02*
X90145500Y-141453500D01*
D64*
X95910000Y-137947400D02*
X96312600Y-138350000D01*
D59*
X106500000Y-121155800D02*
X107035600Y-121691400D01*
X102655000Y-132500000D02*
X101500000Y-132500000D01*
X72009000Y-149550000D02*
X72009000Y-143891000D01*
D60*
X84086900Y-155562500D02*
X80600000Y-155562500D01*
D59*
X64084200Y-98882200D02*
X65717800Y-98882200D01*
X77412500Y-101962500D02*
X74000000Y-98550000D01*
D62*
X66150000Y-98550000D02*
X66100000Y-98500000D01*
D59*
X81000000Y-118962500D02*
X78412500Y-118962500D01*
X79275000Y-155562500D02*
X74500000Y-150787500D01*
X68224400Y-106349800D02*
X63576200Y-106349800D01*
X133450000Y-165300000D02*
X131250000Y-167500000D01*
X114925000Y-165075000D02*
X115775000Y-164225000D01*
D61*
%TO.N,/PULLUP*%
X86790000Y-111500000D02*
X86790000Y-109747500D01*
X86790000Y-109747500D02*
X87537500Y-109000000D01*
X93300000Y-109700000D02*
X91500000Y-111500000D01*
X91500000Y-111500000D02*
X86790000Y-111500000D01*
X86790000Y-114990000D02*
X86790000Y-111500000D01*
X93300000Y-109000000D02*
X93300000Y-109700000D01*
D59*
%TO.N,+12V*%
X135610000Y-96360000D02*
X135750000Y-96500000D01*
X78473600Y-166776400D02*
X78250000Y-167000000D01*
X88036400Y-157962600D02*
X88036400Y-157937200D01*
X42900000Y-116400000D02*
X47000000Y-120500000D01*
X80340200Y-166776400D02*
X78473600Y-166776400D01*
X51780200Y-164780200D02*
X50400000Y-163400000D01*
X88036400Y-157911800D02*
X88036400Y-157962600D01*
X63700000Y-168650000D02*
X63700000Y-165700000D01*
X63700000Y-165700000D02*
X63150000Y-165150000D01*
X42500000Y-141427200D02*
X42367200Y-141560000D01*
X42900000Y-116400000D02*
X42900000Y-101854000D01*
X43500000Y-143000000D02*
X52500000Y-143000000D01*
X53900000Y-84182800D02*
X53562600Y-83845400D01*
X42500000Y-141427200D02*
X42500000Y-142000000D01*
X52254000Y-101854000D02*
X42900000Y-101854000D01*
X53900000Y-86500000D02*
X53900000Y-84182800D01*
D61*
X80543400Y-172349200D02*
X80822800Y-172349200D01*
X78250000Y-168550000D02*
X80543400Y-170843400D01*
D59*
X42500000Y-142000000D02*
X43500000Y-143000000D01*
X42418000Y-155818000D02*
X50000000Y-163400000D01*
D61*
X76728400Y-167000000D02*
X78250000Y-167000000D01*
D59*
X52500000Y-143000000D02*
X53900000Y-141600000D01*
X53562600Y-83845400D02*
X43662600Y-83845400D01*
X52150000Y-165150000D02*
X51780200Y-164780200D01*
D61*
X80822800Y-172349200D02*
X80873600Y-172298400D01*
D59*
X42367200Y-152704800D02*
X42418000Y-152755600D01*
D62*
X139674600Y-151815800D02*
X137312400Y-154178000D01*
X137312400Y-154178000D02*
X122605800Y-154178000D01*
D59*
X42500000Y-116800000D02*
X42500000Y-141427200D01*
D61*
X80543400Y-170843400D02*
X80543400Y-172349200D01*
D62*
X50400000Y-163400000D02*
X50000000Y-163400000D01*
D59*
X63150000Y-165150000D02*
X52150000Y-165150000D01*
X47000000Y-120500000D02*
X53800000Y-120500000D01*
X53900000Y-103500000D02*
X52254000Y-101854000D01*
X63200000Y-165100000D02*
X63150000Y-165150000D01*
D62*
X119964200Y-151536400D02*
X94411800Y-151536400D01*
X139674600Y-107670600D02*
X139674600Y-151815800D01*
X122605800Y-154178000D02*
X119964200Y-151536400D01*
D59*
X42900000Y-84608000D02*
X42900000Y-101854000D01*
D62*
X94411800Y-151536400D02*
X88798400Y-157149800D01*
D59*
X43662600Y-83845400D02*
X42900000Y-84608000D01*
X53900000Y-141600000D02*
X53900000Y-137500000D01*
X42367200Y-141560000D02*
X42367200Y-152704800D01*
X42418000Y-152755600D02*
X42418000Y-155818000D01*
X42500000Y-116800000D02*
X42900000Y-116400000D01*
D61*
X78250000Y-167000000D02*
X78250000Y-168550000D01*
D59*
X88798400Y-157149800D02*
X88036400Y-157911800D01*
X74828400Y-165100000D02*
X63200000Y-165100000D01*
X76728400Y-167000000D02*
X74828400Y-165100000D01*
D60*
%TO.N,Net-(U5-VMA)*%
X116836669Y-144275000D02*
X119681069Y-147119400D01*
X119761000Y-147119400D02*
X119892900Y-147251300D01*
X119761000Y-147119400D02*
X119839800Y-147119400D01*
X119892900Y-147251300D02*
X125847700Y-147251300D01*
X119681069Y-147119400D02*
X119761000Y-147119400D01*
X125847700Y-147251300D02*
X126415800Y-146683200D01*
X115800000Y-144275000D02*
X116836669Y-144275000D01*
%TO.N,Net-(U5-CP1)*%
X115800000Y-146225000D02*
X115800000Y-146700000D01*
X115800000Y-146700000D02*
X115520000Y-146980000D01*
X115520000Y-146980000D02*
X115520000Y-147904200D01*
%TO.N,Net-(U5-CP2)*%
X116480000Y-147777200D02*
X116480000Y-147520000D01*
X116575000Y-145575000D02*
X115800000Y-145575000D01*
X117000000Y-146000000D02*
X116575000Y-145575000D01*
X117000000Y-147000000D02*
X117000000Y-146000000D01*
X116480000Y-147520000D02*
X117000000Y-147000000D01*
%TO.N,/Distribution System/drv8825 driver/3.3V_out*%
X110200000Y-135300000D02*
X111000000Y-134500000D01*
X110200000Y-137775000D02*
X110200000Y-135300000D01*
X110200000Y-137775000D02*
X110200000Y-135337500D01*
X111775000Y-134500000D02*
X113075000Y-133200000D01*
X111000000Y-134500000D02*
X111775000Y-134500000D01*
X110200000Y-135337500D02*
X108062500Y-133200000D01*
D61*
%TO.N,Net-(D7-A)*%
X86465000Y-167152500D02*
X82312500Y-163000000D01*
X86465000Y-175500000D02*
X86465000Y-167152500D01*
D59*
%TO.N,Net-(D12-K)*%
X72750000Y-169250000D02*
X72750000Y-167000000D01*
X65500000Y-176500000D02*
X67654400Y-174345600D01*
X67654400Y-174345600D02*
X72750000Y-169250000D01*
D61*
X58880000Y-176500000D02*
X58880000Y-172370000D01*
X60300000Y-168650000D02*
X60300000Y-170950000D01*
D59*
X58880000Y-176500000D02*
X65500000Y-176500000D01*
D61*
X58880000Y-172370000D02*
X60300000Y-170950000D01*
D59*
%TO.N,Net-(D13-K)*%
X50000000Y-158462500D02*
X50000000Y-160600000D01*
D61*
%TO.N,Net-(D14-K)*%
X111525000Y-167725000D02*
X111525000Y-173855000D01*
X121000000Y-169500000D02*
X121000000Y-174000000D01*
X120000000Y-175000000D02*
X110380000Y-175000000D01*
X111525000Y-173855000D02*
X110380000Y-175000000D01*
X125750000Y-167500000D02*
X123000000Y-167500000D01*
X123000000Y-167500000D02*
X121000000Y-169500000D01*
X121000000Y-174000000D02*
X120000000Y-175000000D01*
D59*
%TO.N,Net-(D15-K)*%
X136500000Y-162500000D02*
X136500000Y-159362500D01*
D60*
%TO.N,/Distribution System/drv8825 driver/MOT_2*%
X117488500Y-142325000D02*
X115800000Y-142325000D01*
X118000000Y-142836500D02*
X117488500Y-142325000D01*
%TO.N,/Distribution System/drv8825 driver/MOT_1*%
X118000000Y-144500000D02*
X117125000Y-143625000D01*
X117125000Y-143625000D02*
X115800000Y-143625000D01*
%TO.N,/Distribution System/drv8825 driver/MOT_3*%
X118017398Y-141682771D02*
X118009627Y-141675000D01*
X118009627Y-141675000D02*
X115800000Y-141675000D01*
D63*
%TO.N,/Distribution System/drv8825 driver/MOT_4*%
X117125000Y-140375000D02*
X115800000Y-140375000D01*
X117500000Y-140000000D02*
X117125000Y-140375000D01*
D60*
%TO.N,/LIMIT_SW*%
X121500000Y-88000000D02*
X121500000Y-86250000D01*
X94410000Y-120070000D02*
X96930000Y-120070000D01*
X115500000Y-94000000D02*
X121500000Y-88000000D01*
X96930000Y-120070000D02*
X100500000Y-116500000D01*
X100500000Y-116500000D02*
X100500000Y-96000000D01*
X102500000Y-94000000D02*
X115500000Y-94000000D01*
X100500000Y-96000000D02*
X102500000Y-94000000D01*
%TO.N,/Distribution System/drv8825 driver1/MOT_1*%
X119388400Y-120125000D02*
X119507000Y-120243600D01*
X116800000Y-120125000D02*
X119388400Y-120125000D01*
%TO.N,/Distribution System/drv8825 driver1/MOT_2*%
X118440200Y-118719600D02*
X118334800Y-118825000D01*
X118334800Y-118825000D02*
X116800000Y-118825000D01*
%TO.N,/Distribution System/drv8825 driver1/MOT_3*%
X117017400Y-117957600D02*
X120599200Y-117957600D01*
X116800000Y-118175000D02*
X117017400Y-117957600D01*
%TO.N,/Distribution System/drv8825 driver1/MOT_4*%
X116800000Y-116875000D02*
X118532200Y-116875000D01*
X118532200Y-116875000D02*
X118770400Y-116636800D01*
%TO.N,/LEVELSENSE_FULL*%
X109500000Y-88500000D02*
X109500000Y-86250000D01*
X106000000Y-92000000D02*
X109500000Y-88500000D01*
X101500000Y-92000000D02*
X106000000Y-92000000D01*
X100000000Y-93500000D02*
X101500000Y-92000000D01*
X100000000Y-114000000D02*
X100000000Y-93500000D01*
X94410000Y-117530000D02*
X96470000Y-117530000D01*
X96470000Y-117530000D02*
X100000000Y-114000000D01*
%TO.N,/FLOW_SENSE*%
X96500000Y-114500000D02*
X96500000Y-90250000D01*
X96010000Y-114990000D02*
X96500000Y-114500000D01*
X96500000Y-90250000D02*
X92500000Y-86250000D01*
X94410000Y-114990000D02*
X96010000Y-114990000D01*
%TO.N,/VALVE_POWER*%
X101000000Y-102000000D02*
X102600000Y-100400000D01*
X101000000Y-117000000D02*
X101000000Y-102000000D01*
X94410000Y-122610000D02*
X95390000Y-122610000D01*
X95390000Y-122610000D02*
X101000000Y-117000000D01*
X102600000Y-100400000D02*
X111037500Y-100400000D01*
%TO.N,/MP_2*%
X85360000Y-141500000D02*
X86790000Y-142930000D01*
X81462500Y-141500000D02*
X85360000Y-141500000D01*
D59*
%TO.N,Net-(D1-K)*%
X74500000Y-147450000D02*
X74500000Y-142770000D01*
D61*
X74750000Y-147200000D02*
X74500000Y-147450000D01*
D59*
X74500000Y-142445000D02*
X70688200Y-138633200D01*
X80500000Y-147200000D02*
X74750000Y-147200000D01*
X74500000Y-142770000D02*
X74500000Y-142445000D01*
X70688200Y-138633200D02*
X67233200Y-138633200D01*
X67233200Y-138633200D02*
X66100000Y-137500000D01*
%TO.N,Net-(D1-A)*%
X80500000Y-150000000D02*
X80500000Y-152537500D01*
D61*
X80500000Y-152537500D02*
X80600000Y-152637500D01*
D59*
%TO.N,Net-(D3-K)*%
X75350000Y-129100000D02*
X74000000Y-130450000D01*
X74000000Y-130450000D02*
X74000000Y-125370000D01*
X80400000Y-129100000D02*
X75350000Y-129100000D01*
X69130000Y-120500000D02*
X73900000Y-125270000D01*
D61*
X74000000Y-125370000D02*
X73900000Y-125270000D01*
D59*
X66000000Y-120500000D02*
X69130000Y-120500000D01*
%TO.N,Net-(D3-A)*%
X80400000Y-131900000D02*
X80400000Y-134037500D01*
%TO.N,Net-(D5-K)*%
X74500000Y-89770000D02*
X78830000Y-94100000D01*
X72436200Y-87706200D02*
X67306200Y-87706200D01*
X74500000Y-89770000D02*
X74500000Y-95950000D01*
D61*
X78830000Y-94100000D02*
X81005000Y-94100000D01*
D59*
X74500000Y-95950000D02*
X74000000Y-96450000D01*
X67306200Y-87706200D02*
X66100000Y-86500000D01*
X74500000Y-89770000D02*
X72436200Y-87706200D01*
%TO.N,Net-(D5-A)*%
X81005000Y-96900000D02*
X81005000Y-99037500D01*
D61*
%TO.N,Net-(D6-K)*%
X95000000Y-162500000D02*
X97752500Y-162500000D01*
D60*
%TO.N,/MP_1*%
X81862500Y-124000000D02*
X83800000Y-124000000D01*
X83800000Y-124000000D02*
X86790000Y-126990000D01*
X86790000Y-126990000D02*
X86790000Y-127690000D01*
%TO.N,/Distribution System/drv8825 driver1/RsenA*%
X116800000Y-119475000D02*
X121898700Y-119475000D01*
X121898700Y-119475000D02*
X122159300Y-119735600D01*
D59*
%TO.N,Net-(D10-K)*%
X66100000Y-103500000D02*
X67730000Y-103500000D01*
X67730000Y-103500000D02*
X74500000Y-110270000D01*
D60*
X74500000Y-110270000D02*
X75330000Y-111100000D01*
D59*
X74500000Y-112950000D02*
X75000000Y-113450000D01*
X74500000Y-110270000D02*
X74500000Y-112950000D01*
X75330000Y-111100000D02*
X81000000Y-111100000D01*
%TO.N,Net-(D10-A)*%
X81000000Y-113900000D02*
X81000000Y-116037500D01*
D60*
%TO.N,/Distribution System/drv8825 driver1/RsenB*%
X119493100Y-117525000D02*
X120736900Y-116281200D01*
X116800000Y-117525000D02*
X119493100Y-117525000D01*
%TO.N,/ACT_2*%
X85155000Y-90787500D02*
X82367500Y-88000000D01*
X86790000Y-122610000D02*
X85155000Y-120975000D01*
X85155000Y-120975000D02*
X85155000Y-90787500D01*
D61*
%TO.N,/ACT_1*%
X86790000Y-125150000D02*
X86790000Y-124922240D01*
D60*
X84500000Y-122632240D02*
X84500000Y-109500000D01*
X84500000Y-109500000D02*
X83500000Y-108500000D01*
X83462500Y-108500000D02*
X81962500Y-107000000D01*
X86790000Y-124922240D02*
X84500000Y-122632240D01*
D59*
%TO.N,/Distribution System/5V relay/RELAY_OUT*%
X68000000Y-126500000D02*
X51250000Y-126500000D01*
X51250000Y-126500000D02*
X45466000Y-132284000D01*
X45466000Y-132284000D02*
X45466000Y-132490200D01*
%TO.N,/Distribution System/5V relay1/RELAY_OUT*%
X49000000Y-137500000D02*
X45475800Y-137500000D01*
X45475800Y-137500000D02*
X45466000Y-137490200D01*
X57000000Y-143500000D02*
X56000000Y-142500000D01*
X68100000Y-143500000D02*
X57000000Y-143500000D01*
X51000000Y-135500000D02*
X49000000Y-137500000D01*
X56000000Y-142500000D02*
X56000000Y-136000000D01*
X55500000Y-135500000D02*
X51000000Y-135500000D01*
X56000000Y-136000000D02*
X55500000Y-135500000D01*
%TO.N,/Distribution System/5V relay2/RELAY_OUT*%
X45720000Y-104582600D02*
X45587600Y-104582600D01*
X50250000Y-109500000D02*
X45720000Y-104970000D01*
X45720000Y-104970000D02*
X45720000Y-104582600D01*
X68100000Y-109500000D02*
X50250000Y-109500000D01*
%TO.N,/Distribution System/5V relay3/RELAY_OUT*%
X45720000Y-99030000D02*
X45720000Y-99582600D01*
X52250000Y-92500000D02*
X45720000Y-99030000D01*
X45720000Y-99582600D02*
X45587600Y-99582600D01*
X68100000Y-92500000D02*
X52250000Y-92500000D01*
D60*
%TO.N,Net-(Q1-B)*%
X113962500Y-100400000D02*
X115002500Y-101440000D01*
X115002500Y-101440000D02*
X121445000Y-101440000D01*
%TO.N,Net-(Q2-B)*%
X78537500Y-141500000D02*
X76405000Y-141500000D01*
%TO.N,Net-(Q3-B)*%
X78937500Y-124000000D02*
X75805000Y-124000000D01*
D61*
%TO.N,Net-(Q4-B)*%
X78942500Y-88500000D02*
X79442500Y-88000000D01*
D60*
X76405000Y-88500000D02*
X78942500Y-88500000D01*
%TO.N,Net-(Q5-B)*%
X78405000Y-107000000D02*
X76405000Y-109000000D01*
X79037500Y-107000000D02*
X78405000Y-107000000D01*
%TO.N,Net-(U2-AVREF)*%
X118160800Y-110623300D02*
X117537500Y-110000000D01*
X118160800Y-114491200D02*
X118160800Y-110623300D01*
X117727000Y-114925000D02*
X118160800Y-114491200D01*
X115425000Y-110000000D02*
X117537500Y-110000000D01*
X116800000Y-114925000D02*
X117727000Y-114925000D01*
X116800000Y-114925000D02*
X116800000Y-115575000D01*
%TO.N,Net-(U2-DECAY)*%
X106662500Y-116875000D02*
X106500000Y-117037500D01*
X111200000Y-115575000D02*
X111200000Y-114925000D01*
X111200000Y-116875000D02*
X106662500Y-116875000D01*
X111200000Y-115575000D02*
X107962500Y-115575000D01*
X107962500Y-115575000D02*
X106500000Y-117037500D01*
%TO.N,/Distribution System/drv8825 driver/RsenA*%
X117500000Y-143500000D02*
X119537500Y-143500000D01*
X115800000Y-142975000D02*
X116036500Y-143211500D01*
X117211500Y-143211500D02*
X117500000Y-143500000D01*
X116036500Y-143211500D02*
X117211500Y-143211500D01*
D63*
%TO.N,/Distribution System/drv8825 driver/RsenB*%
X117712500Y-141025000D02*
X119037500Y-139700000D01*
X115800000Y-141025000D02*
X117712500Y-141025000D01*
D60*
%TO.N,Net-(U5-AVREF)*%
X118075000Y-137077000D02*
X118075000Y-133200000D01*
X115800000Y-138425000D02*
X115800000Y-139075000D01*
X116727000Y-138425000D02*
X118075000Y-137077000D01*
X115800000Y-138425000D02*
X116727000Y-138425000D01*
X118075000Y-133200000D02*
X116000000Y-133200000D01*
%TO.N,Net-(U5-DECAY)*%
X110075000Y-140500000D02*
X110200000Y-140375000D01*
X110200000Y-139075000D02*
X109387500Y-139075000D01*
X110200000Y-138425000D02*
X110200000Y-139075000D01*
X107462500Y-140500000D02*
X110075000Y-140500000D01*
X109387500Y-139075000D02*
X107462500Y-141000000D01*
%TO.N,/MAINPUMP_DIR*%
X97000000Y-129000000D02*
X106500000Y-129000000D01*
X95690000Y-127690000D02*
X97000000Y-129000000D01*
X109975000Y-117525000D02*
X111200000Y-117525000D01*
X94410000Y-127690000D02*
X95690000Y-127690000D01*
X106500000Y-129000000D02*
X108712000Y-126788000D01*
X108712000Y-118788000D02*
X109975000Y-117525000D01*
X108712000Y-126788000D02*
X108712000Y-118788000D01*
%TO.N,/MAINPUMP_STEP*%
X102906714Y-139496800D02*
X104093899Y-138309615D01*
X110175000Y-118825000D02*
X111200000Y-118825000D01*
X94410000Y-137850000D02*
X96056800Y-139496800D01*
X106527600Y-129489200D02*
X108966000Y-127050800D01*
X104241600Y-129489200D02*
X106527600Y-129489200D01*
X96056800Y-139496800D02*
X102906714Y-139496800D01*
X104093899Y-138309615D02*
X104093899Y-129636901D01*
X108966000Y-127050800D02*
X108966000Y-120034000D01*
X108966000Y-120034000D02*
X110175000Y-118825000D01*
X104093899Y-129636901D02*
X104241600Y-129489200D01*
%TO.N,/MOTOR_DIR*%
X109373000Y-141025000D02*
X107898000Y-142500000D01*
X95504000Y-142494000D02*
X94846000Y-142494000D01*
X110200000Y-141025000D02*
X109373000Y-141025000D01*
X107898000Y-142500000D02*
X95510000Y-142500000D01*
X94846000Y-142494000D02*
X94410000Y-142930000D01*
X95510000Y-142500000D02*
X95504000Y-142494000D01*
%TO.N,/MOTOR_STEP*%
X110200000Y-142325000D02*
X109175000Y-142325000D01*
X109175000Y-142325000D02*
X108500000Y-143000000D01*
X99163600Y-143000000D02*
X96693600Y-145470000D01*
X96693600Y-145470000D02*
X94410000Y-145470000D01*
X108500000Y-143000000D02*
X99163600Y-143000000D01*
%TO.N,Net-(U6-AREF)*%
X97500000Y-133020000D02*
X94660000Y-133020000D01*
X94660000Y-133020000D02*
X94410000Y-132770000D01*
%TO.N,Net-(D8-A)*%
X100865200Y-124634800D02*
X102971600Y-124634800D01*
X100000000Y-125500000D02*
X100865200Y-124634800D01*
%TO.N,Net-(U6-PC1)*%
X94410000Y-125150000D02*
X96725000Y-125150000D01*
D61*
X96725000Y-125150000D02*
X97075000Y-125500000D01*
%TD*%
%TA.AperFunction,Conductor*%
%TO.N,GND*%
G36*
X131287222Y-131312534D02*
G01*
X131333212Y-131365134D01*
X131344643Y-131415898D01*
X131494531Y-146279783D01*
X131475523Y-146347017D01*
X131423183Y-146393302D01*
X131369979Y-146405032D01*
X131345742Y-146404923D01*
X131278792Y-146384937D01*
X131233275Y-146331928D01*
X131222300Y-146280924D01*
X131222300Y-144674085D01*
X131223080Y-144660200D01*
X131225876Y-144635384D01*
X131227038Y-144625073D01*
X131222580Y-144558966D01*
X131222300Y-144550625D01*
X131222300Y-144540752D01*
X131222300Y-144540745D01*
X131218638Y-144500072D01*
X131218430Y-144497416D01*
X131213362Y-144422234D01*
X131211897Y-144400493D01*
X131210828Y-144396251D01*
X131207568Y-144377069D01*
X131207177Y-144372712D01*
X131181327Y-144279050D01*
X131180631Y-144276414D01*
X131180275Y-144275000D01*
X131156896Y-144182217D01*
X131155089Y-144178239D01*
X131148453Y-144159934D01*
X131147292Y-144155728D01*
X131105151Y-144068220D01*
X131103972Y-144065700D01*
X131063808Y-143977277D01*
X131063807Y-143977274D01*
X131061317Y-143973680D01*
X131051525Y-143956864D01*
X131049630Y-143952929D01*
X131049627Y-143952924D01*
X130992540Y-143874350D01*
X130990962Y-143872128D01*
X130935620Y-143792246D01*
X130932529Y-143789155D01*
X130919893Y-143774361D01*
X130917321Y-143770821D01*
X130917318Y-143770818D01*
X130847099Y-143703681D01*
X130845110Y-143701736D01*
X129786818Y-142643444D01*
X129753333Y-142582121D01*
X129750499Y-142555763D01*
X129750499Y-141399998D01*
X129750498Y-141399981D01*
X129739999Y-141297203D01*
X129739998Y-141297200D01*
X129684814Y-141130666D01*
X129592712Y-140981344D01*
X129468656Y-140857288D01*
X129375888Y-140800069D01*
X129319336Y-140765187D01*
X129319331Y-140765185D01*
X129317862Y-140764698D01*
X129152797Y-140710001D01*
X129152795Y-140710000D01*
X129050010Y-140699500D01*
X126949998Y-140699500D01*
X126949981Y-140699501D01*
X126847203Y-140710000D01*
X126847200Y-140710001D01*
X126680668Y-140765185D01*
X126680663Y-140765187D01*
X126531342Y-140857289D01*
X126407289Y-140981342D01*
X126315187Y-141130663D01*
X126315186Y-141130666D01*
X126260001Y-141297203D01*
X126260001Y-141297204D01*
X126260000Y-141297204D01*
X126249500Y-141399983D01*
X126249500Y-144500001D01*
X126249501Y-144500019D01*
X126258034Y-144583543D01*
X126245264Y-144652236D01*
X126222357Y-144683825D01*
X125888302Y-145017881D01*
X125826979Y-145051366D01*
X125800621Y-145054200D01*
X123765894Y-145054200D01*
X123749710Y-145053139D01*
X123735100Y-145051215D01*
X123720801Y-145049333D01*
X123720799Y-145049333D01*
X123705358Y-145051366D01*
X123683832Y-145054200D01*
X123573566Y-145068717D01*
X123573565Y-145068717D01*
X123436365Y-145125547D01*
X123318548Y-145215951D01*
X123300790Y-145239092D01*
X123290099Y-145251282D01*
X122650402Y-145890981D01*
X122589079Y-145924466D01*
X122562721Y-145927300D01*
X122396502Y-145927300D01*
X122360208Y-145930156D01*
X122360202Y-145930157D01*
X122204809Y-145975304D01*
X122204806Y-145975305D01*
X122065515Y-146057681D01*
X122065507Y-146057687D01*
X122015716Y-146107480D01*
X121954393Y-146140966D01*
X121928034Y-146143800D01*
X121708766Y-146143800D01*
X121641727Y-146124115D01*
X121621084Y-146107480D01*
X121571292Y-146057687D01*
X121571284Y-146057681D01*
X121431993Y-145975305D01*
X121431990Y-145975304D01*
X121276597Y-145930157D01*
X121276591Y-145930156D01*
X121240297Y-145927300D01*
X121240290Y-145927300D01*
X120770910Y-145927300D01*
X120770902Y-145927300D01*
X120734608Y-145930156D01*
X120734602Y-145930157D01*
X120579209Y-145975304D01*
X120579206Y-145975305D01*
X120439915Y-146057681D01*
X120439905Y-146057688D01*
X120423170Y-146074424D01*
X120361846Y-146107908D01*
X120292155Y-146102922D01*
X120236222Y-146061049D01*
X120211807Y-145995584D01*
X120211513Y-145989037D01*
X120191017Y-144867923D01*
X120209473Y-144800537D01*
X120249897Y-144760122D01*
X120318656Y-144717712D01*
X120442712Y-144593656D01*
X120534814Y-144444334D01*
X120589999Y-144277797D01*
X120600500Y-144175009D01*
X120600499Y-142824992D01*
X120589999Y-142722203D01*
X120534814Y-142555666D01*
X120442712Y-142406344D01*
X120318656Y-142282288D01*
X120199396Y-142208728D01*
X120152673Y-142156781D01*
X120140515Y-142105457D01*
X120100519Y-139917667D01*
X120100499Y-139915543D01*
X120100499Y-139024992D01*
X120089999Y-138922203D01*
X120087799Y-138915565D01*
X120081527Y-138878836D01*
X119964221Y-132462148D01*
X119964200Y-132459881D01*
X119964200Y-131466846D01*
X119983885Y-131399807D01*
X120036689Y-131354052D01*
X120087641Y-131342847D01*
X131220096Y-131293149D01*
X131287222Y-131312534D01*
G37*
%TD.AperFunction*%
%TD*%
%TA.AperFunction,Conductor*%
%TO.N,GND*%
G36*
X96889442Y-133696992D02*
G01*
X96946931Y-133714132D01*
X97058805Y-133780294D01*
X97099787Y-133792200D01*
X97214202Y-133825442D01*
X97214205Y-133825442D01*
X97214207Y-133825443D01*
X97250510Y-133828300D01*
X97250518Y-133828300D01*
X97719882Y-133828300D01*
X97719890Y-133828300D01*
X97756193Y-133825443D01*
X97756195Y-133825442D01*
X97756197Y-133825442D01*
X97797175Y-133813536D01*
X97911595Y-133780294D01*
X98008697Y-133722867D01*
X98071818Y-133705600D01*
X102278900Y-133705600D01*
X102345939Y-133725285D01*
X102391694Y-133778089D01*
X102402900Y-133829600D01*
X102402900Y-137138676D01*
X102383215Y-137205715D01*
X102330411Y-137251470D01*
X102279412Y-137262675D01*
X96785012Y-137285379D01*
X96717892Y-137265972D01*
X96671919Y-137213357D01*
X96660500Y-137161380D01*
X96660500Y-136823705D01*
X96661809Y-136805735D01*
X96662129Y-136803547D01*
X96665289Y-136781977D01*
X96660972Y-136732630D01*
X96660500Y-136721822D01*
X96660500Y-136716296D01*
X96660500Y-136716291D01*
X96656901Y-136685509D01*
X96656536Y-136681929D01*
X96649999Y-136607201D01*
X96648539Y-136600129D01*
X96648597Y-136600116D01*
X96646965Y-136592757D01*
X96646906Y-136592772D01*
X96645241Y-136585751D01*
X96645241Y-136585745D01*
X96619569Y-136515212D01*
X96618421Y-136511909D01*
X96594814Y-136440666D01*
X96594810Y-136440659D01*
X96591760Y-136434118D01*
X96591815Y-136434091D01*
X96588533Y-136427313D01*
X96588480Y-136427340D01*
X96585235Y-136420880D01*
X96544025Y-136358223D01*
X96542086Y-136355181D01*
X96502710Y-136291342D01*
X96498234Y-136285682D01*
X96498281Y-136285644D01*
X96493519Y-136279799D01*
X96493474Y-136279838D01*
X96488831Y-136274305D01*
X96471395Y-136257855D01*
X96436141Y-136197532D01*
X96432566Y-136163304D01*
X96515591Y-133805393D01*
X96537622Y-133739091D01*
X96592004Y-133695223D01*
X96645142Y-133685888D01*
X96889442Y-133696992D01*
G37*
%TD.AperFunction*%
%TD*%
%TA.AperFunction,Conductor*%
%TO.N,GND*%
G36*
X67641773Y-166120185D02*
G01*
X67687528Y-166172989D01*
X67698733Y-166224145D01*
X67716049Y-172267539D01*
X67696557Y-172334634D01*
X67643884Y-172380540D01*
X67594156Y-172391876D01*
X60647420Y-172509867D01*
X60580056Y-172491324D01*
X60533411Y-172439305D01*
X60522294Y-172370325D01*
X60550236Y-172306285D01*
X60557611Y-172298227D01*
X61028564Y-171827274D01*
X61044317Y-171813950D01*
X61046977Y-171812057D01*
X61111478Y-171744408D01*
X61113501Y-171742338D01*
X61141163Y-171714677D01*
X61141163Y-171714676D01*
X61141168Y-171714672D01*
X61146973Y-171707639D01*
X61152835Y-171701034D01*
X61196623Y-171655112D01*
X61214684Y-171627007D01*
X61223371Y-171615112D01*
X61244639Y-171589354D01*
X61244641Y-171589352D01*
X61275055Y-171533650D01*
X61279572Y-171526039D01*
X61313861Y-171472686D01*
X61313860Y-171472686D01*
X61313863Y-171472683D01*
X61326277Y-171441671D01*
X61332559Y-171428340D01*
X61348568Y-171399024D01*
X61367891Y-171338571D01*
X61370876Y-171330269D01*
X61394460Y-171271362D01*
X61400781Y-171238559D01*
X61404430Y-171224268D01*
X61414597Y-171192466D01*
X61417444Y-171168657D01*
X61422127Y-171129479D01*
X61423487Y-171120750D01*
X61435500Y-171058427D01*
X61435500Y-171025026D01*
X61436377Y-171010305D01*
X61440342Y-170977145D01*
X61435816Y-170913861D01*
X61435500Y-170905016D01*
X61435500Y-168595915D01*
X61435500Y-168595909D01*
X61420052Y-168434128D01*
X61366691Y-168252397D01*
X61357293Y-168220390D01*
X61358041Y-168220170D01*
X61350499Y-168181031D01*
X61350499Y-166549998D01*
X61350498Y-166549981D01*
X61339999Y-166447203D01*
X61339998Y-166447200D01*
X61295694Y-166313502D01*
X61293293Y-166243676D01*
X61329024Y-166183634D01*
X61391545Y-166152441D01*
X61413401Y-166150500D01*
X62575500Y-166150500D01*
X62642539Y-166170185D01*
X62688294Y-166222989D01*
X62699500Y-166274500D01*
X62699500Y-166307993D01*
X62693206Y-166346997D01*
X62660001Y-166447203D01*
X62660000Y-166447204D01*
X62649500Y-166549983D01*
X62649500Y-170750001D01*
X62649501Y-170750018D01*
X62660000Y-170852796D01*
X62660001Y-170852799D01*
X62715185Y-171019331D01*
X62715187Y-171019336D01*
X62739299Y-171058427D01*
X62807288Y-171168656D01*
X62931344Y-171292712D01*
X63080666Y-171384814D01*
X63247203Y-171439999D01*
X63349991Y-171450500D01*
X64050008Y-171450499D01*
X64050016Y-171450498D01*
X64050019Y-171450498D01*
X64106302Y-171444748D01*
X64152797Y-171439999D01*
X64319334Y-171384814D01*
X64468656Y-171292712D01*
X64592712Y-171168656D01*
X64684814Y-171019334D01*
X64739999Y-170852797D01*
X64750500Y-170750009D01*
X64750499Y-166549992D01*
X64739999Y-166447203D01*
X64706794Y-166346996D01*
X64700500Y-166307992D01*
X64700500Y-166224500D01*
X64720185Y-166157461D01*
X64772989Y-166111706D01*
X64824500Y-166100500D01*
X67574734Y-166100500D01*
X67641773Y-166120185D01*
G37*
%TD.AperFunction*%
%TA.AperFunction,Conductor*%
G36*
X67606996Y-154681407D02*
G01*
X67653752Y-154733327D01*
X67665961Y-154786629D01*
X67669413Y-155991680D01*
X67692289Y-163975147D01*
X67672798Y-164042240D01*
X67620125Y-164088146D01*
X67568291Y-164099500D01*
X63214278Y-164099500D01*
X63211138Y-164099460D01*
X63123637Y-164097243D01*
X63123628Y-164097243D01*
X63065579Y-164107648D01*
X63056252Y-164108956D01*
X62997564Y-164114925D01*
X62997557Y-164114927D01*
X62968524Y-164124035D01*
X62953290Y-164127774D01*
X62923344Y-164133142D01*
X62904546Y-164140652D01*
X62858547Y-164149500D01*
X55852416Y-164149500D01*
X55785377Y-164129815D01*
X55739622Y-164077011D01*
X55728417Y-164025856D01*
X55728271Y-163975145D01*
X55702550Y-155011201D01*
X55722042Y-154944106D01*
X55774714Y-154898200D01*
X55824179Y-154886869D01*
X67539595Y-154663007D01*
X67606996Y-154681407D01*
G37*
%TD.AperFunction*%
%TD*%
%TA.AperFunction,Conductor*%
%TO.N,GND*%
G36*
X131029955Y-107161912D02*
G01*
X131075945Y-107214512D01*
X131087376Y-107265276D01*
X131237247Y-122127471D01*
X131218239Y-122194705D01*
X131165899Y-122240990D01*
X131111041Y-122252701D01*
X130429688Y-122240543D01*
X130363010Y-122219666D01*
X130318205Y-122166054D01*
X130307900Y-122116563D01*
X130307900Y-118194908D01*
X130327585Y-118127869D01*
X130371671Y-118089363D01*
X130370587Y-118087605D01*
X130376732Y-118083814D01*
X130376734Y-118083814D01*
X130526056Y-117991712D01*
X130650112Y-117867656D01*
X130742214Y-117718334D01*
X130797399Y-117551797D01*
X130807900Y-117449009D01*
X130807899Y-114348992D01*
X130797399Y-114246203D01*
X130742214Y-114079666D01*
X130650112Y-113930344D01*
X130526056Y-113806288D01*
X130376734Y-113714186D01*
X130210197Y-113659001D01*
X130210195Y-113659000D01*
X130107410Y-113648500D01*
X128007398Y-113648500D01*
X128007381Y-113648501D01*
X127904603Y-113659000D01*
X127904600Y-113659001D01*
X127738068Y-113714185D01*
X127738063Y-113714187D01*
X127588742Y-113806289D01*
X127464689Y-113930342D01*
X127372587Y-114079663D01*
X127372586Y-114079666D01*
X127317401Y-114246203D01*
X127317401Y-114246204D01*
X127317400Y-114246204D01*
X127306900Y-114348983D01*
X127306900Y-117449001D01*
X127306901Y-117449018D01*
X127317400Y-117551796D01*
X127317401Y-117551799D01*
X127351202Y-117653802D01*
X127372586Y-117718334D01*
X127464688Y-117867656D01*
X127588744Y-117991712D01*
X127738066Y-118083814D01*
X127738067Y-118083814D01*
X127744213Y-118087605D01*
X127743106Y-118089399D01*
X127787737Y-118128687D01*
X127806900Y-118194908D01*
X127806900Y-121940600D01*
X127787215Y-122007639D01*
X127734411Y-122053394D01*
X127682900Y-122064600D01*
X126966566Y-122064600D01*
X126899527Y-122044915D01*
X126878884Y-122028280D01*
X126829092Y-121978487D01*
X126829084Y-121978481D01*
X126689793Y-121896105D01*
X126689790Y-121896104D01*
X126534397Y-121850957D01*
X126534391Y-121850956D01*
X126498097Y-121848100D01*
X126498090Y-121848100D01*
X126028710Y-121848100D01*
X126028702Y-121848100D01*
X125992408Y-121850956D01*
X125992402Y-121850957D01*
X125837009Y-121896104D01*
X125837006Y-121896105D01*
X125697715Y-121978481D01*
X125697707Y-121978487D01*
X125577766Y-122098429D01*
X125576846Y-122097509D01*
X125526732Y-122133705D01*
X125485391Y-122140800D01*
X124840980Y-122140800D01*
X124838768Y-122140780D01*
X124836655Y-122140742D01*
X124753021Y-122139249D01*
X124686344Y-122118371D01*
X124667553Y-122102949D01*
X124619292Y-122054687D01*
X124619284Y-122054681D01*
X124539740Y-122007639D01*
X124479995Y-121972306D01*
X124479994Y-121972305D01*
X124479993Y-121972305D01*
X124479990Y-121972304D01*
X124324597Y-121927157D01*
X124324591Y-121927156D01*
X124288297Y-121924300D01*
X124288290Y-121924300D01*
X123818910Y-121924300D01*
X123818902Y-121924300D01*
X123782608Y-121927156D01*
X123782602Y-121927157D01*
X123627209Y-121972304D01*
X123627206Y-121972305D01*
X123487918Y-122054679D01*
X123487907Y-122054687D01*
X123464242Y-122078352D01*
X123402918Y-122111835D01*
X123374352Y-122114648D01*
X122255674Y-122094687D01*
X122188996Y-122073810D01*
X122170205Y-122058388D01*
X121311437Y-121199620D01*
X121277952Y-121138297D01*
X121282936Y-121068605D01*
X121324808Y-121012672D01*
X121390272Y-120988255D01*
X121458545Y-121003107D01*
X121464195Y-121006388D01*
X121527466Y-121045414D01*
X121694003Y-121100599D01*
X121796791Y-121111100D01*
X122521808Y-121111099D01*
X122521816Y-121111098D01*
X122521819Y-121111098D01*
X122578102Y-121105348D01*
X122624597Y-121100599D01*
X122791134Y-121045414D01*
X122940456Y-120953312D01*
X123064512Y-120829256D01*
X123156614Y-120679934D01*
X123211799Y-120513397D01*
X123222300Y-120410609D01*
X123222299Y-119060592D01*
X123211799Y-118957803D01*
X123156614Y-118791266D01*
X123064512Y-118641944D01*
X122940456Y-118517888D01*
X122791134Y-118425786D01*
X122624597Y-118370601D01*
X122624595Y-118370600D01*
X122521810Y-118360100D01*
X121796798Y-118360100D01*
X121796780Y-118360101D01*
X121694003Y-118370600D01*
X121694000Y-118370601D01*
X121610488Y-118398275D01*
X121540660Y-118400677D01*
X121480618Y-118364945D01*
X121449425Y-118302425D01*
X121453553Y-118242251D01*
X121453624Y-118242033D01*
X121484874Y-118145856D01*
X121504660Y-117957600D01*
X121484874Y-117769344D01*
X121447332Y-117653802D01*
X121445337Y-117583961D01*
X121481417Y-117524128D01*
X121500161Y-117509949D01*
X121518056Y-117498912D01*
X121642112Y-117374856D01*
X121734214Y-117225534D01*
X121789399Y-117058997D01*
X121799900Y-116956209D01*
X121799899Y-115606192D01*
X121789399Y-115503403D01*
X121734214Y-115336866D01*
X121642112Y-115187544D01*
X121518056Y-115063488D01*
X121368734Y-114971386D01*
X121202197Y-114916201D01*
X121202195Y-114916200D01*
X121099410Y-114905700D01*
X120374398Y-114905700D01*
X120374380Y-114905701D01*
X120271603Y-114916200D01*
X120271600Y-114916201D01*
X120105068Y-114971385D01*
X120105063Y-114971387D01*
X119955744Y-115063487D01*
X119926858Y-115092374D01*
X119865534Y-115125858D01*
X119795843Y-115120872D01*
X119739910Y-115079000D01*
X119721249Y-115043013D01*
X119680045Y-114916200D01*
X119673781Y-114896921D01*
X119673778Y-114896915D01*
X119664918Y-114881569D01*
X119648311Y-114818456D01*
X119706933Y-108310378D01*
X119706933Y-108310377D01*
X119706933Y-107316224D01*
X119726618Y-107249185D01*
X119779422Y-107203430D01*
X119830374Y-107192225D01*
X130962829Y-107142527D01*
X131029955Y-107161912D01*
G37*
%TD.AperFunction*%
%TD*%
%TA.AperFunction,Conductor*%
%TO.N,GND*%
G36*
X119358623Y-153592787D02*
G01*
X119425496Y-153613023D01*
X119470814Y-153666202D01*
X119481600Y-153716783D01*
X119481600Y-163100500D01*
X119461915Y-163167539D01*
X119409111Y-163213294D01*
X119357600Y-163224500D01*
X115789278Y-163224500D01*
X115786138Y-163224460D01*
X115749654Y-163223535D01*
X115698637Y-163222243D01*
X115698636Y-163222243D01*
X115698627Y-163222243D01*
X115640572Y-163232649D01*
X115631243Y-163233958D01*
X115572562Y-163239925D01*
X115543532Y-163249033D01*
X115528294Y-163252773D01*
X115498349Y-163258140D01*
X115498347Y-163258141D01*
X115443554Y-163280026D01*
X115434685Y-163283183D01*
X115378417Y-163300838D01*
X115378406Y-163300843D01*
X115351814Y-163315602D01*
X115337645Y-163322332D01*
X115309380Y-163333623D01*
X115309373Y-163333627D01*
X115260122Y-163366086D01*
X115252066Y-163370967D01*
X115200502Y-163399588D01*
X115200499Y-163399590D01*
X115177405Y-163419414D01*
X115164883Y-163428855D01*
X115139482Y-163445598D01*
X115139475Y-163445603D01*
X115097781Y-163487297D01*
X115090874Y-163493698D01*
X115046106Y-163532132D01*
X115046105Y-163532133D01*
X115027480Y-163556194D01*
X115017107Y-163567971D01*
X114227646Y-164357432D01*
X114225399Y-164359624D01*
X114161946Y-164419942D01*
X114128245Y-164468361D01*
X114122574Y-164475882D01*
X114085302Y-164521592D01*
X114085298Y-164521598D01*
X114071209Y-164548568D01*
X114063082Y-164561983D01*
X114045702Y-164586955D01*
X114022438Y-164641165D01*
X114018398Y-164649672D01*
X113991090Y-164701951D01*
X113991090Y-164701952D01*
X113982720Y-164731201D01*
X113977459Y-164745979D01*
X113965459Y-164773943D01*
X113953588Y-164831711D01*
X113951342Y-164840860D01*
X113935113Y-164897577D01*
X113932802Y-164927926D01*
X113930622Y-164943466D01*
X113924500Y-164973258D01*
X113924500Y-165032240D01*
X113924142Y-165041656D01*
X113919662Y-165100474D01*
X113923506Y-165130649D01*
X113924500Y-165146317D01*
X113924500Y-165382993D01*
X113918206Y-165421997D01*
X113885001Y-165522203D01*
X113885000Y-165522204D01*
X113874500Y-165624983D01*
X113874500Y-169825001D01*
X113874501Y-169825018D01*
X113885000Y-169927796D01*
X113885001Y-169927799D01*
X113940185Y-170094331D01*
X113940186Y-170094334D01*
X114032288Y-170243656D01*
X114156344Y-170367712D01*
X114305666Y-170459814D01*
X114472203Y-170514999D01*
X114574991Y-170525500D01*
X115275008Y-170525499D01*
X115275016Y-170525498D01*
X115275019Y-170525498D01*
X115352902Y-170517542D01*
X115377797Y-170514999D01*
X115544334Y-170459814D01*
X115693656Y-170367712D01*
X115817712Y-170243656D01*
X115909814Y-170094334D01*
X115964999Y-169927797D01*
X115975500Y-169825009D01*
X115975499Y-165624992D01*
X115964999Y-165522203D01*
X115964311Y-165515467D01*
X115967404Y-165515151D01*
X115971535Y-165459077D01*
X115999938Y-165414981D01*
X116153103Y-165261816D01*
X116214426Y-165228334D01*
X116240783Y-165225500D01*
X119357600Y-165225500D01*
X119424639Y-165245185D01*
X119470394Y-165297989D01*
X119481600Y-165349500D01*
X119481600Y-171730840D01*
X119461915Y-171797879D01*
X119409111Y-171843634D01*
X119356050Y-171854830D01*
X112782950Y-171772666D01*
X112716162Y-171752145D01*
X112671071Y-171698774D01*
X112660500Y-171648676D01*
X112660500Y-167670915D01*
X112660500Y-167670909D01*
X112645052Y-167509128D01*
X112583957Y-167301058D01*
X112582293Y-167295390D01*
X112583041Y-167295170D01*
X112575499Y-167256031D01*
X112575499Y-165624998D01*
X112575498Y-165624981D01*
X112564999Y-165522203D01*
X112564998Y-165522200D01*
X112562662Y-165515151D01*
X112509814Y-165355666D01*
X112417712Y-165206344D01*
X112293656Y-165082288D01*
X112144334Y-164990186D01*
X111977797Y-164935001D01*
X111977795Y-164935000D01*
X111875010Y-164924500D01*
X111174998Y-164924500D01*
X111174980Y-164924501D01*
X111072203Y-164935000D01*
X111072200Y-164935001D01*
X110905668Y-164990185D01*
X110905663Y-164990187D01*
X110756342Y-165082289D01*
X110751909Y-165085795D01*
X110687113Y-165111934D01*
X110618471Y-165098892D01*
X110598091Y-165085795D01*
X110593657Y-165082289D01*
X110593656Y-165082288D01*
X110444334Y-164990186D01*
X110277797Y-164935001D01*
X110277795Y-164935000D01*
X110175010Y-164924500D01*
X109474998Y-164924500D01*
X109474980Y-164924501D01*
X109372203Y-164935000D01*
X109372200Y-164935001D01*
X109205668Y-164990185D01*
X109205663Y-164990187D01*
X109056342Y-165082289D01*
X108932288Y-165206343D01*
X108927807Y-165212011D01*
X108926064Y-165210633D01*
X108882127Y-165250128D01*
X108813161Y-165261329D01*
X108749088Y-165233465D01*
X108740891Y-165225971D01*
X108298566Y-164783646D01*
X108296373Y-164781397D01*
X108289286Y-164773942D01*
X108236059Y-164717947D01*
X108187640Y-164684246D01*
X108180120Y-164678575D01*
X108134413Y-164641305D01*
X108134406Y-164641301D01*
X108107441Y-164627216D01*
X108094026Y-164619089D01*
X108069049Y-164601705D01*
X108069046Y-164601703D01*
X108069045Y-164601703D01*
X108069041Y-164601701D01*
X108014845Y-164578443D01*
X108006336Y-164574402D01*
X107954057Y-164547094D01*
X107954046Y-164547090D01*
X107924806Y-164538723D01*
X107910021Y-164533459D01*
X107882058Y-164521459D01*
X107824273Y-164509583D01*
X107815127Y-164507338D01*
X107758423Y-164491113D01*
X107734699Y-164489306D01*
X107728072Y-164488801D01*
X107712533Y-164486622D01*
X107682742Y-164480500D01*
X107682741Y-164480500D01*
X107623759Y-164480500D01*
X107614344Y-164480142D01*
X107611643Y-164479936D01*
X107555524Y-164475662D01*
X107525349Y-164479506D01*
X107509682Y-164480500D01*
X107352119Y-164480500D01*
X107285080Y-164460815D01*
X107239325Y-164408011D01*
X107228123Y-164357538D01*
X107221516Y-163567971D01*
X107138254Y-153618267D01*
X107157377Y-153551069D01*
X107209796Y-153504874D01*
X107263268Y-153493237D01*
X119358623Y-153592787D01*
G37*
%TD.AperFunction*%
%TD*%
M02*
