%TF.GenerationSoftware,KiCad,Pcbnew,7.0.10*%
%TF.CreationDate,2024-08-08T13:18:56-05:00*%
%TF.ProjectId,river_sampler,72697665-725f-4736-916d-706c65722e6b,rev?*%
%TF.SameCoordinates,Original*%
%TF.FileFunction,Plated,1,2,PTH,Drill*%
%TF.FilePolarity,Positive*%
%FSLAX46Y46*%
G04 Gerber Fmt 4.6, Leading zero omitted, Abs format (unit mm)*
G04 Created by KiCad (PCBNEW 7.0.10) date 2024-08-08 13:18:56*
%MOMM*%
%LPD*%
G01*
G04 APERTURE LIST*
%TA.AperFunction,ViaDrill*%
%ADD10C,0.300000*%
%TD*%
%TA.AperFunction,ViaDrill*%
%ADD11C,0.400000*%
%TD*%
%TA.AperFunction,ComponentDrill*%
%ADD12C,0.800000*%
%TD*%
%TA.AperFunction,ComponentDrill*%
%ADD13C,0.812800*%
%TD*%
%TA.AperFunction,ComponentDrill*%
%ADD14C,1.100000*%
%TD*%
%TA.AperFunction,ComponentDrill*%
%ADD15C,1.200000*%
%TD*%
%TA.AperFunction,ComponentDrill*%
%ADD16C,1.290000*%
%TD*%
%TA.AperFunction,ComponentDrill*%
%ADD17C,1.320000*%
%TD*%
%TA.AperFunction,ComponentDrill*%
%ADD18C,1.400000*%
%TD*%
%TA.AperFunction,ComponentDrill*%
%ADD19C,2.200000*%
%TD*%
G04 APERTURE END LIST*
D10*
X74500000Y-160000000D03*
D11*
X57000000Y-171500000D03*
X65354200Y-172897800D03*
X80340200Y-166776400D03*
X84201000Y-155676600D03*
X84505800Y-131978400D03*
X88036400Y-157962600D03*
X94843600Y-111455200D03*
X98602800Y-134670800D03*
X105537000Y-130327400D03*
X106857800Y-146202400D03*
X107365800Y-121818400D03*
X109651800Y-120827800D03*
X110185200Y-147802600D03*
X111226600Y-124510800D03*
X117500000Y-140000000D03*
X118000000Y-142836500D03*
X118000000Y-144500000D03*
X118017398Y-141682771D03*
X118440200Y-118719600D03*
X118541800Y-138074400D03*
X118694200Y-121742200D03*
X118719600Y-125298200D03*
X118770400Y-116636800D03*
X118846600Y-115265200D03*
X119507000Y-120243600D03*
X120599200Y-117957600D03*
X122072400Y-162356800D03*
X123164600Y-108559600D03*
X127812800Y-133248400D03*
D12*
%TO.C,U6*%
X86790000Y-114990000D03*
X86790000Y-117530000D03*
X86790000Y-120070000D03*
X86790000Y-122610000D03*
X86790000Y-125150000D03*
X86790000Y-127690000D03*
X86790000Y-130230000D03*
X86790000Y-132770000D03*
X86790000Y-135310000D03*
X86790000Y-137850000D03*
X86790000Y-140390000D03*
X86790000Y-142930000D03*
X86790000Y-145470000D03*
X86790000Y-148010000D03*
X94410000Y-114990000D03*
X94410000Y-117530000D03*
X94410000Y-120070000D03*
X94410000Y-122610000D03*
X94410000Y-125150000D03*
X94410000Y-127690000D03*
X94410000Y-130230000D03*
X94410000Y-132770000D03*
X94410000Y-135310000D03*
X94410000Y-137850000D03*
X94410000Y-140390000D03*
X94410000Y-142930000D03*
X94410000Y-145470000D03*
X94410000Y-148010000D03*
D13*
%TO.C,Q3*%
X73900000Y-122730000D03*
X73900000Y-125270000D03*
%TO.C,Q4*%
X74500000Y-87230000D03*
X74500000Y-89770000D03*
%TO.C,Q5*%
X74500000Y-107730000D03*
X74500000Y-110270000D03*
%TO.C,Q2*%
X74500000Y-140230000D03*
X74500000Y-142770000D03*
%TO.C,Q3*%
X75805000Y-124000000D03*
%TO.C,Q4*%
X76405000Y-88500000D03*
%TO.C,Q5*%
X76405000Y-109000000D03*
%TO.C,Q2*%
X76405000Y-141500000D03*
D14*
%TO.C,Q1*%
X121445000Y-96360000D03*
X121445000Y-98900000D03*
X121445000Y-101440000D03*
D15*
%TO.C,D12*%
X58880000Y-176500000D03*
X74120000Y-176500000D03*
%TO.C,D14*%
X110380000Y-175000000D03*
X125620000Y-175000000D03*
D16*
%TO.C,K2*%
X68000000Y-126500000D03*
%TO.C,K3*%
X68100000Y-92500000D03*
%TO.C,K4*%
X68100000Y-109500000D03*
%TO.C,K1*%
X68100000Y-143500000D03*
D17*
%TO.C,K2*%
X53800000Y-120500000D03*
X53800000Y-132500000D03*
%TO.C,K3*%
X53900000Y-86500000D03*
X53900000Y-98500000D03*
%TO.C,K4*%
X53900000Y-103500000D03*
X53900000Y-115500000D03*
%TO.C,K1*%
X53900000Y-137500000D03*
X53900000Y-149500000D03*
%TO.C,K2*%
X66000000Y-120500000D03*
X66000000Y-132500000D03*
%TO.C,K3*%
X66100000Y-86500000D03*
X66100000Y-98500000D03*
%TO.C,K4*%
X66100000Y-103500000D03*
X66100000Y-115500000D03*
%TO.C,K1*%
X66100000Y-137500000D03*
X66100000Y-149500000D03*
D18*
%TO.C,J11*%
X45466000Y-132490200D03*
X45466000Y-137490200D03*
%TO.C,J13*%
X45720000Y-99582600D03*
X45720000Y-104582600D03*
%TO.C,J14*%
X86465000Y-175500000D03*
%TO.C,J12*%
X87500000Y-86250000D03*
%TO.C,J14*%
X91545000Y-175500000D03*
%TO.C,J12*%
X92500000Y-86250000D03*
X97500000Y-86250000D03*
%TO.C,J6*%
X104500000Y-86250000D03*
X109500000Y-86250000D03*
X114500000Y-86250000D03*
%TO.C,J4*%
X121500000Y-86250000D03*
X126500000Y-86250000D03*
%TO.C,J10*%
X135750000Y-96500000D03*
X135750000Y-101500000D03*
%TO.C,J5*%
X136250000Y-111000000D03*
X136250000Y-116000000D03*
X136250000Y-121000000D03*
X136250000Y-126000000D03*
%TO.C,J3*%
X136500000Y-136000000D03*
X136500000Y-141000000D03*
X136500000Y-146000000D03*
X136500000Y-151000000D03*
D19*
%TO.C,H4*%
X43865800Y-162991800D03*
%TO.C,H3*%
X46710600Y-89281000D03*
%TO.C,H1*%
X135331200Y-89255600D03*
%TO.C,H2*%
X138303000Y-170027600D03*
M02*
